<svg width="439" height="41" viewBox="0 0 439 41" fill="none" xmlns="http://www.w3.org/2000/svg">
<path d="M5.04 31.0001C4.16 31.0001 3.34667 30.7867 2.6 30.3601C1.88 29.9334 1.30667 29.3601 0.88 28.6401C0.453333 27.8934 0.24 27.0801 0.24 26.2001V7.00006C0.24 6.12006 0.453333 5.32006 0.88 4.60006C1.30667 3.85339 1.88 3.26673 2.6 2.84006C3.34667 2.41339 4.16 2.20006 5.04 2.20006H28.96V5.44006H5.04C4.61333 5.44006 4.24 5.60006 3.92 5.92006C3.62667 6.21339 3.48 6.57339 3.48 7.00006V26.2001C3.48 26.6267 3.62667 27.0001 3.92 27.3201C4.24 27.6134 4.61333 27.7601 5.04 27.7601H28.96V31.0001H5.04ZM37.7706 31.0001C36.8906 31.0001 36.0773 30.7867 35.3306 30.3601C34.6106 29.9067 34.024 29.3201 33.5706 28.6001C33.144 27.8534 32.9306 27.0401 32.9306 26.1601V12.6401C32.9306 11.7601 33.144 10.9601 33.5706 10.2401C34.024 9.49339 34.6106 8.90673 35.3306 8.48006C36.0773 8.02673 36.8906 7.80006 37.7706 7.80006H51.6906C52.5973 7.80006 53.4106 8.02673 54.1306 8.48006C54.8773 8.90673 55.464 9.49339 55.8906 10.2401C56.344 10.9601 56.5706 11.7601 56.5706 12.6401V26.1601C56.5706 27.0401 56.344 27.8534 55.8906 28.6001C55.464 29.3201 54.8773 29.9067 54.1306 30.3601C53.4106 30.7867 52.5973 31.0001 51.6906 31.0001H37.7706ZM37.7706 27.7201H51.6906C52.1173 27.7201 52.4773 27.5734 52.7706 27.2801C53.0906 26.9601 53.2506 26.5867 53.2506 26.1601V12.6401C53.2506 12.2134 53.0906 11.8534 52.7706 11.5601C52.4773 11.2401 52.1173 11.0801 51.6906 11.0801H37.7706C37.344 11.0801 36.9706 11.2401 36.6506 11.5601C36.3573 11.8534 36.2106 12.2134 36.2106 12.6401V26.1601C36.2106 26.5867 36.3573 26.9601 36.6506 27.2801C36.9706 27.5734 37.344 27.7201 37.7706 27.7201ZM64.3859 31.0001C63.4793 31.0001 62.6526 30.7867 61.9059 30.3601C61.1859 29.9067 60.5993 29.3201 60.1459 28.6001C59.7193 27.8534 59.5059 27.0401 59.5059 26.1601V12.6401C59.5059 11.7601 59.7193 10.9601 60.1459 10.2401C60.5993 9.49339 61.1859 8.90673 61.9059 8.48006C62.6526 8.02673 63.4793 7.80006 64.3859 7.80006H79.8659V0.200059H83.1459V31.0001H64.3859ZM64.3859 27.7201H78.3059C78.7326 27.7201 79.0926 27.5734 79.3859 27.2801C79.7059 26.9601 79.8659 26.5867 79.8659 26.1601V12.6401C79.8659 12.2134 79.7059 11.8534 79.3859 11.5601C79.0926 11.2401 78.7326 11.0801 78.3059 11.0801H64.3859C63.9593 11.0801 63.5859 11.2401 63.2659 11.5601C62.9726 11.8534 62.8259 12.2134 62.8259 12.6401V26.1601C62.8259 26.5867 62.9726 26.9601 63.2659 27.2801C63.5859 27.5734 63.9593 27.7201 64.3859 27.7201ZM91.3644 31.0001C90.4844 31.0001 89.671 30.7867 88.9244 30.3601C88.2044 29.9067 87.6177 29.3201 87.1644 28.6001C86.7377 27.8534 86.5244 27.0401 86.5244 26.1601V12.6401C86.5244 11.7601 86.7377 10.9601 87.1644 10.2401C87.6177 9.49339 88.2044 8.90673 88.9244 8.48006C89.671 8.02673 90.4844 7.80006 91.3644 7.80006H105.284C106.191 7.80006 107.004 8.02673 107.724 8.48006C108.471 8.90673 109.058 9.49339 109.484 10.2401C109.938 10.9601 110.164 11.7601 110.164 12.6401V21.0401H89.8044V26.1601C89.8044 26.5867 89.951 26.9601 90.2444 27.2801C90.5644 27.5734 90.9377 27.7201 91.3644 27.7201H110.164V31.0001H91.3644ZM89.8044 17.7601H106.844V12.6401C106.844 12.2134 106.684 11.8534 106.364 11.5601C106.071 11.2401 105.711 11.0801 105.284 11.0801H91.3644C90.9377 11.0801 90.5644 11.2401 90.2444 11.5601C89.951 11.8534 89.8044 12.2134 89.8044 12.6401V17.7601ZM114.34 31.0001V7.80006H133.14C134.02 7.80006 134.82 8.02673 135.54 8.48006C136.286 8.90673 136.873 9.49339 137.3 10.2401C137.753 10.9601 137.98 11.7601 137.98 12.6401V31.0001H134.7V12.6401C134.7 12.2134 134.54 11.8534 134.22 11.5601C133.926 11.2401 133.566 11.0801 133.14 11.0801H119.22C118.793 11.0801 118.42 11.2401 118.1 11.5601C117.78 11.8534 117.62 12.2134 117.62 12.6401V31.0001H114.34ZM146.911 31.0001C146.031 31.0001 145.218 30.7867 144.471 30.3601C143.751 29.9067 143.165 29.3201 142.711 28.6001C142.285 27.8534 142.071 27.0401 142.071 26.1601V12.6401C142.071 11.7601 142.285 10.9601 142.711 10.2401C143.165 9.49339 143.751 8.90673 144.471 8.48006C145.218 8.02673 146.031 7.80006 146.911 7.80006H160.831C161.738 7.80006 162.551 8.02673 163.271 8.48006C164.018 8.90673 164.605 9.49339 165.031 10.2401C165.485 10.9601 165.711 11.7601 165.711 12.6401V21.0401H145.351V26.1601C145.351 26.5867 145.498 26.9601 145.791 27.2801C146.111 27.5734 146.485 27.7201 146.911 27.7201H165.711V31.0001H146.911ZM145.351 17.7601H162.391V12.6401C162.391 12.2134 162.231 11.8534 161.911 11.5601C161.618 11.2401 161.258 11.0801 160.831 11.0801H146.911C146.485 11.0801 146.111 11.2401 145.791 11.5601C145.498 11.8534 145.351 12.2134 145.351 12.6401V17.7601ZM168.903 31.0001V30.9601L178.583 19.2001L168.903 7.84006V7.80006H173.223L180.743 16.6001L188.303 7.80006H192.583V7.84006L182.903 19.2001L192.623 30.9601V31.0001H188.303L180.743 21.7201L173.223 31.0001H168.903ZM206.76 31.0001V30.9761L214.008 22.3601L206.76 13.7441V13.7201H209.256L215.28 20.8481L221.28 13.7201H223.776V13.7441L216.528 22.3601L223.8 30.9761V31.0001H221.28L215.28 23.8721L209.256 31.0001H206.76ZM238.191 31.0001V7.80006H256.991C257.871 7.80006 258.671 8.02673 259.391 8.48006C260.138 8.90673 260.725 9.49339 261.151 10.2401C261.605 10.9601 261.831 11.7601 261.831 12.6401V31.0001H258.551V12.6401C258.551 12.2134 258.391 11.8534 258.071 11.5601C257.778 11.2401 257.418 11.0801 256.991 11.0801H243.071C242.645 11.0801 242.271 11.2401 241.951 11.5601C241.631 11.8534 241.471 12.2134 241.471 12.6401V31.0001H238.191ZM265.963 31.0001V7.80006H269.243V31.0001H265.963ZM265.963 3.48006V0.200059H269.243V3.48006H265.963ZM274.283 31.0001V12.6401C274.283 11.7601 274.496 10.9601 274.923 10.2401C275.376 9.49339 275.963 8.90673 276.683 8.48006C277.43 8.02673 278.243 7.80006 279.123 7.80006H292.163V11.0801H279.123C278.696 11.0801 278.323 11.2401 278.003 11.5601C277.71 11.8534 277.563 12.2134 277.563 12.6401V31.0001H274.283ZM299.592 31.0001C298.712 31.0001 297.899 30.7867 297.152 30.3601C296.432 29.9067 295.845 29.3201 295.392 28.6001C294.965 27.8534 294.752 27.0401 294.752 26.1601V17.7601H315.072V12.6401C315.072 12.2134 314.912 11.8534 314.592 11.5601C314.299 11.2401 313.939 11.0801 313.512 11.0801H294.752V7.80006H313.512C314.419 7.80006 315.232 8.02673 315.952 8.48006C316.699 8.90673 317.285 9.49339 317.712 10.2401C318.165 10.9601 318.392 11.7601 318.392 12.6401V31.0001H299.592ZM299.592 27.7201H315.072V21.0401H298.032V26.1601C298.032 26.5867 298.179 26.9601 298.472 27.2801C298.792 27.5734 299.165 27.7201 299.592 27.7201ZM321.824 31.0001V7.80006H352.464C353.371 7.80006 354.184 8.02673 354.904 8.48006C355.651 8.90673 356.237 9.49339 356.664 10.2401C357.091 10.9601 357.304 11.7601 357.304 12.6401V31.0001H354.064V12.6401C354.064 12.2134 353.904 11.8534 353.584 11.5601C353.264 11.2401 352.891 11.0801 352.464 11.0801H342.824C342.397 11.0801 342.024 11.2401 341.704 11.5601C341.411 11.8534 341.264 12.2134 341.264 12.6401V31.0001H337.944V12.6401C337.944 12.2134 337.784 11.8534 337.464 11.5601C337.171 11.2401 336.811 11.0801 336.384 11.0801H326.704C326.277 11.0801 325.904 11.2401 325.584 11.5601C325.291 11.8534 325.144 12.2134 325.144 12.6401V31.0001H321.824ZM365.686 31.0001C364.806 31.0001 363.992 30.7867 363.246 30.3601C362.526 29.9067 361.939 29.3201 361.486 28.6001C361.059 27.8534 360.846 27.0401 360.846 26.1601V17.7601H381.166V12.6401C381.166 12.2134 381.006 11.8534 380.686 11.5601C380.392 11.2401 380.032 11.0801 379.606 11.0801H360.846V7.80006H379.606C380.512 7.80006 381.326 8.02673 382.046 8.48006C382.792 8.90673 383.379 9.49339 383.806 10.2401C384.259 10.9601 384.486 11.7601 384.486 12.6401V31.0001H365.686ZM365.686 27.7201H381.166V21.0401H364.126V26.1601C364.126 26.5867 364.272 26.9601 364.566 27.2801C364.886 27.5734 365.259 27.7201 365.686 27.7201ZM392.499 40.2001V36.8801H406.979C407.406 36.8801 407.766 36.7201 408.059 36.4001C408.379 36.1067 408.539 35.7467 408.539 35.3201V31.0001H393.059C392.179 31.0001 391.366 30.7867 390.619 30.3601C389.899 29.9067 389.312 29.3201 388.859 28.6001C388.432 27.8534 388.219 27.0401 388.219 26.1601V7.88006H391.499V26.1601C391.499 26.5867 391.646 26.9601 391.939 27.2801C392.259 27.5734 392.632 27.7201 393.059 27.7201H406.979C407.406 27.7201 407.766 27.5734 408.059 27.2801C408.379 26.9601 408.539 26.5867 408.539 26.1601V7.88006H411.819V35.3201C411.819 36.2267 411.606 37.0401 411.179 37.7601C410.752 38.5067 410.166 39.0934 409.419 39.5201C408.699 39.9734 407.886 40.2001 406.979 40.2001H392.499ZM419.904 31.0001C419.024 31.0001 418.211 30.7867 417.464 30.3601C416.744 29.9067 416.158 29.3201 415.704 28.6001C415.278 27.8534 415.064 27.0401 415.064 26.1601V17.7601H435.384V12.6401C435.384 12.2134 435.224 11.8534 434.904 11.5601C434.611 11.2401 434.251 11.0801 433.824 11.0801H415.064V7.80006H433.824C434.731 7.80006 435.544 8.02673 436.264 8.48006C437.011 8.90673 437.598 9.49339 438.024 10.2401C438.478 10.9601 438.704 11.7601 438.704 12.6401V31.0001H419.904ZM419.904 27.7201H435.384V21.0401H418.344V26.1601C418.344 26.5867 418.491 26.9601 418.784 27.2801C419.104 27.5734 419.478 27.7201 419.904 27.7201Z" fill="white"/>
</svg>
