<svg width="699" height="792" viewBox="0 0 699 792" fill="none" xmlns="http://www.w3.org/2000/svg">
<path d="M30.3767 173.438L305.167 173.438V159.848L30.3767 159.848V173.438Z" fill="#EBEBEB"/>
<path d="M289.747 173.457H277.692V218.39H289.747V173.457Z" fill="#EBEBEB"/>
<path d="M289.747 173.457H277.692V187.344H289.747V173.457Z" fill="#DBDBDB"/>
<path d="M57.8176 173.457H45.7627V218.39H57.8176V173.457Z" fill="#EBEBEB"/>
<path d="M57.8176 173.457H45.7627V187.344H57.8176V173.457Z" fill="#DBDBDB"/>
<path d="M253.864 159.867V73.291H234.52V159.867H253.864Z" fill="#C7C7C7"/>
<path d="M253.864 78.1805V68.6621H234.52V78.1805H253.864Z" fill="#DBDBDB"/>
<path d="M253.864 93.8896V90.3574H234.52V93.8896H253.864Z" fill="#DBDBDB"/>
<path d="M253.864 148.508V138.989H232.113V148.508H253.864Z" fill="#DBDBDB"/>
<path d="M234.52 159.867V58.8643H220.997V159.867H234.52Z" fill="#DBDBDB"/>
<path d="M231.881 107.199V68.3633H223.767V107.199H231.881Z" fill="#EBEBEB"/>
<path d="M134.36 159.901L198.078 88.8936L188.571 78.0523L124.854 149.059L134.36 159.901Z" fill="#C7C7C7"/>
<path d="M147.372 141.037L171.871 113.734L166.167 107.23L141.667 134.532L147.372 141.037Z" fill="#DBDBDB"/>
<path d="M221.014 159.867V83.1621H198.058V159.867H221.014Z" fill="#A6A6A6"/>
<path d="M221.014 151.761V144.604H198.058V151.761H221.014Z" fill="#C7C7C7"/>
<path d="M221.014 139.9V137.13H198.058V139.9H221.014Z" fill="#C7C7C7"/>
<path d="M269.728 159.884V87.79H253.88V159.884H269.728Z" fill="#A6A6A6"/>
<path d="M269.728 152.225V145.514H253.88V152.225H269.728Z" fill="#C7C7C7"/>
<path d="M269.728 109.357V102.646H253.88V109.357H269.728Z" fill="#C7C7C7"/>
<path d="M269.712 116.569V113.967H253.864V116.569H269.712Z" fill="#C7C7C7"/>
<path d="M85.9347 67.5086C99.4573 82.3811 101.733 105.545 98.8801 125.771C98.8801 126.218 98.171 126.106 98.171 125.66C98.171 121.068 98.303 116.495 98.2865 111.959C98.2865 111.736 98.1545 111.55 98.0721 111.345C94.4281 108.639 91.4137 104.985 89.2824 100.693C87.0231 95.6919 86.1326 90.0404 84.4175 84.7978C84.2526 84.2959 84.7308 84.4446 85.0277 84.7049C93.2732 91.5462 95.8788 98.9081 98.2205 108.742C98.1665 103.597 97.6862 98.4685 96.7858 93.4239C95.2153 83.9151 91.333 75.0849 85.5719 67.9176C85.5409 67.8606 85.5279 67.7936 85.5349 67.7273C85.5419 67.661 85.5684 67.5992 85.6103 67.552C85.6522 67.5047 85.707 67.4748 85.7658 67.4669C85.8247 67.459 85.8841 67.4737 85.9347 67.5086Z" fill="#A6A6A6"/>
<path d="M83.396 69.2564C81.0542 69.2564 79.603 73.5322 77.789 74.8336C77.5981 75.0083 77.3767 75.1357 77.1391 75.2073C76.9016 75.279 76.6533 75.2934 76.4105 75.2495C76.1678 75.2057 75.9359 75.1045 75.7301 74.9528C75.5244 74.801 75.3493 74.602 75.2164 74.3688C73.4189 71.543 75.8925 68.0666 78.2013 66.1146C76.6722 67.0808 75.0585 67.8658 73.3859 68.457C73.1575 68.5476 72.9141 68.5804 72.6732 68.553C72.4322 68.5256 72.1996 68.4387 71.9918 68.2985C71.784 68.1583 71.6062 67.9682 71.4709 67.7418C71.3356 67.5154 71.2462 67.2581 71.2091 66.9883C70.4175 63.1401 74.7052 61.4112 77.6571 61.4112C76.2224 60.2958 72.1326 57.2655 74.3589 55.834C76.5852 54.4025 81.3676 58.6784 82.9177 60.1099C85.2265 62.2106 87.964 65.371 88.0794 68.6615C88.1619 72.4168 85.177 70.0558 83.396 69.2564Z" fill="#DBDBDB"/>
<path d="M84.0554 69.9066C81.087 68.3636 75.3646 70.5759 74.8864 69.2931C73.8969 66.709 78.4649 64.9429 80.9386 64.5897C78.6628 63.9019 74.3422 62.7307 74.4411 60.3325C74.606 57.3208 81.12 59.9049 84.4182 62.7493C88.5575 66.3372 88.541 69.8137 87.8484 70.5015C86.9084 71.4496 84.5501 70.1483 84.0554 69.9066Z" fill="#EBEBEB"/>
<path d="M116.74 66.0406C102.722 80.3739 99.6714 103.352 101.898 123.671C101.898 124.136 102.59 124.043 102.607 123.671C102.755 119.079 102.788 114.506 102.953 109.97L103.184 109.357C106.917 106.822 110.051 103.308 112.32 99.1132C114.761 94.2053 115.833 88.5909 117.729 83.4413C117.911 82.9394 117.432 83.0695 117.119 83.3112C108.659 89.7993 105.79 97.0496 103.102 106.772C103.326 101.634 103.978 96.53 105.048 91.5282C106.946 82.0834 111.137 73.4197 117.152 66.5053C117.207 66.4437 117.237 66.3601 117.237 66.273C117.237 66.1858 117.207 66.1022 117.152 66.0406C117.097 65.979 117.023 65.9443 116.946 65.9443C116.868 65.9443 116.794 65.979 116.74 66.0406Z" fill="#A6A6A6"/>
<path d="M119.215 67.8813C121.54 68.0672 122.859 72.3244 124.624 73.6258C124.809 73.8091 125.026 73.9464 125.261 74.0286C125.496 74.1107 125.744 74.136 125.988 74.1026C126.233 74.0693 126.468 73.9781 126.679 73.835C126.89 73.692 127.072 73.5003 127.213 73.2726C129.109 70.5212 126.751 66.9332 124.508 64.8882C126 65.9721 127.586 66.8815 129.241 67.6024C129.467 67.7031 129.709 67.7464 129.951 67.7294C130.193 67.7124 130.429 67.6355 130.641 67.5042C130.854 67.3728 131.038 67.1902 131.181 66.9694C131.324 66.7486 131.422 66.4951 131.468 66.2267C132.375 62.3971 128.169 60.5008 125.217 60.2964C126.669 59.2367 130.857 56.3737 128.747 54.7192C126.636 53.0646 121.688 57.3033 120.039 58.6976C117.665 60.7053 114.828 63.7356 114.614 67.0075C114.35 70.8372 117.401 68.6063 119.215 67.8813Z" fill="#DBDBDB"/>
<path d="M118.522 68.4574C121.556 67.0631 127.18 69.4984 127.708 68.2529C128.779 65.7246 124.277 63.754 121.837 63.3078C124.129 62.7129 128.433 61.7834 128.433 59.3108C128.433 56.2992 121.837 58.6044 118.39 61.3186C114.135 64.7207 114.036 68.1785 114.696 68.9035C115.62 69.926 118.027 68.7362 118.522 68.4574Z" fill="#EBEBEB"/>
<path d="M102.393 103.91C101.454 111.577 99.999 119.153 98.0395 126.571C98.0133 126.717 97.9369 126.845 97.8271 126.927C97.7173 127.009 97.5831 127.038 97.4541 127.008C97.3251 126.979 97.2118 126.893 97.1391 126.769C97.0664 126.645 97.0403 126.494 97.0666 126.348C97.9901 119.358 99.6721 112.498 100.579 105.527C101.592 98.4554 101.957 91.285 101.668 84.1292C101.074 72.3614 98.2374 59.8314 91.4266 50.6662C91.2782 50.4431 91.5915 50.1271 91.7399 50.3316C105.395 68.2715 103.284 90.2641 103.284 92.2347C105.213 84.7985 107.209 76.3026 114.514 68.7362C114.827 68.4016 115.075 68.5689 115.025 69.1266C113.723 82.8837 110.325 90.0782 103.234 97.4401C102.954 99.578 102.707 101.753 102.393 103.91Z" fill="#A6A6A6"/>
<path d="M91.2953 52.6914C88.8382 51.4644 85.4575 54.978 83.0498 55.2197C82.7794 55.2927 82.4985 55.3018 82.2248 55.2463C81.9512 55.1909 81.6907 55.072 81.4598 54.8973C81.2289 54.7226 81.0326 54.4959 80.8834 54.2314C80.7341 53.9669 80.6351 53.6704 80.5927 53.3606C79.9825 49.4194 84.1053 47.1886 87.3705 46.4821C85.3091 46.3334 83.2807 46.9655 81.2523 46.352C80.9729 46.3154 80.7039 46.2109 80.4638 46.0457C80.2237 45.8806 80.0182 45.6588 79.8614 45.3955C79.7047 45.1322 79.6004 44.8337 79.5558 44.5207C79.5113 44.2076 79.5274 43.8874 79.6032 43.582C80.5102 39.1389 85.7214 39.8639 88.8217 41.3697C87.8322 39.5107 84.9463 33.9335 87.8652 33.6175C90.7841 33.3014 93.868 40.5331 94.8409 42.9127C96.2921 46.4078 97.7433 51.2227 96.3746 54.6992C94.8409 58.6775 92.796 54.5318 91.2953 52.6914Z" fill="#DBDBDB"/>
<path d="M91.707 53.7325C89.2993 50.4792 82.3896 49.5125 82.4555 47.9137C82.5875 44.6789 88.112 45.4225 90.833 46.4636C88.7881 44.4558 84.7643 40.8864 86.0011 38.3581C87.5183 35.3279 93.1088 41.7044 95.2691 46.538C97.9736 52.6171 96.3905 56.1865 95.368 56.5211C93.9663 56.9673 92.1028 54.2902 91.707 53.7325Z" fill="#EBEBEB"/>
<path d="M111.382 108.037L117.401 159.868H80.7744C81.533 155.276 88.3438 107.981 88.3438 107.981L111.382 108.037Z" fill="#DBDBDB"/>
<path d="M548.163 121.309C549.161 116.54 550.976 112.037 553.506 108.054C555.913 104.335 559.794 101.634 565.148 99.9481C566.798 99.3904 568.727 98.7955 571.052 98.0891C573.445 97.4336 575.784 96.5505 578.044 95.4492C580.345 94.3425 582.467 92.8162 584.328 90.9317C586.213 89.0132 587.531 86.4892 588.104 83.7C588.596 81.694 588.659 79.5849 588.285 77.5465C587.938 75.715 587.265 73.9821 586.306 72.4527C585.315 70.9101 584.059 69.6078 582.612 68.623C581.133 67.5903 579.519 66.825 577.83 66.355C575.891 65.7933 573.871 65.6857 571.893 66.0389C570.096 66.3402 568.342 66.9156 566.682 67.7493C565.064 68.5671 563.536 69.5966 562.131 70.8167C560.834 71.9259 559.596 73.1176 558.42 74.3861L548.361 61.3727C550.234 58.5205 552.519 56.0443 555.122 54.048C557.656 52.1074 560.436 50.6095 563.367 49.6049C566.355 48.5979 569.452 48.066 572.569 48.0247C575.789 47.9728 579 48.4042 582.118 49.3074C585.671 50.3185 589.075 51.9026 592.227 54.0109C595.376 56.1042 598.123 58.8851 600.307 62.1907C602.559 65.6428 604.112 69.6087 604.859 73.8098C605.698 78.7492 605.506 83.8409 604.298 88.6822C603.671 91.7111 602.649 94.6182 601.264 97.3083C600.034 99.6249 598.486 101.708 596.679 103.48C594.89 105.213 592.911 106.681 590.792 107.849C588.493 109.098 586.118 110.16 583.684 111.028C581.524 111.772 579.397 112.441 577.269 113.073C575.218 113.67 573.219 114.479 571.3 115.49C569.464 116.429 567.789 117.725 566.352 119.319C564.877 121.072 563.851 123.244 563.384 125.603L548.163 121.309ZM540.23 158.174L545.095 136.386L560.646 140.792L555.782 162.58L540.23 158.174Z" fill="#EBEBEB"/>
<path d="M57.5039 525.375C58.2117 528.897 58.3013 532.541 57.7678 536.102C56.9806 539.89 55.1015 543.276 52.4247 545.732C51.5012 546.68 50.3633 547.795 49.011 549.059C47.611 550.361 46.3143 551.798 45.1356 553.354C43.9205 554.921 42.9452 556.705 42.2497 558.634C41.5518 560.593 41.4022 562.747 41.8209 564.806C42.0777 566.319 42.6422 567.744 43.47 568.97C44.2271 570.055 45.169 570.959 46.2405 571.628C47.3422 572.279 48.5472 572.677 49.7861 572.8C51.0639 572.95 52.3547 572.874 53.612 572.576C55.0443 572.264 56.4068 571.632 57.6193 570.717C58.7284 569.867 59.7274 568.847 60.5877 567.687C61.4255 566.544 62.1448 565.296 62.7316 563.969C63.2794 562.765 63.7586 561.523 64.1663 560.251L74.5556 565.159C74.1224 567.735 73.3085 570.211 72.148 572.483C71.0199 574.704 69.5961 576.717 67.9263 578.451C66.2382 580.218 64.3331 581.702 62.2698 582.857C60.1497 584.058 57.8986 584.939 55.5745 585.478C52.9306 586.107 50.22 586.301 47.5268 586.055C44.8396 585.815 42.2217 584.974 39.8255 583.582C37.3395 582.105 35.1676 580.037 33.46 577.521C31.497 574.551 30.1706 571.109 29.5846 567.464C29.1265 565.229 28.9708 562.929 29.1228 560.641C29.2694 558.656 29.6982 556.71 30.3926 554.878C31.0743 553.073 31.9673 551.378 33.0477 549.84C34.2061 548.162 35.4739 546.584 36.8406 545.118C38.061 543.854 39.2813 542.627 40.5181 541.4C41.7137 540.274 42.8176 539.03 43.8163 537.682C44.7069 536.382 45.3879 534.916 45.8282 533.35C46.3096 531.647 46.3667 529.827 45.9932 528.089L57.5039 525.375ZM52.1938 498.028L55.2117 514.258L43.6679 516.991L40.6501 500.78L52.1938 498.028Z" fill="#EBEBEB"/>
<path d="M576.842 359.492C578.783 362.365 580.211 365.635 581.047 369.122C581.711 372.951 581.23 376.92 579.678 380.407C579.2 381.708 578.573 383.251 577.815 385.036C577.014 386.874 576.362 388.791 575.869 390.762C575.341 392.756 575.113 394.836 575.193 396.915C575.287 399.023 575.942 401.051 577.073 402.734C577.86 403.987 578.9 405.013 580.107 405.727C581.199 406.363 582.394 406.743 583.619 406.842C584.862 406.932 586.107 406.736 587.28 406.266C588.49 405.792 589.63 405.115 590.661 404.258C591.851 403.308 592.855 402.093 593.613 400.689C594.336 399.396 594.891 397.994 595.262 396.525C595.595 395.096 595.788 393.631 595.839 392.156C595.907 390.812 595.907 389.465 595.839 388.122L607.086 387.713C607.653 390.25 607.831 392.878 607.614 395.484C607.399 398.042 606.843 400.549 605.965 402.92C605.071 405.314 603.883 407.554 602.436 409.575C600.955 411.678 599.237 413.554 597.324 415.152C595.146 416.965 592.746 418.412 590.199 419.447C587.666 420.485 584.976 420.946 582.284 420.804C579.483 420.625 576.75 419.769 574.269 418.294C571.388 416.505 568.911 413.992 567.029 410.951C565.79 409.133 564.8 407.115 564.094 404.965C563.491 403.091 563.163 401.12 563.121 399.127C563.072 397.163 563.255 395.2 563.665 393.29C564.114 391.226 564.692 389.2 565.397 387.229C566.04 385.5 566.683 383.809 567.376 382.154C568.064 380.562 568.616 378.9 569.025 377.19C569.397 375.584 569.52 373.917 569.388 372.264C569.193 370.492 568.571 368.814 567.59 367.412L576.842 359.492ZM562 337.184L570.723 350.513L561.208 358.433L552.484 345.103L562 337.184Z" fill="#EBEBEB"/>
<path d="M630.997 325.956C630.941 321.981 631.58 318.033 632.877 314.337C634.488 310.456 637.205 307.295 640.595 305.358C641.766 304.558 643.217 303.666 644.932 302.643C646.672 301.599 648.327 300.386 649.88 299.018C651.505 297.649 652.911 295.977 654.035 294.073C655.164 292.132 655.74 289.849 655.685 287.529C655.713 285.926 655.422 284.336 654.835 282.875C654.247 281.415 653.376 280.121 652.287 279.089C651.243 278.099 650.031 277.359 648.725 276.914C647.381 276.435 645.979 276.191 644.57 276.189C642.966 276.168 641.375 276.503 639.886 277.174C638.524 277.818 637.243 278.662 636.077 279.684C634.944 280.692 633.92 281.846 633.026 283.123C632.203 284.279 631.443 285.49 630.75 286.748L620.559 278.829C621.537 276.169 622.902 273.712 624.599 271.56C626.266 269.47 628.2 267.672 630.338 266.224C632.515 264.761 634.863 263.648 637.314 262.915C639.832 262.168 642.427 261.793 645.031 261.8C648.008 261.801 650.969 262.289 653.821 263.25C656.663 264.192 659.31 265.766 661.605 267.879C663.974 270.094 665.892 272.859 667.228 275.985C668.788 279.681 669.573 283.733 669.521 287.827C669.551 290.34 669.257 292.845 668.646 295.263C668.079 297.356 667.228 299.337 666.123 301.138C665.028 302.903 663.73 304.497 662.264 305.878C660.672 307.376 658.985 308.743 657.218 309.968C655.668 311.028 654.101 312.05 652.535 313.017C651.027 313.947 649.597 315.03 648.264 316.252C647.008 317.395 645.942 318.78 645.114 320.342C644.256 322.038 643.828 323.967 643.877 325.919L630.997 325.956ZM631.228 356.705V338.486H644.223V356.705H631.228Z" fill="#EBEBEB"/>
<path d="M224.46 431.568C223.676 427.693 223.575 423.682 224.163 419.763C225.027 415.592 227.106 411.868 230.067 409.185C231.073 408.125 232.31 406.917 233.81 405.467C235.337 404.022 236.76 402.443 238.065 400.745C239.388 399.01 240.452 397.045 241.215 394.926C241.981 392.771 242.142 390.402 241.676 388.14C241.396 386.477 240.775 384.911 239.862 383.567C239.016 382.415 237.973 381.467 236.795 380.778C235.589 380.052 234.265 379.609 232.903 379.477C231.503 379.33 230.092 379.418 228.715 379.737C227.141 380.095 225.646 380.796 224.311 381.801C223.084 382.745 221.975 383.87 221.013 385.147C220.099 386.4 219.313 387.766 218.671 389.218C218.047 390.542 217.497 391.908 217.022 393.308L205.792 387.88C206.262 385.051 207.148 382.33 208.414 379.83C209.651 377.388 211.214 375.175 213.048 373.268C214.899 371.32 216.987 369.679 219.249 368.397C221.582 367.084 224.053 366.109 226.604 365.497C229.514 364.812 232.496 364.599 235.459 364.865C238.41 365.124 241.285 366.041 243.919 367.56C246.652 369.17 249.039 371.435 250.911 374.197C254.346 379.596 256.044 386.154 255.727 392.788C255.561 394.963 255.094 397.096 254.342 399.109C253.595 401.103 252.62 402.978 251.439 404.686C250.154 406.519 248.76 408.252 247.267 409.873C245.931 411.267 244.595 412.624 243.243 413.925C241.938 415.191 240.735 416.584 239.648 418.09C238.636 419.51 237.844 421.112 237.306 422.83C236.792 424.706 236.735 426.703 237.141 428.612L224.46 431.568ZM230.347 461.592L227.049 443.782L239.764 440.733L243.062 458.561L230.347 461.592Z" fill="#EBEBEB"/>
<path d="M621.02 575.774L643.052 575.254L653.904 575.049C657.515 574.956 661.094 575.049 664.689 574.938L663.963 575.774L663.864 554.972L664.689 555.901L642.805 555.79C635.533 555.79 628.26 555.566 620.971 555.473L621.433 554.972C621.433 558.374 621.284 561.794 621.202 565.271L621.02 575.774ZM621.02 575.774L620.79 565.475C620.79 562.017 620.608 558.504 620.575 554.972V554.47H621.02C628.31 554.377 635.582 554.172 642.855 554.154L664.689 554.042H665.513V554.972V575.774V576.611H664.771C661.094 576.611 657.4 576.611 653.739 576.499L642.756 576.295L621.02 575.774Z" fill="#EBEBEB"/>
<path d="M645.377 602.006L667.409 601.485L678.26 601.281C681.872 601.188 685.45 601.281 689.045 601.169L688.32 602.006L688.237 581.203L689.045 582.132L667.211 582.021C659.938 582.021 652.666 581.798 645.377 581.705L645.839 581.203C645.839 584.605 645.69 588.026 645.624 591.502L645.377 602.006ZM645.377 602.006L645.146 591.707C645.146 588.249 644.965 584.735 644.932 581.203V580.701H645.377C652.666 580.608 659.938 580.404 667.211 580.385L689.045 580.273H689.886V581.203L689.787 602.006V602.842H688.979C685.302 602.842 681.624 602.842 677.947 602.731L666.964 602.526L645.377 602.006Z" fill="#EBEBEB"/>
<path d="M596.63 602.006L618.662 601.485L629.513 601.281C633.108 601.188 636.703 601.281 640.298 601.169L639.573 602.006L639.507 581.203L640.331 582.132L618.497 582.021C611.224 582.021 603.935 581.798 596.663 581.705L597.108 581.203C597.108 584.605 596.976 588.026 596.894 591.502L596.63 602.006ZM596.63 602.006L596.399 591.707C596.316 588.249 596.218 584.735 596.185 581.203V580.701H596.63C603.902 580.608 611.191 580.404 618.464 580.385L640.298 580.273H641.123V581.203L641.156 602.006V602.842H640.43C636.753 602.842 633.059 602.842 629.398 602.731L618.414 602.526L596.63 602.006Z" fill="#EBEBEB"/>
<path d="M33.8397 602.006L55.8552 601.485L66.7063 601.281C70.3179 601.188 73.9129 601.281 77.508 601.169L76.7659 602.006L76.6834 581.203L77.508 582.132L55.7233 582.021C48.4343 582.021 41.1617 581.798 33.8891 581.705L34.3344 581.203C34.3344 584.605 34.186 588.026 34.12 591.502L33.8397 602.006ZM33.8397 602.006L33.5923 591.707C33.5923 588.249 33.4109 584.735 33.3779 581.203V580.701H33.8397C41.1122 580.608 48.3848 580.404 55.6738 580.385L77.508 580.273H78.3325V581.203L78.2336 602.006V602.842H77.508C73.8305 602.842 70.1365 602.842 66.459 602.731L55.4759 602.526L33.8397 602.006Z" fill="#EBEBEB"/>
<path d="M33.8397 23.412L55.8552 22.8915L66.7063 22.6684C70.3179 22.6684 73.9129 22.6684 77.508 22.6684L76.7659 23.505L76.6834 2.70213L77.508 3.61307L55.7233 3.38998C48.4343 3.38998 41.1617 3.18549 33.8891 3.09253L34.3344 2.59059C34.3344 5.99266 34.186 9.41332 34.12 12.8712L33.8397 23.412ZM33.8397 23.412L33.5923 13.1128C33.5923 9.63641 33.4109 6.1228 33.3779 2.60918V2.10724H33.8397C41.1122 2.10724 48.3848 1.80979 55.6738 1.80979L77.508 1.69824H78.3325V2.64636L78.2336 23.4492V24.2672H77.508C73.8305 24.2672 70.1365 24.2672 66.459 24.1742L55.4759 23.8396L33.8397 23.412Z" fill="#EBEBEB"/>
<path d="M9.54866 49.6425L31.5642 49.1219L42.4153 48.8989C46.0269 48.8989 49.6054 48.8989 53.217 48.8989L52.4749 49.7354V28.9326L53.2994 29.8435L31.3168 29.639C24.0278 29.639 16.7552 29.416 9.54866 29.416L9.99392 28.914C9.99392 32.3161 9.8455 35.7367 9.77953 39.1946L9.54866 49.6425ZM9.54866 49.6425L9.30129 39.3433C9.30129 35.8669 9.1199 32.3533 9.08691 28.8396V28.3377H9.54866C16.8212 28.3377 24.0938 28.0402 31.3828 28.0402L53.217 27.9287H54.0415V28.8768L53.9426 49.6797V50.4976H53.217C49.523 50.4976 45.8455 50.4976 42.1679 50.4976L31.1849 50.2746L9.54866 49.6425Z" fill="#EBEBEB"/>
<path d="M645.377 23.4306L667.409 22.9101L678.26 22.7056C681.872 22.7056 685.45 22.7056 689.045 22.594L688.32 23.4306L688.237 2.62777L689.045 3.5573L667.211 3.38998C659.938 3.38998 652.666 3.18549 645.377 3.09253L645.839 2.59059C645.839 5.99266 645.69 9.41332 645.624 12.8712L645.377 23.4306ZM645.377 23.4306L645.146 13.1314C645.146 9.655 644.965 6.15998 644.932 2.62777V2.12582H645.377C652.666 2.03287 659.938 1.84697 667.211 1.82838L688.979 1.69824H689.82V2.62777L689.738 23.4306V24.2672H688.979C685.302 24.2672 681.624 24.2672 677.947 24.2672L666.964 24.0627L645.377 23.4306Z" fill="#EBEBEB"/>
<path d="M408.978 293.086L386.963 293.606L376.112 293.811C372.5 293.904 368.905 293.811 365.31 293.922L366.052 293.086L366.134 313.889L365.31 312.959L387.144 313.089C394.433 313.089 401.706 313.294 408.978 313.387L408.533 313.889C408.533 310.486 408.681 307.066 408.747 303.608L408.978 293.086ZM408.978 293.086L409.226 303.385C409.226 306.861 409.407 310.356 409.44 313.889V314.39H408.978C401.706 314.39 394.433 314.669 387.144 314.688L365.31 314.799H364.485V313.851L364.584 293.048V292.212H365.31C368.987 292.212 372.681 292.212 376.359 292.305L387.342 292.509L408.978 293.086Z" fill="#EBEBEB"/>
<path d="M384.621 266.855L362.605 267.376L351.754 267.58C348.142 267.58 344.547 267.58 340.952 267.692L341.694 266.855L341.777 287.658L340.952 286.728L362.787 286.859C370.059 286.859 377.348 287.063 384.621 287.156L384.175 287.658C384.175 284.256 384.307 280.835 384.39 277.377L384.621 266.855ZM384.621 266.855L384.852 277.154C384.934 280.631 385.049 284.126 385.066 287.658V288.16H384.604C377.332 288.253 370.043 288.439 362.77 288.457L340.936 288.569H340.111V287.639L340.21 266.837V266H341.018C344.696 266 348.39 266 352.067 266.093L363.05 266.297L384.621 266.855Z" fill="#EBEBEB"/>
<path d="M0.264648 695.924L87.5188 695.478L174.773 695.31L349.265 694.994L523.756 695.31L611.01 695.478L698.265 695.924L611.01 696.388L523.756 696.556L349.265 696.853L174.773 696.556L87.5188 696.388L0.264648 695.924Z" fill="#263238"/>
<path d="M349.264 792.001C513.559 792.001 646.746 777.385 646.746 759.356C646.746 741.327 513.559 726.711 349.264 726.711C184.969 726.711 51.7822 741.327 51.7822 759.356C51.7822 777.385 184.969 792.001 349.264 792.001Z" fill="#EBEBEB"/>
<path d="M641.155 491.374C634.888 484.458 626.791 476.093 617.21 479.086C608.206 481.893 604.759 492.973 603.143 502.212C601.065 514.129 599.449 526.138 597.767 538.129C596.085 550.12 594.469 562.297 592.935 574.474C592.055 581.315 591.198 588.163 590.362 595.016C589.933 598.437 589.51 601.858 589.092 605.278C588.68 608.643 588.185 612.008 588.021 615.392C588.021 616.47 589.472 616.619 589.67 615.596C590.84 609.889 591.319 603.94 592.061 598.158C592.803 592.376 593.561 586.483 594.304 580.664C595.804 569.082 597.371 557.519 598.905 545.937C600.438 534.355 602.054 522.811 603.704 511.247C605.089 501.431 605.748 489.255 613.45 482.785C615.543 481.173 617.966 480.188 620.49 479.921C623.014 479.654 625.557 480.115 627.879 481.261C632.942 483.454 636.999 487.544 640.973 491.597C641.155 491.727 641.32 491.523 641.155 491.374Z" fill="#263238"/>
<path d="M632.629 484.308C632.629 484.308 619.816 479.121 613.5 489.643C607.183 500.166 614.736 526.973 673.032 542.087C671.327 521.547 666.589 501.471 659.015 482.691C646.515 451.96 624.235 463.598 632.629 484.308Z" fill="url(#paint0_linear_126_1321)"/>
<path d="M669.684 537.701C668.804 535.862 667.824 534.087 666.749 532.384C665.776 530.693 664.786 529.001 663.797 527.328C663.055 526.064 662.28 524.799 661.521 523.61C661.521 523.312 661.521 522.996 661.62 522.68L661.818 520.97C661.966 519.743 662.131 518.497 662.28 517.252C662.428 516.006 662.626 514.816 662.84 513.533C662.974 512.218 663.228 510.922 663.599 509.667C663.599 509.462 663.368 509.369 663.352 509.667C663.226 510.412 663.05 511.146 662.824 511.86L662.428 513.515C662.148 514.76 661.884 516.006 661.637 517.233C661.389 518.46 661.208 519.557 661.026 520.709C660.944 521.286 660.878 521.843 660.812 522.401C659.773 520.728 658.701 519.073 657.613 517.456C654.512 512.864 651.247 508.44 647.85 504.108C647.85 504.108 647.85 504.108 647.85 503.997C648.163 497.099 648.015 490.258 649.367 483.547C649.367 483.361 649.169 483.249 649.12 483.435C647.583 489.839 646.85 496.453 646.943 503.086C645.739 501.561 644.502 500.037 643.266 498.531C640.413 495.092 637.527 491.69 634.575 488.38C634.459 488.25 634.261 488.38 634.377 488.585C639.324 494.553 643.958 500.762 648.51 507.083C644.949 507.017 641.387 507.166 637.84 507.529C633.899 507.845 629.974 508.421 626.049 509.035C625.867 509.035 625.917 509.351 626.049 509.332C629.951 508.684 633.882 508.287 637.824 508.142C641.633 507.956 645.409 508.142 649.219 508.142C651.682 511.563 654.106 515.021 656.491 518.516H655.997C655.106 518.516 654.216 518.516 653.325 518.516C651.544 518.516 649.78 518.702 648.015 518.869C644.392 519.208 640.794 519.829 637.246 520.728C637.211 520.728 637.178 520.744 637.153 520.772C637.128 520.799 637.114 520.837 637.114 520.877C637.114 520.916 637.128 520.954 637.153 520.982C637.178 521.01 637.211 521.025 637.246 521.025C640.825 520.561 644.42 520.189 648.015 520.04C649.664 520.04 651.462 520.04 653.177 520.04H655.997C656.49 520.116 656.991 520.065 657.464 519.891C659.026 522.184 660.587 524.483 662.148 526.789C663.385 528.648 664.605 530.507 665.809 532.366C667.013 534.225 668.151 536.363 669.503 538.147C669.569 538.017 669.75 537.85 669.684 537.701Z" fill="#263238"/>
<path d="M638.203 499.237C636.137 498.94 634.052 498.828 631.97 498.902C629.892 498.902 627.798 498.902 625.72 499.051C625.538 499.051 625.555 499.348 625.72 499.348C627.831 499.162 629.941 499.125 632.052 499.162C634.163 499.2 636.142 499.423 638.171 499.348C638.269 499.348 638.269 499.255 638.203 499.237Z" fill="#263238"/>
<path d="M656.509 504.537C656.74 502.287 656.987 500.038 657.416 497.825C657.416 497.786 657.402 497.748 657.377 497.72C657.352 497.692 657.319 497.677 657.284 497.677C657.249 497.677 657.215 497.692 657.19 497.72C657.166 497.748 657.152 497.786 657.152 497.825C656.855 500.038 656.476 502.231 656.195 504.444C656.047 505.541 655.915 506.656 655.783 507.753C655.616 508.789 655.539 509.841 655.552 510.895C655.564 510.936 655.587 510.973 655.618 510.998C655.649 511.024 655.687 511.038 655.725 511.038C655.764 511.038 655.802 511.024 655.833 510.998C655.864 510.973 655.887 510.936 655.899 510.895C656.072 509.858 656.171 508.807 656.195 507.753C656.278 506.675 656.393 505.596 656.509 504.537Z" fill="#263238"/>
<path d="M652.699 479.662C652.187 481.856 651.676 484.068 651.33 486.28C651.148 487.414 650.983 488.548 650.852 489.682C650.67 490.779 650.604 491.896 650.654 493.01C650.654 493.035 650.662 493.058 650.678 493.076C650.693 493.093 650.714 493.103 650.736 493.103C650.758 493.103 650.779 493.093 650.794 493.076C650.81 493.058 650.819 493.035 650.819 493.01C651.05 491.973 651.199 490.916 651.264 489.85C651.396 488.753 651.544 487.674 651.709 486.578C652.072 484.291 652.435 482.023 652.946 479.773C652.962 479.588 652.699 479.476 652.699 479.662Z" fill="#263238"/>
<path d="M576.84 612.956C576.51 608.829 576.147 604.683 575.768 600.556C574.988 592.376 574.113 584.202 573.146 576.035C572.173 567.911 571.25 559.75 570.079 551.644C569.657 547.854 568.912 544.118 567.852 540.49C567.475 538.942 566.789 537.512 565.846 536.31C564.902 535.108 563.727 534.166 562.41 533.556C555.55 530.897 550.867 538.91 548.162 544.58C548.08 544.747 548.294 544.877 548.393 544.728C550.042 542.033 554.627 534.504 559.838 534.857C563.334 535.08 566.137 537.887 567.819 547.722C572.008 572.242 575.785 622.084 576.23 625.263C576.461 626.992 577.533 626.917 577.549 625.058C577.483 621.08 577.071 617.009 576.84 612.956Z" fill="#263238"/>
<path d="M549.927 541.624C549.927 541.624 555.93 517.753 542.671 529.689C520.606 549.562 519.831 592.71 519.831 592.71C519.831 592.71 559.047 567.037 563.912 550.101C571.184 524.929 549.927 541.624 549.927 541.624Z" fill="url(#paint1_linear_126_1321)"/>
<path d="M557.348 553.336C554.281 554.043 551.147 554.508 548.047 555.009L543.627 555.716C542.638 555.865 541.632 555.976 540.626 556.106C543.545 551.57 546.497 547.053 549.3 542.424C549.327 542.384 549.338 542.335 549.332 542.286C549.325 542.237 549.302 542.193 549.267 542.163C549.232 542.134 549.188 542.121 549.145 542.128C549.102 542.135 549.063 542.161 549.037 542.201C546.698 544.904 544.496 547.753 542.44 550.734L540.692 545.157C540.032 543.019 539.307 540.899 538.829 538.687C538.829 538.501 538.532 538.687 538.581 538.78C539.109 540.955 539.488 543.204 540.016 545.398C540.544 547.592 541.088 549.6 541.747 551.663C540.313 553.764 538.927 555.92 537.592 558.096C536.916 555.939 536.075 553.857 535.497 551.663C535.497 551.477 535.184 551.57 535.233 551.663C535.943 554.099 536.322 556.608 536.982 559.099C536.074 560.587 535.184 562.074 534.326 563.561C532.677 566.331 531.243 569.138 529.791 571.964C529.678 572.019 529.583 572.114 529.52 572.234C529.458 572.355 529.432 572.495 529.445 572.633C526.971 577.467 524.613 582.356 522.288 587.301C522.271 587.336 522.266 587.377 522.275 587.415C522.284 587.453 522.307 587.486 522.337 587.506C522.368 587.526 522.404 587.531 522.438 587.52C522.472 587.51 522.501 587.485 522.519 587.45C524.844 582.561 527.466 577.802 530.121 573.135C530.538 572.98 530.97 572.887 531.408 572.856L532.76 572.522C533.766 572.28 534.772 571.983 535.778 571.704C537.773 571.146 539.736 570.607 541.764 570.217C541.929 570.217 541.846 569.901 541.764 569.938C539.389 570.44 537.015 570.756 534.607 571.053C533.469 571.202 532.348 571.369 531.226 571.574H531.061C532.457 569.169 533.887 566.777 535.349 564.398C536.767 562.074 538.235 559.769 539.703 557.463C541.071 557.259 542.407 556.85 543.759 556.571L548.311 555.567C551.345 554.879 554.38 554.117 557.43 553.559C557.595 553.671 557.513 553.299 557.348 553.336Z" fill="#263238"/>
<path d="M533.781 555.697C533.6 555.065 533.435 554.433 533.254 553.838C532.886 552.519 532.583 551.179 532.347 549.822C532.347 549.636 532.066 549.729 532.099 549.822C532.363 551.179 532.644 552.518 532.907 553.856C533.148 555.207 533.49 556.531 533.93 557.816C533.957 557.87 534 557.912 534.051 557.936C534.103 557.959 534.159 557.963 534.212 557.945C534.266 557.928 534.312 557.892 534.345 557.841C534.377 557.791 534.394 557.73 534.392 557.667C534.21 557.035 533.963 556.366 533.781 555.697Z" fill="#263238"/>
<path d="M561.355 547.815C559.574 548.113 557.776 548.261 555.962 548.447C554.148 548.633 552.383 548.894 550.586 549.21C550.487 549.21 550.487 549.395 550.586 549.377C552.383 549.247 554.181 549.079 555.979 548.819C557.776 548.559 559.557 548.261 561.371 548.113C561.536 548.094 561.519 547.797 561.355 547.815Z" fill="#263238"/>
<path d="M605.617 582.746C604.908 565.178 603.968 547.628 602.319 530.135C601.544 521.416 600.67 512.715 599.581 504.108C598.62 495.578 597.127 487.136 595.112 478.843C593.731 472.396 591.194 466.335 587.658 461.034C585.912 458.455 583.612 456.419 580.975 455.118C578.338 453.818 575.451 453.294 572.586 453.597C565.775 454.546 560.267 459.398 555.517 464.659C550.191 470.571 545.309 477.021 540.379 483.249C539.125 484.848 537.888 486.465 536.652 488.083C536.553 488.232 536.734 488.436 536.849 488.287C541.681 482.041 546.744 475.962 551.939 470.162C556.787 464.789 561.833 459.007 568.43 456.702C571.553 455.586 574.893 455.496 578.061 456.442C580.583 457.34 582.856 458.96 584.657 461.145C588.45 465.57 590.561 471.574 592.078 477.393C596.267 493.548 597.767 510.484 599.318 527.16C600.868 543.836 601.973 561.088 602.731 578.117C603.49 595.146 604.083 612.342 605.551 629.408C605.733 631.509 605.963 633.61 606.211 635.71C606.359 637.105 608.305 637.123 608.206 635.71C607.035 618.049 606.31 600.407 605.617 582.746Z" fill="#263238"/>
<path d="M554.693 466.519C554.693 466.519 563.598 447.928 553.044 441.979C542.489 436.03 507.331 480.313 497.057 545.082C497.057 545.082 553.901 516.732 573.212 488.474C592.523 460.216 570.656 454.007 554.693 466.519Z" fill="url(#paint2_linear_126_1321)"/>
<path d="M563.053 481.612C556.671 481.612 550.289 481.073 543.907 481.111L547.502 476.482C549.277 474.426 550.93 472.24 552.449 469.938C552.532 469.789 552.35 469.584 552.218 469.696C550.482 471.371 548.867 473.199 547.387 475.162C545.737 477.021 544.187 478.991 542.604 480.925C540.163 483.918 537.772 486.929 535.381 489.978C535.381 489.681 535.381 489.383 535.381 489.104C535.381 487.84 535.381 486.576 535.381 485.386C535.381 482.951 535.381 480.497 535.381 478.062C535.381 473.117 535.381 468.134 535.711 463.189C535.711 463.003 535.463 463.003 535.447 463.189C535.15 468.172 534.688 473.117 534.474 478.062C534.375 480.516 534.326 482.951 534.293 485.405C534.293 486.651 534.293 487.915 534.293 489.123C534.293 489.811 534.293 490.536 534.293 491.242C533.93 491.726 533.534 492.191 533.171 492.655C528.075 499.236 523.277 506.022 518.494 512.938C518.494 512.566 518.494 512.157 518.412 511.785C518.412 511.023 518.263 510.261 518.197 509.498C518.032 507.844 517.835 506.208 517.604 504.553C517.373 502.899 517.191 501.467 516.961 499.924C516.73 498.381 516.317 496.448 516.202 494.7C516.209 494.678 516.212 494.654 516.209 494.63C516.206 494.606 516.199 494.583 516.187 494.564C516.174 494.544 516.158 494.528 516.139 494.517C516.12 494.506 516.1 494.5 516.078 494.5C516.057 494.5 516.036 494.506 516.017 494.517C515.998 494.528 515.982 494.544 515.97 494.564C515.958 494.583 515.95 494.606 515.947 494.63C515.945 494.654 515.947 494.678 515.955 494.7C516.213 496.448 516.389 498.211 516.482 499.98L516.878 504.739C516.994 506.319 517.125 507.9 517.274 509.498L517.472 511.785C517.472 512.157 517.554 512.547 517.604 512.919C517.619 513.243 517.71 513.558 517.868 513.83L515.443 517.399C512.145 522.214 509.045 527.085 505.879 531.937C505.78 532.086 505.977 532.29 506.076 532.142C509.078 527.736 512.162 523.404 515.278 519.128C517.62 519.24 520.011 519.035 522.353 518.998C524.695 518.961 527.3 518.998 529.741 518.998C529.776 518.998 529.81 518.982 529.834 518.955C529.859 518.927 529.873 518.889 529.873 518.849C529.873 518.81 529.859 518.772 529.834 518.744C529.81 518.716 529.776 518.701 529.741 518.701C527.267 518.701 524.794 518.794 522.337 518.812C519.879 518.831 517.802 518.701 515.559 518.812C518.296 515.094 521.083 511.376 523.804 507.565L527.037 503.475C527.982 503.615 528.938 503.652 529.889 503.587H533.188C535.282 503.587 537.376 503.587 539.487 503.494C543.824 503.494 548.162 503.252 552.499 503.233C552.519 503.242 552.54 503.244 552.561 503.241C552.582 503.238 552.602 503.23 552.62 503.216C552.637 503.202 552.652 503.184 552.662 503.163C552.671 503.142 552.677 503.118 552.677 503.094C552.677 503.07 552.671 503.046 552.662 503.025C552.652 503.004 552.637 502.985 552.62 502.972C552.602 502.958 552.582 502.949 552.561 502.946C552.54 502.943 552.519 502.946 552.499 502.954C548.145 502.954 543.808 502.676 539.471 502.545C537.36 502.545 535.266 502.415 533.155 502.378H529.857C529.23 502.378 528.57 502.378 527.911 502.378L535.084 492.804C535.14 492.762 535.185 492.704 535.216 492.637C537.541 489.532 539.867 486.446 542.225 483.341C542.555 482.932 542.884 482.523 543.198 482.096C549.794 482.319 556.391 481.836 562.987 481.984C563.234 481.91 563.234 481.612 563.053 481.612Z" fill="#263238"/>
<path d="M559.789 494.349H558.238C558.208 494.349 558.179 494.362 558.157 494.387C558.135 494.411 558.123 494.444 558.123 494.479C558.123 494.513 558.135 494.546 558.157 494.571C558.179 494.595 558.208 494.609 558.238 494.609H559.772C559.794 494.598 559.812 494.58 559.826 494.558C559.839 494.537 559.847 494.511 559.849 494.484C559.851 494.458 559.846 494.431 559.835 494.407C559.825 494.383 559.809 494.363 559.789 494.349Z" fill="#263238"/>
<path d="M556.343 494.367C554.298 494.367 552.253 494.367 550.208 494.218L547.157 494.181C546.21 494.05 545.251 494.05 544.304 494.181C544.278 494.181 544.253 494.193 544.234 494.213C544.216 494.234 544.205 494.263 544.205 494.292C544.205 494.322 544.216 494.35 544.234 494.371C544.253 494.392 544.278 494.404 544.304 494.404C545.248 494.618 546.212 494.693 547.173 494.627H550.241H556.375C556.524 494.664 556.524 494.367 556.343 494.367Z" fill="#263238"/>
<path d="M538.483 516.005C534.324 515.216 530.118 514.788 525.9 514.723V514.816C530.089 515.262 534.261 515.522 538.417 516.284C538.582 516.321 538.648 516.024 538.483 516.005Z" fill="#263238"/>
<path d="M521.382 495.371C521.382 494.962 521.299 494.553 521.25 494.144C521.151 493.214 521.019 492.285 520.887 491.374C520.64 489.608 520.376 487.86 520.079 486.094C520.079 485.945 519.799 485.983 519.815 486.094C520.013 487.953 520.194 489.719 520.343 491.541L520.541 494.218C520.519 495.075 520.625 495.93 520.854 496.747C520.887 496.802 520.933 496.846 520.988 496.874C521.042 496.901 521.102 496.91 521.161 496.9C521.219 496.891 521.274 496.862 521.319 496.819C521.364 496.775 521.398 496.718 521.415 496.654C521.472 496.227 521.461 495.793 521.382 495.371Z" fill="#263238"/>
<path d="M605.056 442.666C603.011 438.39 600.422 432.757 595.343 433.111C591.154 433.408 589.258 438.223 588.367 442.22C585.597 454.545 585.399 467.559 584.871 480.2C583.717 506.915 582.694 533.648 582.546 560.4C582.546 567.836 582.546 575.273 582.546 582.709C582.546 590.275 582.546 597.879 583.008 605.426C583.008 605.574 583.06 605.716 583.153 605.821C583.245 605.925 583.371 605.984 583.502 605.984C583.634 605.984 583.759 605.925 583.852 605.821C583.945 605.716 583.997 605.574 583.997 605.426C583.997 598.957 583.832 592.413 583.816 586.018C583.799 579.623 583.816 573.395 583.915 567.074C584.102 554.296 584.404 541.518 584.822 528.74C585.25 516.043 585.745 503.346 586.223 490.648C586.454 484.309 586.702 477.951 586.949 471.612C587.196 465.272 587.427 459.323 588.054 453.207C588.4 449.768 588.846 446.347 589.489 442.982C589.802 440.472 590.707 438.103 592.111 436.122C593.079 435.044 594.358 434.391 595.715 434.282C597.073 434.173 598.421 434.615 599.515 435.527C601.84 437.416 603.66 439.988 604.776 442.964C604.811 443.005 604.859 443.03 604.91 443.032C604.961 443.033 605.011 443.012 605.048 442.973C605.085 442.933 605.107 442.879 605.108 442.821C605.11 442.764 605.091 442.708 605.056 442.666Z" fill="#263238"/>
<path d="M603.671 440.621C603.671 440.621 599.499 424.001 608.734 432.311C624.103 446.143 624.648 476.241 624.648 476.241C624.648 476.241 597.322 458.357 593.925 446.496C588.862 428.983 603.671 440.621 603.671 440.621Z" fill="url(#paint3_linear_126_1321)"/>
<path d="M618.892 463.915C618.645 463.45 618.381 463.004 618.117 462.54C618.15 462.069 618.15 461.597 618.117 461.127C618.117 460.42 618.117 459.695 618.117 458.989C618.117 457.576 618.117 456.163 618.249 454.769C618.249 454.729 618.235 454.691 618.21 454.664C618.185 454.636 618.152 454.62 618.117 454.62C618.082 454.62 618.048 454.636 618.023 454.664C617.999 454.691 617.985 454.729 617.985 454.769C617.985 456.144 617.869 457.539 617.836 458.914C617.836 459.602 617.836 460.29 617.836 460.978C617.836 461.238 617.836 461.554 617.836 461.87C616.765 460.011 615.66 458.152 614.538 456.293C614.208 455.754 613.862 455.233 613.532 454.713C613.356 452.91 613.329 451.093 613.45 449.284C613.45 447.425 613.45 445.418 613.549 443.484C613.549 443.298 613.285 443.298 613.285 443.484C613.285 445.492 613.153 447.5 613.054 449.508C612.947 450.936 612.914 452.37 612.955 453.802C610.317 449.768 607.513 445.864 604.71 441.978C604.611 441.848 604.413 441.978 604.512 442.164C606.26 444.674 607.942 447.239 609.591 449.842C606.375 448.987 603.11 448.504 599.845 447.983C599.68 447.983 599.614 448.243 599.845 448.281C603.308 448.875 606.705 449.842 610.119 450.697C611.421 452.779 612.724 454.862 613.994 456.962L615.544 459.528H615.412L614.34 459.361L612.065 459.137C610.498 458.989 608.915 458.896 607.332 458.803C607.167 458.803 607.183 459.1 607.332 459.1C608.882 459.1 610.432 459.268 611.966 459.453L614.423 459.788L615.478 459.937H615.792C616.666 461.387 617.556 462.837 618.414 464.287C619.964 466.871 621.349 469.622 622.982 472.095C623.003 472.116 623.029 472.128 623.057 472.131C623.085 472.134 623.113 472.126 623.137 472.109C623.161 472.093 623.18 472.068 623.19 472.039C623.201 472.009 623.203 471.977 623.196 471.946C621.906 469.174 620.468 466.492 618.892 463.915Z" fill="#263238"/>
<path d="M612.097 445.138C612.097 444.487 612.097 443.837 612.097 443.186C612.064 441.827 612.114 440.466 612.246 439.115C612.253 439.092 612.256 439.068 612.253 439.044C612.25 439.02 612.243 438.998 612.231 438.978C612.218 438.958 612.202 438.942 612.183 438.931C612.164 438.92 612.143 438.914 612.122 438.914C612.101 438.914 612.08 438.92 612.061 438.931C612.042 438.942 612.026 438.958 612.014 438.978C612.002 438.998 611.994 439.02 611.991 439.044C611.989 439.068 611.991 439.092 611.999 439.115C611.999 440.472 611.867 441.81 611.801 443.149C611.801 443.837 611.801 444.506 611.801 445.175V446.105C611.759 446.425 611.759 446.751 611.801 447.071C611.801 447.106 611.813 447.139 611.834 447.163C611.856 447.188 611.885 447.201 611.916 447.201C611.947 447.201 611.976 447.188 611.998 447.163C612.019 447.139 612.032 447.106 612.032 447.071C612.073 446.776 612.073 446.475 612.032 446.179L612.097 445.138Z" fill="#263238"/>
<path d="M608.718 452.016C607.696 451.812 606.657 451.756 605.634 451.663C604.612 451.57 603.391 451.44 602.336 451.272C602.301 451.272 602.267 451.288 602.243 451.316C602.218 451.344 602.204 451.382 602.204 451.421C602.204 451.461 602.218 451.498 602.243 451.526C602.267 451.554 602.301 451.57 602.336 451.57C604.496 451.719 606.64 452.165 608.801 452.239C608.817 452.258 608.833 452.035 608.718 452.016Z" fill="#263238"/>
<path d="M617.292 452.11C617.374 452.24 617.292 452.612 617.292 452.761V454.453C617.292 454.843 617.292 455.234 617.292 455.624C617.235 455.955 617.235 456.296 617.292 456.628C617.292 456.628 617.374 456.628 617.391 456.628C617.424 456.469 617.424 456.303 617.391 456.144C617.382 455.965 617.382 455.785 617.391 455.605V454.453C617.391 454.062 617.391 453.672 617.391 453.282V452.761C617.391 452.594 617.391 452.24 617.391 452.11C617.391 451.98 617.128 451.831 617.292 452.11Z" fill="#263238"/>
<path d="M605.684 531.363C599.945 526.511 594.784 519.521 587.049 519.168C580.667 518.889 576.198 524.299 573.642 530.322C572.364 533.536 571.321 536.862 570.525 540.268C569.371 544.804 568.272 549.371 567.227 553.969C565.237 563.004 563.533 572.113 562.115 581.297C561.34 586.41 560.614 591.541 560.037 596.69C559.312 601.91 558.866 607.175 558.701 612.455C558.698 612.658 558.763 612.855 558.881 613.007C559 613.16 559.165 613.257 559.344 613.281C559.523 613.304 559.703 613.251 559.849 613.133C559.996 613.015 560.098 612.839 560.136 612.641C560.911 608.328 561.241 603.885 561.785 599.535C562.329 595.184 562.939 590.778 563.583 586.428C564.902 577.753 566.43 569.077 568.167 560.401C569.816 552.24 571.465 543.967 573.758 536.029C575.407 530.34 578.111 523.704 583.57 521.659C591.815 518.554 599.385 526.455 605.453 531.605C605.635 531.698 605.816 531.474 605.684 531.363Z" fill="#263238"/>
<path d="M599.748 526.714C599.748 526.714 594.438 509.667 602.106 506.264C613.65 501.264 643.63 539.411 637.743 597.86C637.743 597.86 614.54 583.452 597.389 567.223C580.239 550.993 575.951 529.819 583.422 524.353C590.892 518.887 599.748 526.714 599.748 526.714Z" fill="url(#paint4_linear_126_1321)"/>
<path d="M634.279 585.387C633.481 583.347 632.55 581.377 631.492 579.494C630.502 577.486 629.513 575.497 628.49 573.526C626.495 569.678 624.516 565.83 622.471 562L621.465 560.141C621.465 559.918 621.548 559.676 621.581 559.453L621.927 557.761C622.191 556.497 622.389 555.214 622.587 553.932C623.015 551.441 623.395 548.912 623.988 546.496C623.988 546.328 623.774 546.272 623.741 546.496C623.263 548.987 622.554 551.459 621.91 553.932C621.581 555.14 621.234 556.33 620.954 557.557L620.657 558.802C618.2 554.248 615.71 549.712 612.972 545.324C613.149 544.724 613.244 544.097 613.253 543.465C613.335 542.61 613.418 541.755 613.516 540.9C613.714 539.041 613.912 537.051 614.16 535.137C614.654 531.419 615.149 527.7 615.974 523.982C615.974 523.796 615.759 523.741 615.726 523.982C614.885 527.7 613.995 531.419 613.368 535.137C613.071 536.996 612.774 538.855 612.56 540.714C612.461 541.643 612.362 542.573 612.28 543.502C612.28 543.763 612.28 544.06 612.181 544.339C611.356 543.019 610.532 541.68 609.658 540.398C607.002 536.457 604.248 532.627 601.412 528.797C601.313 528.649 601.082 528.797 601.198 528.965C605.947 535.812 610.309 542.99 614.259 550.455L616.518 554.601L615.759 554.489C614.786 554.341 613.813 554.285 612.84 554.173L606.97 553.597C603.061 553.244 599.136 552.984 595.244 552.519C595.079 552.519 595.03 552.779 595.244 552.798C599.202 553.318 603.127 554.025 607.068 554.657C609.014 554.973 610.944 555.27 612.89 555.549C614.362 555.879 615.858 556.047 617.359 556.051C618.893 558.877 620.443 561.628 621.976 564.491C621.63 564.491 621.267 564.491 620.937 564.491H615.347C612.824 564.491 610.301 564.491 607.794 564.491C607.613 564.491 607.646 564.77 607.794 564.77C610.35 564.77 612.89 564.956 615.446 565.105L619.074 565.346L620.888 565.495C621.43 565.637 621.995 565.637 622.537 565.495L626.462 572.671C627.666 574.883 628.886 577.077 630.123 579.271C631.289 581.596 632.606 583.821 634.064 585.926C634.13 585.666 634.345 585.573 634.279 585.387Z" fill="#263238"/>
<path d="M623.213 538.148C622.981 540.032 622.634 541.896 622.174 543.726C621.745 545.585 621.267 547.444 620.722 549.303C620.714 549.327 620.71 549.352 620.71 549.378C620.71 549.404 620.716 549.429 620.725 549.452C620.735 549.476 620.749 549.497 620.766 549.514C620.783 549.531 620.803 549.543 620.825 549.551C620.847 549.559 620.87 549.562 620.893 549.559C620.915 549.556 620.937 549.548 620.957 549.535C620.977 549.522 620.994 549.505 621.008 549.484C621.021 549.463 621.031 549.44 621.036 549.414C621.547 547.555 622.009 545.696 622.405 543.837C622.8 541.978 623.064 540.119 623.477 538.167C623.479 538.128 623.467 538.089 623.444 538.059C623.42 538.03 623.388 538.012 623.353 538.009C623.318 538.007 623.283 538.02 623.257 538.046C623.231 538.072 623.215 538.109 623.213 538.148Z" fill="#263238"/>
<path d="M606.162 549.562C605.806 549.225 605.358 549.035 604.893 549.023L602.699 548.689C601.347 548.484 599.978 548.317 598.626 548.131C595.789 547.759 592.97 547.443 590.133 547.053C589.968 547.053 589.919 547.313 590.133 547.332C592.805 547.703 595.46 548.168 598.131 548.559L602.04 549.135L603.936 549.358C604.667 549.366 605.391 549.51 606.08 549.786C606.103 549.786 606.126 549.778 606.145 549.764C606.164 549.75 606.179 549.73 606.188 549.705C606.197 549.681 606.199 549.655 606.195 549.63C606.19 549.604 606.179 549.581 606.162 549.562Z" fill="#263238"/>
<path d="M623.181 575.273C621.846 575.143 620.493 575.087 619.158 575.05H617.129H616.156C615.734 575.096 615.309 575.096 614.886 575.05C614.705 575.05 614.689 575.366 614.886 575.329C615.281 575.282 615.679 575.282 616.074 575.329H617.129L619.141 575.477C620.477 575.57 621.829 575.663 623.165 575.663C623.33 575.589 623.346 575.273 623.181 575.273Z" fill="#263238"/>
<path d="M631.36 568.728L631.805 566.162C632.069 564.471 632.349 562.779 632.63 561.106C632.63 561.066 632.616 561.028 632.591 561.001C632.566 560.973 632.533 560.957 632.498 560.957C632.463 560.957 632.429 560.973 632.405 561.001C632.38 561.028 632.366 561.066 632.366 561.106L631.376 566.032C631.212 566.85 631.047 567.668 630.898 568.486C630.898 568.877 630.766 569.248 630.684 569.639C630.579 570.03 630.54 570.44 630.568 570.847C630.571 570.885 630.585 570.92 630.606 570.949C630.628 570.978 630.656 570.999 630.688 571.009C630.721 571.019 630.755 571.018 630.786 571.005C630.818 570.993 630.845 570.97 630.865 570.94C631.153 570.245 631.321 569.494 631.36 568.728Z" fill="#263238"/>
<path d="M552.764 605.909L554.38 626.638L559.871 696.594H608.47L615.331 626.638L617.359 605.909H552.764Z" fill="#37474F"/>
<path d="M552.764 605.909L554.38 626.638H615.331L617.359 605.909H552.764Z" fill="#263238"/>
<path d="M547.948 617.083H622.174V600.277H547.948V617.083Z" fill="#37474F"/>
<path d="M289.896 537.178C289.896 507.433 294.205 480.706 302.825 456.997C311.444 433.288 329.221 412.634 356.157 395.035C364.248 389.569 374.22 383.372 386.072 376.444C398.267 369.224 409.892 360.84 420.818 351.384C431.988 341.862 441.684 330.323 449.513 317.233C457.405 303.89 461.496 288.149 461.238 272.114C461.474 260.435 459.271 248.858 454.806 238.316C450.688 228.905 444.915 220.537 437.837 213.721C430.568 206.892 422.156 201.777 413.1 198.681C403.817 195.378 394.141 193.691 384.406 193.68C373.373 193.51 362.421 195.81 352.182 200.447C342.764 204.822 333.929 210.647 325.929 217.755C318.131 224.714 311.076 232.668 304.903 241.458C299.22 249.448 293.961 257.81 289.154 266.5H276.983L218.819 211.843C225.547 193.464 234.974 176.495 246.706 161.649C258.176 147.173 271.52 134.732 286.284 124.747C301.304 114.68 317.51 107.057 334.422 102.103C351.831 96.9196 369.764 94.3136 387.77 94.351C408.301 94.364 428.721 97.7393 448.391 104.371C468.006 110.879 486.276 121.724 502.136 136.273C518.518 151.56 531.758 170.679 540.939 192.305C550.9 215.084 555.88 242.27 555.88 273.861C556.129 291.263 554.09 308.611 549.828 325.339C545.958 339.808 540.087 353.498 532.43 365.903C524.847 378.098 515.882 389.123 505.764 398.697C494.776 409.015 483.16 418.452 471 426.936C460.215 434.248 449.441 441.238 438.678 447.906C428.261 454.313 418.386 461.78 409.175 470.215C400.502 478.139 393.115 487.7 387.341 498.472C381.69 509.106 378.865 522.014 378.865 537.197L289.896 537.178ZM291.545 749.464V623.736H381.256V749.464H291.545Z" fill="url(#paint5_linear_126_1321)"/>
<g opacity="0.2">
<path d="M289.897 537.179C289.897 507.434 294.206 480.707 302.826 456.998C311.445 433.289 329.222 412.635 356.158 395.036C364.249 389.57 374.221 383.373 386.073 376.445C398.268 369.225 409.893 360.841 420.819 351.385C431.989 341.863 441.685 330.324 449.514 317.234C457.406 303.891 461.497 288.15 461.239 272.115C461.475 260.436 459.271 248.859 454.807 238.317C450.689 228.906 444.916 220.538 437.838 213.722C430.569 206.893 422.157 201.778 413.101 198.682C403.818 195.379 394.142 193.692 384.407 193.681C373.374 193.511 362.422 195.811 352.183 200.448C342.765 204.823 333.93 210.648 325.93 217.756C318.132 224.715 311.077 232.669 304.904 241.459C299.221 249.449 293.962 257.811 289.155 266.5H276.984L218.82 211.844C225.548 193.465 234.975 176.496 246.707 161.65C258.177 147.174 271.521 134.733 286.285 124.748C301.305 114.681 317.511 107.058 334.423 102.104C351.831 96.9206 369.765 94.3146 387.771 94.352C408.302 94.365 428.722 97.7403 448.392 104.372C468.007 110.88 486.277 121.725 502.137 136.274C518.519 151.561 531.759 170.68 540.94 192.306C550.901 215.085 555.881 242.271 555.881 273.862C556.13 291.264 554.091 308.612 549.829 325.34C545.959 339.809 540.088 353.499 532.431 365.904C524.848 378.099 515.883 389.124 505.764 398.698C494.777 409.016 483.161 418.453 471.001 426.937C460.216 434.249 449.442 441.239 438.679 447.907C428.262 454.314 418.387 461.781 409.176 470.216C400.503 478.14 393.116 487.701 387.342 498.473C381.691 509.107 378.866 522.015 378.866 537.198L289.897 537.179ZM291.546 749.465V623.737H381.257V749.465H291.546Z" fill="black"/>
</g>
<path d="M277.791 537.178C277.791 507.433 282.101 480.706 290.72 456.997C299.339 433.288 317.122 412.634 344.068 395.035C352.149 389.569 362.115 383.372 373.967 376.444C386.17 369.229 397.8 360.845 408.73 351.384C419.896 341.858 429.591 330.319 437.424 317.233C445.304 303.885 449.389 288.146 449.133 272.114C449.346 260.464 447.131 248.92 442.668 238.409C438.55 228.998 432.777 220.63 425.699 213.814C418.43 206.985 410.018 201.87 400.963 198.774C391.679 195.471 382.003 193.785 372.268 193.773C361.235 193.567 350.276 195.836 340.028 200.447C330.605 204.823 321.765 210.648 313.758 217.755C305.966 224.714 298.915 232.669 292.748 241.458C287.061 249.448 281.796 257.81 276.983 266.5L206.665 211.843C213.388 193.462 222.816 176.492 234.551 161.649C246.018 147.168 259.361 134.727 274.13 124.747C289.145 114.683 305.345 107.06 322.251 102.103C339.675 96.9133 357.626 94.3072 375.649 94.3511C396.18 94.3628 416.6 97.7382 436.27 104.371C455.887 110.875 474.157 121.72 490.014 136.273C506.401 151.556 519.641 170.676 528.818 192.305C538.778 215.084 543.764 242.27 543.775 273.862C544.019 291.264 541.974 308.612 537.706 325.339C533.827 339.814 527.939 353.506 520.259 365.903C512.676 378.098 503.711 389.123 493.593 398.697C482.611 409.024 470.995 418.461 458.83 426.936C448.066 434.248 437.292 441.238 426.507 447.906C416.09 454.313 406.215 461.78 397.005 470.215C388.337 478.14 380.954 487.701 375.187 498.473C369.536 509.106 366.705 522.015 366.694 537.197L277.791 537.178ZM279.44 749.464V623.736H369.052V749.464H279.44Z" fill="url(#paint6_linear_126_1321)"/>
<path d="M240.819 759.523C237.307 760.787 137.156 759.337 133.38 756.548C131.929 755.507 131.269 739.054 130.972 719.125V718.512C130.972 714.403 130.857 710.165 130.84 705.889C130.84 705.294 130.84 704.699 130.84 704.123C130.708 675.382 131.104 645.544 131.104 645.544L198.107 646.306L196.079 704.253L195.997 706.558L195.584 718.568V719.795C195.584 719.795 233.662 739.761 237.537 743.293C241.413 746.825 244.332 758.258 240.819 759.523Z" fill="#AD6359"/>
<path d="M240.819 759.522C237.306 760.786 137.156 759.336 133.379 756.547C131.928 755.506 131.269 739.054 130.972 719.125V718.511C130.972 714.403 130.856 710.164 130.84 705.888C130.84 705.293 130.84 704.698 130.84 704.122L196.095 704.327L196.012 706.632L195.6 718.641V719.868C195.6 719.868 233.662 739.76 237.537 743.292C241.412 746.825 244.331 758.258 240.819 759.522Z" fill="#EBEBEB"/>
<path d="M240.819 759.523C238.658 760.303 199.855 760.043 169.478 759.076C150.514 758.5 134.847 757.608 133.379 756.548C131.912 755.488 131.285 739.519 130.988 719.962C130.988 719.683 130.988 719.404 130.988 719.125C130.988 718.846 130.988 718.698 130.988 718.493L195.617 718.642V719.869C195.617 719.869 233.744 739.761 237.603 743.312C241.462 746.862 244.331 758.258 240.819 759.523Z" fill="url(#paint7_linear_126_1321)"/>
<path d="M239.746 755.116C222.859 754.41 154.735 753.257 137.996 754.057C137.864 754.057 137.864 754.168 137.996 754.187C154.718 755.302 222.843 755.767 239.73 755.432C240.092 755.432 240.092 755.135 239.746 755.116Z" fill="#263238"/>
<path d="M202.774 718.938C196.177 717.451 188.014 718.473 182.869 723.735C182.671 723.939 182.869 724.255 183.149 724.181C189.527 721.971 196.094 720.532 202.741 719.886C202.839 719.869 202.929 719.814 202.995 719.73C203.061 719.647 203.1 719.54 203.104 719.428C203.108 719.315 203.077 719.205 203.017 719.116C202.956 719.027 202.871 718.964 202.774 718.938Z" fill="#263238"/>
<path d="M207.539 722.267C200.943 720.78 192.78 721.802 187.635 727.064C187.437 727.268 187.635 727.584 187.915 727.51C194.27 725.304 200.816 723.864 207.44 723.215C207.542 723.211 207.639 723.165 207.714 723.087C207.789 723.009 207.837 722.903 207.849 722.789C207.861 722.675 207.836 722.559 207.779 722.464C207.723 722.368 207.638 722.299 207.539 722.267Z" fill="#263238"/>
<path d="M212.289 725.595C205.693 724.108 197.53 725.131 192.385 730.392C192.187 730.596 192.385 730.912 192.665 730.838C199.043 728.635 205.61 727.202 212.256 726.562C212.37 726.567 212.481 726.521 212.564 726.434C212.648 726.346 212.697 726.226 212.702 726.097C212.706 725.969 212.665 725.844 212.588 725.75C212.51 725.656 212.403 725.6 212.289 725.595Z" fill="#263238"/>
<path d="M211.613 702.728C209.041 698.638 204.16 700.404 201.356 702.988C196.616 707.527 193.021 713.394 190.934 719.999C190.923 720.027 190.918 720.057 190.92 720.088C190.923 720.118 190.931 720.148 190.946 720.174C190.961 720.199 190.981 720.221 191.005 720.236C191.028 720.25 191.055 720.258 191.082 720.259C191.082 720.835 191.544 721.449 192.121 721.207C197.629 718.995 203.764 717.489 208.513 713.362C211.284 711.001 214.038 706.613 211.613 702.728ZM199.855 715.927C197.167 717.099 194.446 718.102 191.808 719.367C193.853 716.058 195.749 712.674 198.091 709.588C199.201 708.095 200.39 706.68 201.653 705.349C203.665 703.36 211.548 699.159 210.261 707.357C209.569 711.875 203.071 714.552 199.855 715.927Z" fill="#263238"/>
<path d="M174.063 717.787C179.505 720.502 185.805 720.464 191.626 721.19C192.22 721.19 192.533 720.539 192.434 719.981C192.46 719.971 192.483 719.956 192.503 719.934C192.522 719.913 192.537 719.887 192.547 719.859C192.556 719.83 192.56 719.8 192.557 719.77C192.555 719.739 192.547 719.71 192.533 719.684C189.142 713.807 184.446 709.032 178.912 705.834C175.613 703.975 170.534 703.603 168.885 708.251C167.236 712.898 170.88 716.207 174.063 717.787ZM171.128 712.396C168.225 704.756 176.751 706.819 179.093 708.232C180.606 709.178 182.055 710.246 183.43 711.429C186.255 713.896 188.963 716.527 191.544 719.312C188.707 718.754 185.854 718.494 183.001 718.048C179.604 717.546 172.81 716.616 171.161 712.396H171.128Z" fill="#263238"/>
<path d="M169.512 759.077C150.547 758.501 134.88 757.609 133.413 756.549C131.945 755.489 131.318 739.52 131.021 719.963C138.772 727.79 158.1 747.217 169.512 759.077Z" fill="#263238"/>
<path d="M110.539 320.321C110.539 320.321 125.579 511.098 128.02 525.654C128.597 528.982 128.943 547.015 129.174 570.178C129.685 620.763 129.388 711.969 129.388 711.969H199.986C199.986 711.969 197.892 553.949 194.759 524.855C191.626 495.76 171.671 320.358 171.671 320.358L110.539 320.321Z" fill="#37474F"/>
<path d="M196.787 698.099C185.771 697.839 188.937 697.746 177.921 697.616C172.529 697.616 137.106 697.225 132.06 698.155C132.029 698.155 132 698.168 131.978 698.193C131.956 698.217 131.944 698.25 131.944 698.285C131.944 698.319 131.956 698.352 131.978 698.377C132 698.401 132.029 698.415 132.06 698.415C137.106 699.344 172.529 699.01 177.921 698.936C188.937 698.824 185.771 698.731 196.787 698.471C196.831 698.471 196.873 698.451 196.904 698.416C196.935 698.381 196.952 698.334 196.952 698.285C196.952 698.236 196.935 698.188 196.904 698.153C196.873 698.119 196.831 698.099 196.787 698.099Z" fill="#263238"/>
<path d="M142.796 607.768C142.708 596.217 142.631 584.672 142.565 573.134C142.565 561.979 142.565 550.825 142.037 539.671C141.08 517.046 137.09 494.812 134.121 472.447C131.153 450.083 128.811 427.625 126.618 405.149C124.161 379.941 122 354.676 119.708 329.449C119.708 329.281 119.444 329.281 119.461 329.449C122.759 374.512 126.502 419.557 132.027 464.342C133.412 475.496 134.918 486.613 136.545 497.693C138.195 508.848 139.844 520.151 140.619 531.509C141.394 542.868 141.509 553.818 141.608 564.972C141.729 576.523 141.834 588.062 141.921 599.588C142.136 625.206 142.35 664.655 142.581 690.273C142.598 690.36 142.641 690.437 142.703 690.493C142.764 690.548 142.84 690.579 142.919 690.579C142.998 690.579 143.074 690.548 143.136 690.493C143.197 690.437 143.24 690.36 143.257 690.273C143.125 667.295 142.944 630.616 142.796 607.768Z" fill="#263238"/>
<path d="M95.6484 320.321C95.6484 320.321 125.58 511.098 128.02 525.654C128.598 528.982 128.944 547.015 129.175 570.178L162.915 320.321H95.6484Z" fill="#263238"/>
<path d="M158.841 766.252C155.263 767.237 55.4426 757.775 51.8476 754.707C50.4623 753.555 50.8416 737.083 51.8476 717.192C51.8476 716.987 51.8476 716.764 51.8476 716.56C52.0455 712.47 52.2599 708.25 52.5237 703.974L52.6227 702.115C54.2718 673.429 56.564 643.703 56.564 643.703L123.336 649.912L117.68 707.543L117.465 709.83L116.311 721.783L116.196 723.01C116.196 723.01 152.954 745.895 156.599 749.744C160.243 753.592 162.42 765.267 158.841 766.252Z" fill="#AD6359"/>
<path d="M158.841 766.254C155.263 767.239 55.4426 757.776 51.8476 754.709C50.4623 753.556 50.8416 737.085 51.8476 717.193C51.8476 716.989 51.8476 716.766 51.8476 716.561C52.0455 712.471 52.2599 708.251 52.5237 703.975L52.6227 702.116L117.68 707.526L117.465 709.813L116.311 721.766L116.196 722.993C116.196 722.993 152.954 745.878 156.599 749.727C160.243 753.575 162.42 765.268 158.841 766.254Z" fill="#EBEBEB"/>
<path d="M158.841 766.251C155.263 767.236 55.4426 757.774 51.8476 754.706C50.4623 753.554 50.8416 737.083 51.8476 717.191C51.8476 716.986 51.8476 716.763 51.8476 716.559L116.311 721.857L116.196 723.084C116.196 723.084 152.954 745.969 156.599 749.817C160.243 753.665 162.42 765.266 158.841 766.251Z" fill="url(#paint8_linear_126_1321)"/>
<path d="M157.969 761.773C141.181 759.709 73.287 753.202 56.5486 752.589C56.4167 752.589 56.4002 752.7 56.5486 752.719C73.1386 755.173 141.082 761.066 157.952 762.014C158.364 762.107 158.397 761.884 157.969 761.773Z" fill="#263238"/>
<path d="M123.434 722.731C116.838 720.723 108.741 721.095 103.282 725.929C103.068 726.115 103.282 726.468 103.53 726.412C110.02 724.705 116.655 723.789 123.319 723.679C123.422 723.679 123.522 723.636 123.599 723.559C123.677 723.483 123.727 723.377 123.741 723.262C123.755 723.146 123.732 723.029 123.676 722.932C123.619 722.834 123.534 722.763 123.434 722.731Z" fill="#263238"/>
<path d="M127.986 726.429C121.389 724.422 113.276 724.793 107.817 729.627C107.619 729.813 107.817 730.166 108.064 730.11C114.555 728.405 121.19 727.489 127.854 727.378C127.958 727.382 128.061 727.342 128.142 727.267C128.223 727.192 128.276 727.086 128.292 726.969C128.309 726.853 128.286 726.733 128.23 726.634C128.173 726.534 128.086 726.462 127.986 726.429Z" fill="#263238"/>
<path d="M132.521 730.131C125.925 728.123 117.811 728.495 112.353 733.328C112.155 733.514 112.353 733.867 112.617 733.811C119.107 732.103 125.742 731.187 132.406 731.079C132.509 731.078 132.609 731.035 132.686 730.959C132.764 730.882 132.814 730.776 132.828 730.661C132.842 730.546 132.819 730.429 132.763 730.331C132.706 730.234 132.621 730.163 132.521 730.131Z" fill="#263238"/>
<path d="M133.231 707.283C130.939 702.988 125.958 704.345 122.99 706.706C117.946 710.843 113.964 716.41 111.446 722.843C111.446 722.992 111.446 723.085 111.578 723.122C111.563 723.267 111.578 723.414 111.623 723.551C111.667 723.688 111.74 723.811 111.835 723.911C111.93 724.011 112.044 724.084 112.168 724.124C112.293 724.165 112.424 724.172 112.551 724.144C118.175 722.378 124.408 721.281 129.389 717.619C132.423 715.407 135.441 711.335 133.231 707.283ZM120.681 719.497C117.927 720.445 115.157 721.226 112.436 722.285C114.586 719.057 116.881 715.954 119.313 712.99C120.507 711.58 121.786 710.264 123.138 709.049C125.266 707.19 133.379 703.639 131.598 711.726C130.658 716.225 123.996 718.381 120.714 719.497H120.681Z" fill="#263238"/>
<path d="M94.8725 719.293C100.133 722.435 106.416 722.899 112.172 724.071C112.765 724.201 113.128 723.513 113.062 722.955C113.088 722.945 113.111 722.929 113.131 722.908C113.15 722.887 113.165 722.861 113.174 722.833C113.184 722.804 113.188 722.774 113.185 722.744C113.183 722.713 113.175 722.684 113.161 722.658C110.158 716.525 105.772 711.394 100.446 707.785C97.3132 705.722 92.2009 704.885 90.3045 709.384C88.408 713.883 91.8052 717.452 94.8725 719.293ZM92.2834 713.716C89.8592 705.852 98.2367 708.585 100.529 710.183C101.973 711.261 103.35 712.447 104.652 713.734C107.316 716.421 109.853 719.263 112.254 722.249C109.451 721.468 106.631 720.966 103.811 720.39C100.413 719.479 93.6522 718.029 92.2834 713.678V713.716Z" fill="#263238"/>
<path d="M119.163 716.263L48.6309 712.898C48.6309 712.898 67.8924 538.407 68.2387 527.643C69.1622 499.758 85.5708 320.191 85.5708 320.191H171.72C171.72 320.191 166.278 361.667 156.994 387.954C150.744 390.42 144.71 393.531 138.969 397.249C138.969 397.249 130.888 516.024 130.591 530.841C129.932 560.177 119.163 716.263 119.163 716.263Z" fill="#37474F"/>
<path d="M117.283 701.685C106.3 700.905 109.466 700.96 98.4503 700.31C93.0743 699.994 57.6845 697.967 52.6217 698.655C52.5063 698.655 52.5063 698.878 52.6217 698.915C57.569 700.087 93.0413 701.444 98.4174 701.63C109.433 702.039 106.284 701.797 117.3 702.057C117.343 702.055 117.384 702.033 117.414 701.996C117.443 701.96 117.458 701.911 117.456 701.862C117.454 701.813 117.435 701.766 117.402 701.733C117.37 701.7 117.327 701.683 117.283 701.685Z" fill="#263238"/>
<path d="M91.8879 330.899C88.6886 376.129 85.4069 421.379 81.7294 466.61C78.0519 511.841 73.7477 557.257 68.5366 602.414C65.6177 627.604 62.3195 663.13 58.8398 688.265C58.8398 688.432 59.0377 688.507 59.0707 688.265C66.1784 643.648 71.406 588.173 75.8421 543.091C80.2782 498.009 83.9227 452.797 87.1715 407.585C89.002 382.004 90.6511 356.405 92.3991 330.824C92.4156 330.583 92.0033 330.583 91.8879 330.899Z" fill="#263238"/>
<path d="M160.062 386.206C152.756 389.222 145.698 392.955 138.97 397.36C138.913 397.39 138.869 397.444 138.848 397.51C138.826 397.576 138.829 397.649 138.855 397.714C138.881 397.778 138.929 397.827 138.987 397.852C139.046 397.876 139.111 397.873 139.168 397.844C146.276 394.404 153.515 391.114 160.442 387.228C160.562 387.172 160.657 387.064 160.707 386.928C160.756 386.792 160.756 386.639 160.705 386.503C160.655 386.368 160.559 386.26 160.438 386.205C160.318 386.149 160.183 386.149 160.062 386.206Z" fill="#263238"/>
<path d="M162.322 331.233C162.322 330.955 161.877 330.899 161.877 331.233C161.877 340.733 161.398 349.099 160.689 358.004C160.359 362.131 157.391 384.923 151.059 383.268C150.003 382.99 149.409 381.8 149.294 379.996C149.306 377.635 149.589 375.286 150.135 373.006C150.828 368.229 151.405 363.451 151.784 358.617C152.521 349.639 152.433 340.6 151.52 331.642C151.507 331.592 151.48 331.548 151.443 331.516C151.406 331.484 151.361 331.467 151.314 331.467C151.268 331.467 151.222 331.484 151.185 331.516C151.148 331.548 151.121 331.592 151.108 331.642C151.296 344.073 150.651 356.502 149.179 368.824C148.387 374.754 145.732 383.696 151.24 384.588C156.748 385.481 160.475 370.571 161.135 366.481C162.885 354.84 163.284 342.991 162.322 331.233Z" fill="#263238"/>
<path d="M151.222 383.845C150.651 385.379 150.177 386.957 149.804 388.567C149.387 389.808 149.186 391.127 149.21 392.453C149.21 392.713 149.523 392.731 149.639 392.564C150.295 391.415 150.795 390.162 151.123 388.846C151.601 387.377 152.112 385.927 152.558 384.44C152.628 384.24 152.624 384.017 152.549 383.82C152.473 383.624 152.331 383.469 152.154 383.39C151.976 383.311 151.779 383.314 151.604 383.4C151.429 383.485 151.292 383.645 151.222 383.845Z" fill="#263238"/>
<path d="M122.496 338.689C122.516 337.695 122.427 336.703 122.232 335.733C122.22 335.706 122.201 335.683 122.177 335.667C122.154 335.651 122.127 335.643 122.1 335.643C122.073 335.643 122.046 335.651 122.023 335.667C122 335.683 121.981 335.706 121.968 335.733C121.794 336.575 121.694 337.435 121.671 338.299C121.671 339.284 121.473 340.158 121.375 341.236C121.191 343.247 120.883 345.241 120.451 347.204C119.648 350.908 117.973 354.299 115.603 357.019C113.238 359.642 110.436 361.708 107.357 363.099C103.95 364.459 100.475 365.595 96.9513 366.501C96.9163 366.501 96.8827 366.516 96.858 366.544C96.8332 366.572 96.8193 366.61 96.8193 366.649C96.8193 366.689 96.8332 366.727 96.858 366.754C96.8827 366.782 96.9163 366.798 96.9513 366.798C100.853 366.789 104.717 365.931 108.33 364.27C111.533 362.915 114.449 360.819 116.889 358.116C119.325 355.324 121.036 351.833 121.836 348.022C122.24 346.057 122.472 344.052 122.529 342.035C122.576 340.92 122.565 339.803 122.496 338.689Z" fill="#263238"/>
<path d="M206.815 156.911C212.125 164.143 217.897 183.681 217.682 189.017C217.468 194.352 188.295 206.473 184.173 203.573C180.05 200.673 163.823 174.832 163.674 165.258C163.526 155.684 201.307 149.438 206.815 156.911Z" fill="#AD6359"/>
<path d="M162.915 143.636C160.243 140.495 151.602 131.106 147.76 135.345C145.352 137.985 151.157 145.217 153.597 148.079C158.627 153.954 162.519 164.346 164.333 169.421C166.147 174.497 174.64 164.476 174.64 164.476C174.64 164.476 169.891 151.798 162.915 143.636Z" fill="#AD6359"/>
<path d="M170.006 175.09C170.006 175.09 172.991 184.125 177.855 183.92C182.72 183.716 181.483 175.945 181.417 175.387C181.566 175.871 184.501 184.088 189.383 183.325C194.264 182.563 192.186 174.923 192.038 174.439C192.302 174.83 196.062 180.016 199.64 178.473C205.808 175.833 196.556 162.318 197.447 156.388C197.447 156.388 206.55 156.964 206.814 156.908C206.814 156.908 198.238 143.895 191.065 142.928C190.021 142.765 188.959 143.013 188.058 143.629C187.157 144.245 186.471 145.193 186.117 146.312C186.117 146.312 183.759 141.757 179.9 142.222C177.921 142.463 176.503 146.256 176.503 146.256C175.925 145.255 175.111 144.454 174.154 143.942C173.196 143.43 172.131 143.227 171.078 143.356C168.357 143.858 167.004 147.687 166.856 149.175C165.701 160.552 170.006 175.09 170.006 175.09Z" fill="#AD6359"/>
<path d="M167.168 148.136C167.168 148.136 167.053 148.136 167.036 148.136C165.55 157.376 166.591 166.907 170.021 175.464C170.137 175.724 170.566 175.631 170.483 175.315C168.22 166.483 167.104 157.328 167.168 148.136Z" fill="#263238"/>
<path d="M176.487 146.127C176.487 146.015 176.338 146.015 176.322 146.127C174.784 156.33 176.539 166.816 181.269 175.686C181.451 176.002 181.879 176.076 181.698 175.686C178.68 169.514 176.322 154.734 176.487 146.127Z" fill="#263238"/>
<path d="M192.6 174.925C188.081 166.187 186.482 156.706 186.102 146.685C186.102 146.555 185.938 146.574 185.905 146.685C184.915 151.649 185.756 157.989 186.779 162.878C187.654 167.426 189.57 171.637 192.336 175.092C192.419 175.241 192.6 175.11 192.6 174.925Z" fill="#263238"/>
<path d="M170.006 175.091C170.723 176.76 171.573 178.353 172.545 179.85C173.438 181.349 174.667 182.555 176.108 183.345C176.792 183.641 177.55 183.641 178.235 183.345C178.935 183.063 179.56 182.583 180.049 181.951C180.481 181.274 180.784 180.502 180.937 179.686C181.091 178.87 181.091 178.027 180.939 177.21L180.329 173.195L182.143 176.727C182.936 178.306 183.95 179.731 185.145 180.947C185.666 181.544 186.295 182.009 186.989 182.31C187.683 182.611 188.426 182.742 189.168 182.694C189.86 182.647 190.516 182.333 191.027 181.805C191.537 181.277 191.871 180.567 191.972 179.794C192.163 178.056 191.965 176.292 191.395 174.663L189.927 170.127L192.615 173.845C193.363 174.883 194.221 175.814 195.171 176.615C196.053 177.402 197.119 177.88 198.239 177.991C198.743 178.017 199.245 177.885 199.687 177.609C200.13 177.334 200.496 176.925 200.745 176.429C201.134 175.24 201.22 173.952 200.993 172.711C200.52 169.968 199.858 167.27 199.014 164.643C198.618 163.304 198.222 161.947 197.892 160.572C197.488 159.221 197.342 157.789 197.463 156.37C197.486 157.775 197.743 159.163 198.222 160.46C198.651 161.78 199.129 163.081 199.607 164.401C200.63 167.031 201.431 169.763 201.998 172.562C202.338 174.066 202.28 175.649 201.834 177.117C201.511 177.887 200.996 178.533 200.351 178.976C199.706 179.419 198.96 179.639 198.206 179.608C196.812 179.52 195.474 178.963 194.363 178.01C193.29 177.143 192.32 176.125 191.477 174.979L192.698 174.161C193.409 176.068 193.664 178.151 193.44 180.203C193.289 181.345 192.787 182.392 192.021 183.159C191.258 183.875 190.322 184.315 189.333 184.423C188.39 184.489 187.446 184.325 186.564 183.943C185.682 183.562 184.883 182.971 184.221 182.211C182.895 180.871 181.78 179.287 180.923 177.526L182.127 177.043C182.281 178.062 182.237 179.107 181.998 180.105C181.759 181.104 181.33 182.031 180.742 182.824C180.106 183.572 179.311 184.122 178.433 184.423C177.538 184.734 176.573 184.655 175.728 184.2C174.212 183.265 172.96 181.867 172.117 180.166C171.245 178.57 170.537 176.867 170.006 175.091Z" fill="#263238"/>
<path d="M180.725 199.723C180.725 199.723 149.277 181.598 161.596 171.224C165.24 168.138 183.529 160.386 184.98 164.494C186.86 169.793 179.752 174.645 174.871 176.876C174.871 176.876 186.332 181.356 185.953 191.265C185.857 193.081 185.319 194.832 184.396 196.325C183.474 197.817 182.203 198.994 180.725 199.723Z" fill="#AD6359"/>
<path d="M160.622 172.154C161.92 170.747 163.399 169.569 165.009 168.659C166.608 167.698 168.261 166.854 169.956 166.131C173.323 164.64 176.8 163.483 180.345 162.673C181.288 162.45 182.255 162.388 183.215 162.487C183.795 162.528 184.36 162.718 184.864 163.045C185.126 163.216 185.36 163.436 185.557 163.696C185.751 163.954 185.902 164.25 186.002 164.569C186.381 165.714 186.381 166.975 186.002 168.12C185.654 169.165 185.14 170.129 184.485 170.965C183.242 172.55 181.763 173.877 180.114 174.887C178.529 175.91 176.874 176.793 175.167 177.527V176.207C176.459 176.776 177.701 177.479 178.878 178.308C180.061 179.112 181.166 180.053 182.176 181.115C183.171 182.207 184.016 183.46 184.682 184.833C185.357 186.17 185.8 187.641 185.985 189.165C185.636 187.715 185.079 186.34 184.336 185.093C183.578 183.886 182.679 182.798 181.665 181.859C180.646 180.899 179.541 180.064 178.366 179.368C177.225 178.659 176.027 178.074 174.788 177.62L173.254 177.081L174.738 176.3C176.346 175.515 177.906 174.608 179.405 173.586C180.887 172.622 182.223 171.398 183.363 169.961C183.909 169.365 184.311 168.622 184.531 167.802C184.75 166.982 184.78 166.112 184.617 165.276C184.254 163.975 182.291 164.03 180.626 164.309C178.96 164.588 177.196 165.09 175.464 165.573C173.732 166.057 172.034 166.596 170.335 167.209C166.89 168.28 163.613 169.949 160.622 172.154Z" fill="#263238"/>
<path d="M144.528 225.378C172.332 264.065 212.752 289.125 222.729 280.963C232.706 272.802 199.081 230.081 198.503 229.449C196.541 227.33 181.666 218.611 154.654 205.783C128.153 193.197 132.11 208.107 144.528 225.378Z" fill="#AD6359"/>
<path d="M186.002 220.898L165.058 251.944C165.058 251.944 147.479 231.494 138.178 217.961C128.877 204.427 129.8 193.904 150.612 202.642C162.795 207.726 174.624 213.829 186.002 220.898Z" fill="url(#paint9_linear_126_1321)"/>
<path d="M163.063 244.826C165.619 240.587 168.291 236.423 171.028 232.351C172.397 230.344 173.717 228.299 175.118 226.31C176.52 224.32 178.12 222.331 179.554 220.286C179.653 220.137 179.851 220.286 179.752 220.435C178.433 222.48 177.246 224.618 175.926 226.663C174.607 228.708 173.156 230.827 171.754 232.909C168.995 236.999 166.153 241.015 163.228 244.956C163.146 245.067 162.915 244.956 163.063 244.826Z" fill="#263238"/>
<path d="M175.086 237.035L165.059 251.907C165.059 251.907 147.48 231.458 138.179 217.924L137.288 216.604L136.909 215.99L136.332 215.042C135.837 214.224 135.392 213.425 134.996 212.644C134.848 212.365 134.716 212.086 134.584 211.808C133.896 210.397 133.343 208.907 132.935 207.364C132.813 206.889 132.72 206.404 132.654 205.914C132.654 205.673 132.654 205.45 132.654 205.227C141.79 212.365 163.229 228 175.086 237.035Z" fill="#263238"/>
<path d="M175.927 339.376C175.927 339.376 80.4938 341.235 79.9331 340.566C78.4489 338.707 97.7269 227.926 117.665 205.096C124.706 197.028 139.235 200.319 141.659 201.639C147.25 204.687 152.51 211.269 156.913 223.464C165.719 247.855 177.131 337.629 175.927 339.376Z" fill="url(#paint10_linear_126_1321)"/>
<path opacity="0.1" d="M146.424 205.282H117.515L117.664 205.096C118.336 204.329 119.083 203.649 119.89 203.069H143.885C144.783 203.728 145.632 204.468 146.424 205.282ZM149.607 209H114.794C114.333 209.688 113.887 210.431 113.442 211.212H151.124C150.646 210.431 150.151 209.743 149.722 209H149.607ZM153.202 214.93H111.447C111.084 215.655 110.721 216.399 110.375 217.161H154.323C153.977 216.399 153.614 215.637 153.235 214.93H153.202ZM155.89 220.879H108.709L107.769 223.091H156.764C156.5 222.329 156.22 221.586 155.923 220.898L155.89 220.879ZM157.984 226.809H106.318L105.477 229.022H158.66C158.446 228.334 158.232 227.516 157.968 226.809H157.984ZM159.633 232.74H104.141C103.894 233.483 103.63 234.209 103.366 234.971H160.211L159.633 232.74ZM161.052 238.67H102.146C101.915 239.414 101.667 240.139 101.437 240.901H161.579C161.371 240.145 161.206 239.401 161.085 238.67H161.052ZM162.338 244.619H100.249C100.018 245.344 99.8039 246.088 99.5896 246.831H162.783L162.338 244.619ZM163.525 250.55H98.6001C98.3857 251.275 98.1878 252.018 97.9734 252.762H164.07C163.839 252.018 163.707 251.275 163.558 250.643L163.525 250.55ZM164.647 256.48H96.951C96.7366 257.205 96.5387 257.949 96.3408 258.711H165.174C164.96 257.967 164.828 257.224 164.68 256.48H164.647ZM165.719 262.41H95.3019C95.104 263.154 94.9061 263.898 94.7247 264.641H166.213L165.719 262.41ZM166.741 268.359H93.7517C93.5538 269.103 93.3724 269.828 93.191 270.572H167.137C167.021 269.828 166.906 269.084 166.774 268.359H166.741ZM167.714 274.29H92.284C92.1026 275.033 91.9212 275.777 91.7563 276.502H168.11C167.994 275.758 167.862 275.033 167.747 274.29H167.714ZM168.654 280.22H90.8823C90.7009 280.964 90.536 281.707 90.3711 282.451H169.033C168.934 281.707 168.819 280.964 168.687 280.22H168.654ZM169.594 286.169H89.5135C89.3651 286.913 89.2002 287.638 89.0353 288.381H169.94C169.841 287.656 169.726 286.913 169.627 286.169H169.594ZM170.452 292.1H88.2107C88.0623 292.843 87.8974 293.587 87.749 294.312H170.814C170.715 293.587 170.6 292.843 170.485 292.1H170.452ZM171.309 298.03H86.9574C86.809 298.792 86.6606 299.536 86.4957 300.261H171.655C171.556 299.517 171.458 298.792 171.342 298.03H171.309ZM172.15 303.96H85.7536C85.6052 304.704 85.4567 305.466 85.3083 306.191H172.463C172.365 305.466 172.266 304.722 172.183 303.96H172.15ZM172.925 309.909H84.5827C84.4508 310.653 84.3024 311.397 84.1704 312.122H173.222L172.925 309.909ZM173.684 315.84H83.4613C83.3294 316.602 83.1975 317.327 83.0655 318.052H173.997C173.898 317.327 173.816 316.583 173.717 315.84H173.684ZM174.409 321.77H82.4224C82.2685 322.538 82.1365 323.282 82.0266 324.001H174.706C174.624 323.276 174.459 322.532 174.459 321.77H174.409ZM175.069 327.7H81.4164C81.2845 328.481 81.1691 329.225 81.0536 329.931H175.349C175.283 329.225 175.201 328.481 175.102 327.7H175.069ZM175.679 333.649H80.4599C80.3445 334.449 80.2621 335.192 80.1631 335.862H175.811C175.844 335.211 175.778 334.467 175.712 333.649H175.679ZM79.8333 339.58C79.76 339.903 79.76 340.242 79.8333 340.565C80.2786 341.067 139.465 340.045 164.68 339.58H79.8333Z" fill="#030402"/>
<path d="M123.106 218.519C116.674 228.465 83.6921 269.569 82.4717 273.38C81.2514 277.191 88.8868 285.613 88.7548 287.193C88.2601 293.625 75.9413 336.421 71.0105 332.071C64.513 326.345 37.0059 285.334 40.8978 267.58C44.7897 249.826 109.022 207.198 119.214 203.498C129.405 199.799 129.455 208.704 123.106 218.519Z" fill="#AD6359"/>
<path d="M97.1977 255.941L78.4639 226.29C78.4639 226.29 99.424 210.785 113.441 204.167C127.459 197.549 134.369 201.229 121.555 221.66C114.065 233.638 105.93 245.086 97.1977 255.941Z" fill="url(#paint11_linear_126_1321)"/>
<path d="M84.0053 224.356C86.9737 228.235 89.8596 232.201 92.6631 236.254C94.0483 238.243 95.4501 240.214 96.7858 242.24C98.1216 244.266 99.4409 246.534 100.843 248.617C100.942 248.765 100.744 248.951 100.645 248.802C99.2265 246.943 97.7093 245.084 96.2911 243.039C94.8729 240.994 93.4217 238.949 92.0034 236.905C89.2 232.852 86.4789 228.706 83.8569 224.505C83.7579 224.393 83.9228 224.244 84.0053 224.356Z" fill="#263238"/>
<path d="M97.1654 256.09C100.035 251.795 103.415 247.966 106.516 243.894C109.616 239.823 112.7 235.621 115.652 231.383C115.652 231.383 115.866 231.383 115.8 231.494C114.431 233.707 113.096 235.938 111.661 238.094C110.952 239.154 110.21 240.195 109.451 241.236L110.556 240.213C111.687 239.255 112.859 238.362 114.069 237.536C114.069 237.536 114.201 237.536 114.069 237.648C113.019 238.742 111.918 239.773 110.77 240.734C109.946 241.44 109.121 242.091 108.247 242.742L106.928 244.601C104.05 248.79 100.843 252.678 97.3468 256.22C97.2478 256.387 97.0664 256.22 97.1654 256.09Z" fill="#263238"/>
<path d="M87.1395 348.318C91.5426 344.953 85.4904 341.012 85.4904 341.012C85.4904 341.012 95.385 344.321 98.6832 338.874C101.981 333.427 94.4615 329.151 93.9338 328.817C94.4615 329.003 103.631 331.754 106.5 325.898C109.369 320.042 101.322 316.77 100.794 316.603C101.338 316.603 108.479 316.249 109.765 311.23C111.958 302.623 91.4436 301.619 87.024 296.358C87.024 296.358 89.0029 284.98 89.1679 284.664C87.841 287.217 85.7819 289.184 83.33 290.241C78.8939 291.654 74.9031 292.472 73.1056 294.87C72.2669 295.92 71.75 297.245 71.6312 298.651C71.5124 300.057 71.7981 301.469 72.4459 302.678C72.4459 302.678 66.839 301.953 64.4478 306.489C63.2275 308.813 65.4537 313.108 65.4537 313.108C64.1849 313.005 62.9156 313.298 61.7843 313.954C60.653 314.609 59.7032 315.603 59.0387 316.826C57.5051 320.172 59.9787 323.946 59.9787 323.946C59.9787 323.946 55.4932 325.805 54.916 329.821C53.8111 337.87 77.7066 355.494 87.1395 348.318Z" fill="#AD6359"/>
<path d="M60.373 324.634C60.373 324.634 60.1916 324.634 60.2576 324.764C67.0933 333.065 76.009 338.823 85.8187 341.272C86.1321 341.272 86.3629 340.789 86.0331 340.64C76.837 336.734 68.1933 331.343 60.373 324.634Z" fill="#263238"/>
<path d="M65.3874 313.033C65.3765 313.023 65.3641 313.016 65.3508 313.012C65.3375 313.007 65.3235 313.006 65.3097 313.008C65.296 313.009 65.2826 313.014 65.2705 313.022C65.2583 313.029 65.2476 313.039 65.239 313.052C65.2303 313.064 65.2238 313.078 65.22 313.093C65.2161 313.108 65.2149 313.123 65.2165 313.139C65.218 313.155 65.2222 313.17 65.2289 313.183C65.2356 313.197 65.2446 313.209 65.2554 313.219C72.8759 322.277 83.117 327.967 94.1313 329.262C94.5106 329.262 94.8899 328.891 94.4446 328.816C87.0566 327.552 72.6434 319.428 65.3874 313.033Z" fill="#263238"/>
<path d="M101.683 316.324C90.9308 314.948 81.6464 309.817 72.7907 303.013C72.6752 303.013 72.5763 303.106 72.6423 303.217C76.1714 307.883 82.2236 311.564 87.1544 313.981C91.6823 316.318 96.6752 317.273 101.634 316.751C101.897 316.733 101.897 316.361 101.683 316.324Z" fill="#263238"/>
<path d="M59.7636 323.945C58.8678 322.928 58.2395 321.652 57.9484 320.257C57.6573 318.863 57.7148 317.404 58.1144 316.044C58.631 314.763 59.538 313.734 60.6706 313.144C62.0205 312.618 63.4641 312.471 64.8758 312.716C64.0886 311.466 63.6562 309.975 63.6356 308.442C63.615 306.909 64.0072 305.404 64.7603 304.127C65.6049 303.035 66.7815 302.339 68.0586 302.175C69.5161 302.016 70.986 302.079 72.4287 302.361C71.8277 301.564 71.4 300.619 71.1796 299.603C70.9591 298.586 70.9521 297.526 71.1589 296.505C71.4318 295.397 71.9323 294.377 72.6199 293.528C73.3075 292.679 74.1629 292.024 75.1167 291.616C77.3606 290.7 79.69 290.077 82.0595 289.757C83.2758 289.551 84.466 289.183 85.605 288.66C86.8325 288.027 87.8615 286.99 88.5569 285.686C88.6889 285.463 88.6889 285.686 88.5569 285.89C88.0951 286.776 87.5041 287.568 86.8089 288.233C86.0869 288.941 85.2824 289.536 84.4177 289.999C82.271 290.911 80.0659 291.639 77.8213 292.174C75.8536 292.764 74.1143 294.072 72.8739 295.892C72.307 296.855 71.9884 297.977 71.9535 299.132C71.9185 300.288 72.1687 301.431 72.676 302.436C72.676 302.436 72.676 302.677 72.5276 302.659C71.2109 302.652 69.8984 302.827 68.6192 303.179C67.5582 303.465 66.6019 304.115 65.8817 305.038C65.2145 306.216 64.833 307.571 64.7751 308.967C64.7172 310.363 64.9851 311.752 65.5519 312.995C64.1297 313.103 62.7375 313.506 61.4456 314.185C60.6069 314.766 59.9321 315.605 59.4997 316.602C59.0057 317.751 58.8043 319.031 58.9179 320.302C59.0314 321.572 59.4555 322.782 60.1428 323.796C60.1492 323.827 60.1492 323.859 60.1428 323.889C60.1428 323.889 58.7081 324.558 58.6422 324.558C59.0044 324.328 59.3789 324.123 59.7636 323.945Z" fill="#263238"/>
<path d="M141.624 218.129C136.38 220.304 126.123 212.255 121.654 205.227C121.357 204.744 121.06 183.83 120.631 179.703C120.532 178.847 144.329 182.9 144.329 182.9C143.568 188.247 143.391 193.679 143.801 199.074C143.867 199.669 146.687 216.047 141.624 218.129Z" fill="#AD6359"/>
<path d="M144.329 182.898C144.329 182.898 144.065 184.627 143.851 187.192C137.254 196.32 126.667 197.287 121.291 197.082C121.109 190.594 120.895 182.21 120.631 179.7C120.532 178.864 144.329 182.898 144.329 182.898Z" fill="#263238"/>
<path d="M120.732 135.141C120.732 135.141 113.146 138.45 111.596 147.001C110.045 155.553 111.596 164.625 112.222 165.09C112.849 165.555 120.732 135.141 120.732 135.141Z" fill="#263238"/>
<path d="M151.371 146.183C153.317 155.608 147.414 181.988 141.213 187.491C132.242 195.485 118.323 195.262 112.486 183.308C106.846 171.726 115.091 137.52 121.935 132.593C131.994 125.361 148.453 132.24 151.371 146.183Z" fill="#AD6359"/>
<path d="M127.839 160.999C127.839 160.999 127.954 161.111 127.938 161.185C127.608 163.044 127.493 165.145 128.878 166.037C128.878 166.037 128.878 166.149 128.878 166.13C127.097 165.498 127.262 162.654 127.839 160.999Z" fill="#263238"/>
<path d="M129.57 159.365C132.225 159.643 131.516 165.592 129.075 165.332C126.634 165.072 127.36 159.123 129.57 159.365Z" fill="#263238"/>
<path d="M118.636 159.158C118.636 159.158 118.504 159.158 118.488 159.307C118.339 161.166 117.894 163.23 116.344 163.639V163.75C118.191 163.713 118.751 160.924 118.636 159.158Z" fill="#263238"/>
<path d="M117.4 157.021C114.794 156.427 113.92 162.338 116.344 162.896C118.769 163.454 119.577 157.523 117.4 157.021Z" fill="#263238"/>
<path d="M127.477 176.374C127.048 176.764 126.603 177.322 126.009 177.322C125.399 177.251 124.809 177.035 124.277 176.69C124.48 177.078 124.773 177.397 125.125 177.61C125.477 177.823 125.874 177.923 126.273 177.898C126.62 177.85 126.945 177.677 127.2 177.407C127.455 177.136 127.627 176.781 127.691 176.392C127.691 176.392 127.543 176.281 127.477 176.374Z" fill="#263238"/>
<path d="M119.84 167.897C119.84 167.897 119.148 170.574 118.983 171.875C121.225 172.245 123.407 172.977 125.464 174.05C125.942 174.311 126.008 173.846 125.464 173.362C123.929 171.957 122.057 171.103 120.088 170.909C120.088 170.537 121.225 166.8 121.044 166.744C120.153 166.686 119.26 166.768 118.389 166.986C119.675 161.409 121.687 155.98 122.973 150.254C122.973 150.05 122.759 149.938 122.677 150.106C120.297 155.783 118.419 161.711 117.07 167.804C116.855 168.622 119.345 168.046 119.84 167.897Z" fill="#263238"/>
<path d="M131.583 157.336C130.956 156.89 130.461 156.351 129.934 155.849C129.406 155.347 128.713 154.882 128.466 153.99C128.413 153.721 128.443 153.44 128.551 153.193C128.659 152.947 128.838 152.749 129.06 152.633C129.523 152.462 130.02 152.435 130.496 152.556C130.972 152.677 131.41 152.941 131.764 153.321C132.597 153.951 133.186 154.914 133.413 156.016C133.457 156.275 133.43 156.543 133.338 156.785C133.245 157.026 133.091 157.232 132.894 157.374C132.697 157.515 132.467 157.588 132.233 157.581C131.999 157.574 131.773 157.489 131.583 157.336Z" fill="#263238"/>
<path d="M116.246 150.479C116.971 150.349 117.631 150.125 118.34 149.921C119.104 149.847 119.824 149.487 120.385 148.898C120.532 148.679 120.612 148.411 120.612 148.136C120.612 147.861 120.532 147.594 120.385 147.374C120.023 147.003 119.581 146.747 119.103 146.633C118.624 146.519 118.128 146.55 117.664 146.723C116.673 146.91 115.779 147.507 115.157 148.397C115.032 148.606 114.962 148.852 114.955 149.104C114.948 149.357 115.005 149.607 115.119 149.825C115.232 150.043 115.399 150.22 115.598 150.336C115.798 150.451 116.022 150.501 116.246 150.479Z" fill="#263238"/>
<path d="M147.48 168.715C142.631 168.176 145.27 144.064 145.27 144.064C142.277 145.213 139.146 145.84 135.986 145.923C132.792 145.796 129.622 145.26 126.536 144.324C125.877 144.045 134.633 141.257 134.633 141.257C134.633 141.257 113.096 143.376 112.37 138.803C112.106 137.223 116.114 122.834 133.99 123.745C147.183 124.414 153.334 139.956 153.334 139.956C153.334 139.956 159.749 148.005 158.644 151.649C156.764 158.044 152.625 169.291 147.48 168.715Z" fill="#263238"/>
<path d="M144.544 168.844C144.544 168.844 150.563 160.739 153.878 163.267C157.192 165.795 152.229 177.861 147.974 179.181C147.444 179.388 146.882 179.473 146.322 179.43C145.762 179.388 145.216 179.218 144.715 178.932C144.215 178.645 143.771 178.248 143.41 177.764C143.049 177.279 142.778 176.718 142.614 176.113L144.544 168.844Z" fill="#AD6359"/>
<path d="M224.872 279.57C238.263 267.914 225.466 208.74 217.682 186.952C215.39 180.539 179.027 192.529 180.726 199.724C190.439 240.419 210.212 292.342 224.872 279.57Z" fill="#AD6359"/>
<path d="M186.744 222.051L190.751 233.205C192.12 236.923 193.456 240.641 194.94 244.359C196.424 248.078 197.859 251.666 199.376 255.291C200.893 258.916 202.576 262.467 204.225 266.036C202.138 262.76 200.238 259.339 198.535 255.793C196.886 252.242 195.237 248.598 193.802 244.917C192.368 241.236 191.048 237.481 189.861 233.651C188.674 229.822 187.651 225.973 186.744 222.051Z" fill="#263238"/>
<path d="M184.355 104.427C184.514 106.518 184.12 108.615 183.222 110.453C182.325 112.291 180.964 113.788 179.312 114.755C177.659 115.722 175.79 116.115 173.94 115.885C172.09 115.655 170.342 114.812 168.916 113.462C167.491 112.112 166.452 110.316 165.932 108.302C165.412 106.287 165.433 104.143 165.992 102.142C166.552 100.141 167.626 98.3712 169.077 97.0572C170.528 95.7433 172.293 94.9438 174.147 94.7597C175.381 94.6372 176.624 94.7903 177.805 95.2101C178.986 95.6298 180.082 96.3081 181.03 97.2061C181.978 98.1041 182.76 99.204 183.33 100.443C183.901 101.682 184.249 103.036 184.355 104.427Z" fill="white"/>
<path d="M184.354 104.428C184.558 107.275 183.786 110.101 182.196 112.325C180.607 114.549 178.322 116.001 175.811 116.382C174.444 116.691 173.034 116.671 171.674 116.324C170.315 115.976 169.035 115.308 167.921 114.363C166.806 113.419 165.881 112.22 165.206 110.844C164.531 109.469 164.122 107.948 164.005 106.381C163.888 104.815 164.066 103.238 164.527 101.755C164.988 100.272 165.723 98.9149 166.682 97.7739C167.641 96.6328 168.803 95.7331 170.092 95.1339C171.381 94.5346 172.768 94.2493 174.162 94.2966C176.687 94.1993 179.15 95.1946 181.045 97.0785C182.94 98.9623 184.123 101.592 184.354 104.428ZM184.354 104.428C184.248 103.061 183.898 101.732 183.325 100.521C182.751 99.3095 181.966 98.2419 181.017 97.3821C180.068 96.5222 178.974 95.8879 177.802 95.5174C176.629 95.1469 175.402 95.0478 174.195 95.2261C171.887 95.5605 169.782 96.8876 168.322 98.9303C166.861 100.973 166.157 103.573 166.358 106.187C166.558 108.801 167.646 111.226 169.396 112.956C171.145 114.687 173.42 115.588 175.745 115.471C176.963 115.414 178.158 115.078 179.257 114.486C180.357 113.893 181.338 113.056 182.143 112.024C182.947 110.992 183.558 109.787 183.938 108.481C184.318 107.176 184.459 105.797 184.354 104.428Z" fill="#263238"/>
<path d="M163.872 124.003C163.959 125.168 163.739 126.336 163.237 127.359C162.736 128.383 161.977 129.216 161.056 129.753C160.135 130.29 159.094 130.507 158.063 130.377C157.032 130.247 156.059 129.776 155.266 129.022C154.474 128.269 153.897 127.267 153.609 126.144C153.321 125.021 153.334 123.827 153.648 122.713C153.962 121.599 154.562 120.614 155.372 119.884C156.182 119.155 157.166 118.712 158.199 118.612C158.886 118.543 159.578 118.628 160.236 118.862C160.894 119.097 161.504 119.475 162.031 119.976C162.558 120.477 162.992 121.091 163.308 121.782C163.624 122.474 163.816 123.228 163.872 124.003Z" fill="white"/>
<path d="M163.872 124.004C163.965 125.279 163.715 126.557 163.154 127.67C162.594 128.784 161.749 129.681 160.73 130.246C159.711 130.811 158.565 131.017 157.441 130.837C156.317 130.657 155.266 130.101 154.427 129.239C153.587 128.377 152.997 127.25 152.733 126.005C152.469 124.76 152.544 123.455 152.947 122.258C153.351 121.062 154.064 120.03 154.995 119.296C155.926 118.563 157.031 118.163 158.166 118.148C159.595 118.141 160.974 118.739 162.03 119.823C163.087 120.908 163.744 122.399 163.872 124.004ZM163.872 124.004C163.818 123.249 163.625 122.516 163.305 121.851C162.985 121.185 162.546 120.602 162.016 120.139C161.485 119.675 160.875 119.341 160.223 119.159C159.572 118.976 158.894 118.948 158.232 119.077C157.304 119.254 156.441 119.732 155.749 120.453C155.058 121.174 154.568 122.106 154.339 123.136C154.109 124.166 154.151 125.249 154.459 126.252C154.767 127.256 155.327 128.136 156.072 128.786C156.816 129.437 157.712 129.829 158.651 129.914C159.59 129.999 160.53 129.775 161.358 129.267C162.185 128.76 162.863 127.992 163.31 127.057C163.756 126.123 163.952 125.061 163.872 124.004Z" fill="#263238"/>
<path d="M254.704 55.0502C255.58 63.2116 253.547 71.431 249.051 77.9037C244.555 84.3764 237.965 88.5734 230.727 89.5729C225.963 90.2414 221.127 89.4782 216.709 87.3606C214.554 90.5404 211.778 93.1172 208.596 94.8908C205.414 96.6645 201.912 97.5871 198.363 97.5871C194.813 97.5871 191.311 96.6645 188.13 94.8908C184.948 93.1172 182.171 90.5404 180.017 87.3606C179.003 87.6984 177.966 87.9409 176.916 88.0856C173.325 88.5799 169.684 87.8894 166.435 86.0979C163.185 84.3064 160.466 81.4908 158.607 77.9923C156.748 74.4938 155.829 70.4626 155.962 66.3873C156.094 62.3119 157.272 58.3674 159.353 55.0316C155.301 49.2193 153.224 41.9661 153.496 34.5797C153.769 27.1934 156.374 20.1599 160.841 14.7474C165.308 9.33487 171.343 5.89952 177.859 5.06072C184.374 4.22191 190.941 6.03484 196.376 10.1726C198.925 6.59972 202.266 3.8493 206.061 2.19975C209.855 0.550194 213.97 0.0600516 217.986 0.778925C222.003 1.4978 225.781 3.40017 228.936 6.29351C232.091 9.18686 234.512 12.9685 235.954 17.2556C236.918 16.8903 237.913 16.6411 238.923 16.512C241.972 16.1 245.06 16.7456 247.776 18.3626C250.491 19.9797 252.705 22.4914 254.122 25.563C255.539 28.6346 256.092 32.1201 255.707 35.5549C255.322 38.9897 254.017 42.2106 251.967 44.7882C253.409 48.0003 254.336 51.4744 254.704 55.0502Z" fill="white"/>
<path d="M254.705 55.0508C255.563 63.2092 253.556 71.4223 249.115 77.9357C247.626 80.0574 245.909 81.9621 244.003 83.6059C240.142 86.8992 235.588 89.0016 230.787 89.7058C225.987 90.41 221.106 89.6915 216.627 87.6214H216.891C214.724 90.862 211.922 93.4943 208.704 95.3131C205.486 97.1319 201.939 98.0878 198.339 98.1065C194.722 98.1209 191.151 97.1987 187.9 95.4109C184.651 93.5918 181.805 90.9745 179.572 87.7515L180.166 87.9746C176.329 89.2808 172.227 89.2159 168.424 87.7887C164.604 86.3673 161.275 83.6298 158.909 79.9621C157.75 78.1184 156.834 76.096 156.188 73.9573C155.57 71.8063 155.242 69.5628 155.215 67.3019C155.179 62.7451 156.401 58.2883 158.711 54.5488V55.5899C154.493 49.6367 152.341 42.1561 152.659 34.5454C152.837 28.8762 154.367 23.3658 157.086 18.5924C159.805 13.819 163.613 9.95862 168.112 7.41635C172.61 4.87408 177.633 3.74364 182.653 4.14366C187.672 4.54367 192.504 6.45939 196.64 9.68979L195.915 9.80134C198.534 6.16717 201.959 3.37913 205.843 1.72043C209.727 0.0617152 213.932 -0.408575 218.029 0.35733C222.102 1.11911 225.924 3.07944 229.109 6.04016C232.294 9.00089 234.73 12.8571 236.169 17.219L235.955 17.0888C239.177 15.9074 242.656 15.9597 245.849 17.2376C248.197 18.1841 250.302 19.7691 251.976 21.852C253.65 23.9349 254.843 26.4513 255.448 29.1782C256.053 31.905 256.052 34.7581 255.445 37.4844C254.838 40.2107 253.644 42.726 251.968 44.8074C253.411 48.0122 254.338 51.4805 254.705 55.0508ZM254.705 55.0508C254.316 51.4761 253.367 48.0078 251.902 44.8074C254.143 42.0339 255.501 38.4978 255.76 34.7576C256.02 31.0174 255.167 27.2862 253.336 24.1532C251.526 21.0289 248.846 18.6709 245.718 17.4495C242.59 16.2281 239.191 16.2124 236.054 17.4049H235.889V17.219C234.425 12.9982 232.009 9.28146 228.88 6.43644C225.75 3.59637 222.004 1.74825 218.029 1.08236C214.073 0.416229 210.03 0.928969 206.304 2.56961C202.601 4.2272 199.352 6.95943 196.888 10.4892L196.574 10.9354L196.145 10.6007C190.837 6.6125 184.443 4.8839 178.108 5.72428C171.772 6.56467 165.909 9.91918 161.567 15.1875C157.225 20.4558 154.687 27.2941 154.409 34.4786C154.13 41.6631 156.129 48.7248 160.047 54.4001L160.409 54.9206L160.063 55.4597C157.909 58.8883 156.756 62.9887 156.765 67.1904C156.791 69.2784 157.085 71.351 157.639 73.3438C158.217 75.3327 159.057 77.2126 160.129 78.921C162.311 82.3617 165.386 84.9548 168.931 86.3432C172.475 87.7316 176.314 87.8469 179.918 86.6733L180.298 86.5617L180.512 86.8964C182.61 90.0114 185.305 92.5531 188.395 94.3326C193.099 97.0192 198.486 97.7762 203.632 96.4736C208.778 95.171 213.361 91.89 216.594 87.1938L216.71 87.0265H216.875C221.269 89.1693 226.088 89.9646 230.843 89.3317C235.626 88.669 240.173 86.6122 244.035 83.3642C245.938 81.7517 247.656 79.8782 249.148 77.787C250.612 75.6477 251.836 73.3123 252.792 70.8341C254.623 65.8458 255.282 60.4098 254.705 55.0508Z" fill="#263238"/>
<path d="M207.688 56.016C207.653 53.7534 208.012 51.5051 208.743 49.3978C209.662 47.1862 211.213 45.3861 213.146 44.2853C213.822 43.8206 214.631 43.3186 215.62 42.7423C216.622 42.1477 217.576 41.4574 218.473 40.6788C219.395 39.8882 220.197 38.9338 220.848 37.853C221.499 36.7534 221.838 35.4568 221.821 34.1349C221.838 33.1699 221.651 32.2142 221.276 31.3463C220.938 30.5692 220.461 29.8793 219.875 29.32C219.279 28.7603 218.589 28.3429 217.846 28.093C217.084 27.8139 216.289 27.6697 215.488 27.6654C214.572 27.6462 213.662 27.8425 212.816 28.2417C212.043 28.6006 211.316 29.0759 210.656 29.6546C210.04 30.236 209.486 30.8974 209.007 31.6252C208.534 32.2808 208.099 32.9701 207.704 33.6887L201.899 29.1712C202.462 27.6616 203.242 26.2672 204.208 25.0441C205.137 23.8381 206.228 22.8032 207.44 21.9767C208.678 21.1546 210.009 20.529 211.398 20.1176C212.835 19.6905 214.315 19.478 215.801 19.4855C217.476 19.4953 219.142 19.7707 220.749 20.3035C222.366 20.8477 223.874 21.7446 225.185 22.9434C226.535 24.2004 227.627 25.7736 228.384 27.5538C229.238 29.6638 229.655 31.9651 229.604 34.2836C229.624 35.7162 229.458 37.1443 229.11 38.5223C228.794 39.7172 228.309 40.847 227.675 41.8686C227.051 42.8761 226.313 43.7884 225.482 44.5828C224.578 45.4365 223.618 46.2132 222.612 46.9066L219.941 48.6355C219.085 49.1723 218.274 49.7944 217.516 50.4946C216.786 51.137 216.165 51.9245 215.686 52.8184C215.19 53.7888 214.944 54.8964 214.977 56.016H207.688ZM207.82 73.5283V63.1548H215.208V73.5283H207.82Z" fill="url(#paint12_linear_126_1321)"/>
<path d="M191.181 36.6092C191.638 38.8107 191.694 41.0937 191.346 43.3204C190.876 45.6877 189.714 47.8086 188.048 49.3437C187.471 49.9386 186.762 50.6265 185.904 51.4258C185.032 52.2411 184.221 53.1365 183.48 54.1029C182.725 55.0878 182.117 56.2057 181.683 57.412C181.247 58.6405 181.155 59.9897 181.419 61.2788C181.568 62.221 181.919 63.108 182.441 63.8629C182.914 64.5516 183.51 65.1214 184.189 65.5361C184.874 65.9495 185.625 66.2024 186.399 66.2797C187.198 66.3616 188.004 66.3115 188.79 66.131C189.688 65.937 190.541 65.5385 191.297 64.9598C191.987 64.4337 192.613 63.8088 193.16 63.1007C193.688 62.3907 194.137 61.6102 194.496 60.7769C194.833 60.0228 195.131 59.2468 195.387 58.4531L201.884 61.5391C201.618 63.1487 201.111 64.6953 200.383 66.1124C199.678 67.4968 198.788 68.7509 197.745 69.8305C196.686 70.9261 195.499 71.852 194.216 72.5819C192.89 73.3334 191.481 73.8835 190.027 74.2179C188.37 74.6152 186.669 74.7342 184.981 74.5711C183.3 74.4291 181.661 73.9042 180.165 73.0281C178.622 72.1202 177.267 70.8528 176.191 69.31C174.244 66.2351 173.284 62.5041 173.47 58.7319C173.561 57.4958 173.829 56.2843 174.262 55.144C174.685 54.0131 175.24 52.9504 175.911 51.9836C176.638 50.9348 177.431 49.9469 178.285 49.0277C179.044 48.2469 179.819 47.4661 180.578 46.7224C181.311 45.9849 181.979 45.1693 182.573 44.2871C183.153 43.482 183.605 42.57 183.909 41.5914C184.21 40.5257 184.244 39.3871 184.008 38.3009L191.181 36.6092ZM187.883 19.5059L189.78 29.6563L182.54 31.3666L180.644 21.2162L187.883 19.5059Z" fill="url(#paint13_linear_126_1321)"/>
<defs>
<linearGradient id="paint0_linear_126_1321" x1="642.342" y1="463.897" x2="642.342" y2="542.087" gradientUnits="userSpaceOnUse">
<stop stop-color="#465C8C"/>
<stop offset="1" stop-color="#DFA9E7"/>
</linearGradient>
<linearGradient id="paint1_linear_126_1321" x1="542.629" y1="526.347" x2="542.629" y2="592.71" gradientUnits="userSpaceOnUse">
<stop stop-color="#465C8C"/>
<stop offset="1" stop-color="#DFA9E7"/>
</linearGradient>
<linearGradient id="paint2_linear_126_1321" x1="538.919" y1="441.444" x2="538.919" y2="545.082" gradientUnits="userSpaceOnUse">
<stop stop-color="#465C8C"/>
<stop offset="1" stop-color="#DFA9E7"/>
</linearGradient>
<linearGradient id="paint3_linear_126_1321" x1="608.759" y1="429.984" x2="608.759" y2="476.241" gradientUnits="userSpaceOnUse">
<stop stop-color="#465C8C"/>
<stop offset="1" stop-color="#DFA9E7"/>
</linearGradient>
<linearGradient id="paint4_linear_126_1321" x1="609.199" y1="505.825" x2="609.199" y2="597.86" gradientUnits="userSpaceOnUse">
<stop stop-color="#465C8C"/>
<stop offset="1" stop-color="#DFA9E7"/>
</linearGradient>
<linearGradient id="paint5_linear_126_1321" x1="387.36" y1="94.3506" x2="387.36" y2="749.464" gradientUnits="userSpaceOnUse">
<stop stop-color="#465C8C"/>
<stop offset="1" stop-color="#DFA9E7"/>
</linearGradient>
<linearGradient id="paint6_linear_126_1321" x1="375.23" y1="94.3506" x2="375.23" y2="749.464" gradientUnits="userSpaceOnUse">
<stop stop-color="#465C8C"/>
<stop offset="1" stop-color="#DFA9E7"/>
</linearGradient>
<linearGradient id="paint7_linear_126_1321" x1="186.698" y1="718.493" x2="186.698" y2="759.981" gradientUnits="userSpaceOnUse">
<stop stop-color="#465C8C"/>
<stop offset="1" stop-color="#DFA9E7"/>
</linearGradient>
<linearGradient id="paint8_linear_126_1321" x1="105.807" y1="716.559" x2="105.807" y2="766.323" gradientUnits="userSpaceOnUse">
<stop stop-color="#465C8C"/>
<stop offset="1" stop-color="#DFA9E7"/>
</linearGradient>
<linearGradient id="paint9_linear_126_1321" x1="159.267" y1="199.445" x2="159.267" y2="251.944" gradientUnits="userSpaceOnUse">
<stop stop-color="#465C8C"/>
<stop offset="1" stop-color="#DFA9E7"/>
</linearGradient>
<linearGradient id="paint10_linear_126_1321" x1="127.934" y1="199.847" x2="127.934" y2="340.711" gradientUnits="userSpaceOnUse">
<stop stop-color="#465C8C"/>
<stop offset="1" stop-color="#DFA9E7"/>
</linearGradient>
<linearGradient id="paint11_linear_126_1321" x1="103.39" y1="201.164" x2="103.39" y2="255.941" gradientUnits="userSpaceOnUse">
<stop stop-color="#465C8C"/>
<stop offset="1" stop-color="#DFA9E7"/>
</linearGradient>
<linearGradient id="paint12_linear_126_1321" x1="215.754" y1="19.4854" x2="215.754" y2="73.5283" gradientUnits="userSpaceOnUse">
<stop stop-color="#465C8C"/>
<stop offset="1" stop-color="#DFA9E7"/>
</linearGradient>
<linearGradient id="paint13_linear_126_1321" x1="187.666" y1="19.5059" x2="187.666" y2="74.6419" gradientUnits="userSpaceOnUse">
<stop stop-color="#465C8C"/>
<stop offset="1" stop-color="#DFA9E7"/>
</linearGradient>
</defs>
</svg>
