<svg width="400" height="299" viewBox="0 0 400 299" fill="none" xmlns="http://www.w3.org/2000/svg">
<path d="M400 261.92H0V262.12H400V261.92Z" fill="#EBEBEB"/>
<path d="M359.92 274.792H333.424V274.992H359.92V274.792Z" fill="#EBEBEB"/>
<path d="M264.976 276.968H258.024V277.168H264.976V276.968Z" fill="#EBEBEB"/>
<path d="M332.623 267.368H317.271V267.568H332.623V267.368Z" fill="#EBEBEB"/>
<path d="M76.5198 268.712H41.9678V268.912H76.5198V268.712Z" fill="#EBEBEB"/>
<path d="M88.7124 268.712H83.6484V268.912H88.7124V268.712Z" fill="#EBEBEB"/>
<path d="M180.12 272.088H105.176V272.288H180.12V272.088Z" fill="#EBEBEB"/>
<path d="M189.6 226.24H35.1284C33.9182 226.238 32.7584 225.756 31.9035 224.899C31.0485 224.043 30.5684 222.882 30.5684 221.672V4.528C30.5789 3.32482 31.0637 2.17438 31.9175 1.32657C32.7713 0.478767 33.9251 0.00206111 35.1284 0H189.6C190.812 0 191.974 0.48127 192.83 1.33794C193.687 2.1946 194.168 3.35649 194.168 4.568V221.672C194.168 222.884 193.687 224.045 192.83 224.902C191.974 225.759 190.812 226.24 189.6 226.24ZM35.1284 0.160001C33.9713 0.16212 32.8623 0.623252 32.0449 1.44218C31.2275 2.26111 30.7684 3.37092 30.7684 4.528V221.672C30.7684 222.829 31.2275 223.939 32.0449 224.758C32.8623 225.577 33.9713 226.038 35.1284 226.04H189.6C190.758 226.038 191.868 225.577 192.687 224.758C193.505 223.94 193.966 222.83 193.968 221.672V4.528C193.966 3.37018 193.505 2.26039 192.687 1.44169C191.868 0.622992 190.758 0.162115 189.6 0.160001H35.1284Z" fill="#EBEBEB"/>
<path d="M362.648 226.24H208.168C206.957 226.238 205.796 225.756 204.94 224.9C204.084 224.044 203.602 222.883 203.6 221.672V4.528C203.612 3.32409 204.099 2.17366 204.954 1.32607C205.809 0.478487 206.964 0.00203863 208.168 0H362.648C363.849 0.0041636 365.001 0.481799 365.853 1.32938C366.705 2.17697 367.189 3.3262 367.2 4.528V221.672C367.2 222.881 366.721 224.04 365.867 224.896C365.014 225.753 363.856 226.236 362.648 226.24ZM208.168 0.160001C207.01 0.162115 205.9 0.622992 205.081 1.44169C204.263 2.26039 203.802 3.37018 203.8 4.528V221.672C203.802 222.83 204.263 223.94 205.081 224.758C205.9 225.577 207.01 226.038 208.168 226.04H362.648C363.805 226.038 364.915 225.577 365.734 224.758C366.553 223.94 367.013 222.83 367.016 221.672V4.528C367.013 3.37018 366.553 2.26039 365.734 1.44169C364.915 0.622992 363.805 0.162115 362.648 0.160001H208.168Z" fill="#EBEBEB"/>
<path d="M357.792 66.8882H253.44V72.2482H357.792V66.8882Z" fill="#E0E0E0"/>
<path d="M262.84 47.1279H258.24V66.8879H262.84V47.1279Z" fill="#EBEBEB"/>
<path d="M285.072 47.1279H280.472V66.8879H285.072V47.1279Z" fill="#EBEBEB"/>
<path d="M310.31 46.621L305.777 47.4023L309.134 66.8752L313.667 66.0938L310.31 46.621Z" fill="#EBEBEB"/>
<path d="M268.536 49.7358H263.936V66.8958H268.536V49.7358Z" fill="#EBEBEB"/>
<path d="M279.104 49.7358H274.504V66.8958H279.104V49.7358Z" fill="#EBEBEB"/>
<path d="M305.776 49.7358H301.176V66.8958H305.776V49.7358Z" fill="#EBEBEB"/>
<path d="M291.109 49.1309L286.618 50.1289L290.341 66.8802L294.831 65.8822L291.109 49.1309Z" fill="#EBEBEB"/>
<path d="M272.512 46.144H270.216V66.888H272.512V46.144Z" fill="#EBEBEB"/>
<path d="M299.856 46.144H297.56V66.888H299.856V46.144Z" fill="#EBEBEB"/>
<path d="M347.776 51.248H325.376V66.712H347.776V51.248Z" fill="#EBEBEB"/>
<path d="M253.44 112.272L357.792 112.272V106.912L253.44 106.912V112.272Z" fill="#E0E0E0"/>
<path d="M348.384 106.92H352.984V87.1599H348.384V106.92Z" fill="#EBEBEB"/>
<path d="M326.16 106.92H330.76V87.1599H326.16V106.92Z" fill="#EBEBEB"/>
<path d="M297.571 106.135L302.104 106.916L305.461 87.4432L300.928 86.6618L297.571 106.135Z" fill="#EBEBEB"/>
<path d="M342.688 106.912H347.288V89.7521H342.688V106.912Z" fill="#EBEBEB"/>
<path d="M332.129 106.912H336.729V89.7521H332.129V106.912Z" fill="#EBEBEB"/>
<path d="M305.456 106.912H310.056V89.7521H305.456V106.912Z" fill="#EBEBEB"/>
<path d="M316.412 105.905L320.902 106.903L324.625 90.152L320.135 89.1541L316.412 105.905Z" fill="#EBEBEB"/>
<path d="M338.72 106.912H341.016V86.1681H338.72V106.912Z" fill="#EBEBEB"/>
<path d="M311.376 106.912H313.672V86.1681H311.376V106.912Z" fill="#EBEBEB"/>
<path d="M263.448 106.744H285.848V91.2801H263.448V106.744Z" fill="#EBEBEB"/>
<path d="M42.4004 168.8V262.4H47.2004V178.4H132V262.4H137.6V168.8H42.4004Z" fill="#E0E0E0"/>
<path d="M95.2002 168.8V262.4H100V178.4H184.8V262.4H190.4V168.8H95.2002Z" fill="#F5F5F5"/>
<path d="M125.504 133.92C124.432 132.16 122.672 133.696 122.672 133.696C122.92 130.312 119.816 128.008 119.816 128.008C119.816 128.008 123.424 128.008 123.928 124.56C124.432 121.112 122.672 122.72 121.016 122.696C119.36 122.672 117.632 127.496 119.816 130.216C122 132.936 121.416 137.576 116.376 142.032C115.17 143.159 114.265 144.57 113.744 146.136C114.128 142.04 114.344 136.264 113.136 132.416C111.088 125.864 114.992 124.104 116.12 120.832C117.248 117.56 113.136 114.784 113.136 114.784C113.136 114.784 117.008 113.024 115.112 111.008C113.216 108.992 109.328 109.264 109.328 111.904C109.328 114.544 111.968 115.544 111.968 115.544C111.968 115.544 114.992 118.688 114.992 120.344C114.992 122 111.968 125.504 111.968 125.504C111.968 125.504 113.352 122.488 110.584 122.36C107.816 122.232 106.928 125.88 108.064 127.52C109.2 129.16 111.088 127.768 111.088 127.768C111.204 129.678 111.493 131.574 111.952 133.432C112.232 134.376 112.104 138.072 111.864 141.912C111.338 140.525 110.497 139.279 109.408 138.272C104.376 133.816 103.808 129.176 105.968 126.456C108.128 123.736 106.424 118.912 104.768 118.936C103.112 118.96 101.352 117.336 101.856 120.8C102.36 124.264 105.968 124.248 105.968 124.248C105.968 124.248 102.864 126.552 103.12 129.936C103.12 129.936 101.352 128.4 100.28 130.16C98.3764 133.312 102.8 135.264 103.544 133.712C103.544 133.712 112.936 140.36 110.672 149.928L111.2 150.728C111.128 151.528 111.088 151.968 111.088 151.968L111.824 151.656L112.624 152.888C112.596 154.278 112.668 155.668 112.84 157.048L115.08 153.728C112.816 144.128 122.208 137.512 122.208 137.512C122.984 139.024 127.416 137.072 125.504 133.92Z" fill="#E0E0E0"/>
<path d="M119.816 168.8L116.784 151.448L117.64 146.4H108.096L108.952 151.448L105.928 168.8H119.816Z" fill="#EBEBEB"/>
<path d="M200.001 298.048C285.667 298.048 355.113 293.994 355.113 288.992C355.113 283.991 285.667 279.936 200.001 279.936C114.335 279.936 44.8887 283.991 44.8887 288.992C44.8887 293.994 114.335 298.048 200.001 298.048Z" fill="#F5F5F5"/>
<path d="M240.588 41.8318L215.944 28.5234L198.565 60.7066L223.209 74.0149L240.588 41.8318Z" fill="url(#paint0_linear_208_627)"/>
<path opacity="0.6" d="M240.588 41.8318L215.944 28.5234L198.565 60.7066L223.209 74.0149L240.588 41.8318Z" fill="white"/>
<path d="M234.451 44.4073L217.163 35.0713L216.224 36.81L233.512 46.146L234.451 44.4073Z" fill="url(#paint1_linear_208_627)"/>
<path d="M232.809 47.4542L215.521 38.1182L214.582 39.8568L231.87 49.1929L232.809 47.4542Z" fill="url(#paint2_linear_208_627)"/>
<path d="M231.162 50.4976L213.874 41.1616L212.935 42.9003L230.223 52.2363L231.162 50.4976Z" fill="url(#paint3_linear_208_627)"/>
<path d="M229.512 53.5406L212.224 44.2046L211.285 45.9433L228.573 55.2793L229.512 53.5406Z" fill="url(#paint4_linear_208_627)"/>
<path d="M227.872 56.5806L210.584 47.2446L209.645 48.9833L226.933 58.3193L227.872 56.5806Z" fill="url(#paint5_linear_208_627)"/>
<path d="M226.23 59.6314L208.941 50.2954L208.002 52.0341L225.291 61.3701L226.23 59.6314Z" fill="url(#paint6_linear_208_627)"/>
<path d="M224.59 62.671L207.302 53.335L206.363 55.0736L223.651 64.4096L224.59 62.671Z" fill="url(#paint7_linear_208_627)"/>
<path d="M216.841 62.4254L205.648 56.3813L204.71 58.12L215.902 64.1641L216.841 62.4254Z" fill="url(#paint8_linear_208_627)"/>
<path d="M175.112 42.0721C171.626 41.7152 168.323 40.3326 165.623 38.0989C162.922 35.8653 160.944 32.881 159.94 29.5233C158.935 26.1657 158.949 22.5856 159.979 19.2357C161.009 15.8859 163.009 12.9167 165.727 10.7037C168.445 8.49067 171.757 7.13322 175.247 6.80298C178.736 6.47274 182.244 7.18454 185.329 8.84839C188.413 10.5122 190.935 13.0534 192.576 16.1505C194.216 19.2476 194.901 22.7616 194.544 26.2481C194.06 30.9207 191.742 35.2105 188.099 38.1769C184.457 41.1432 179.786 42.544 175.112 42.0721Z" fill="url(#paint9_linear_208_627)"/>
<path opacity="0.3" d="M178.162 40.5457C187.065 39.8607 193.727 32.088 193.042 23.185C192.357 14.282 184.584 7.61997 175.681 8.30502C166.778 8.99007 160.116 16.7627 160.801 25.6658C161.486 34.5688 169.259 41.2308 178.162 40.5457Z" fill="white"/>
<path d="M182.4 19.1997C180.536 17.8797 177.936 13.3677 177.936 13.3438L176.256 29.6958C176.296 29.3278 174.84 28.9518 173.856 28.8958C171.512 28.6478 169.536 29.7518 169.376 31.2958C169.216 32.8398 170.976 34.3757 173.376 34.6157C175.776 34.8557 177.672 33.7517 177.84 32.1677C177.84 31.9277 177.672 31.6717 177.696 31.4557L178.984 18.8557C179.947 19.9639 181.129 20.8601 182.456 21.4878C184.224 22.2877 184.856 24.7437 184.856 24.7437C184.943 23.688 184.764 22.6274 184.335 21.6589C183.906 20.6904 183.24 19.8449 182.4 19.1997Z" fill="white"/>
<path opacity="0.5" d="M179.919 30.1041C186.171 26.862 189.061 20.0334 186.374 14.8521C183.687 9.67082 176.441 8.09882 170.189 11.341C163.936 14.5831 161.046 21.4117 163.733 26.593C166.42 31.7743 173.667 33.3463 179.919 30.1041Z" fill="white"/>
<path d="M142.231 1.44028L104.156 4.53711L106.475 33.043L144.549 29.9462L142.231 1.44028Z" fill="url(#paint10_linear_208_627)"/>
<path d="M140.538 3.44073L106.251 6.22949L108.261 30.9479L142.548 28.1591L140.538 3.44073Z" fill="url(#paint11_linear_208_627)"/>
<path opacity="0.5" d="M140.538 3.44073L106.251 6.22949L108.261 30.9479L142.548 28.1591L140.538 3.44073Z" fill="white"/>
<path d="M142.272 24.8L142.544 28.16L108.256 30.952L107.28 18.936L113.848 12.168L125.184 21.552L130.416 17.048L142.272 24.8Z" fill="url(#paint12_linear_208_627)"/>
<path opacity="0.3" d="M142.272 24.8L142.544 28.16L108.256 30.952L107.28 18.936L113.848 12.168L125.184 21.552L130.416 17.048L142.272 24.8Z" fill="white"/>
<path d="M135.352 10.4001C135.396 10.9457 135.278 11.4921 135.011 11.9703C134.745 12.4484 134.343 12.8369 133.855 13.0865C133.368 13.336 132.818 13.4356 132.274 13.3726C131.731 13.3095 131.218 13.0866 130.801 12.7322C130.384 12.3777 130.081 11.9075 129.931 11.3811C129.781 10.8547 129.791 10.2956 129.958 9.77456C130.126 9.25354 130.445 8.79396 130.874 8.45392C131.303 8.11387 131.823 7.90863 132.368 7.86414C132.731 7.83458 133.095 7.87674 133.442 7.98821C133.788 8.09968 134.109 8.27828 134.386 8.51379C134.663 8.74931 134.891 9.03713 135.057 9.36079C135.223 9.68446 135.323 10.0376 135.352 10.4001Z" fill="url(#paint13_linear_208_627)"/>
<path opacity="0.3" d="M135.352 10.4001C135.396 10.9457 135.278 11.4921 135.011 11.9703C134.745 12.4484 134.343 12.8369 133.855 13.0865C133.368 13.336 132.818 13.4356 132.274 13.3726C131.731 13.3095 131.218 13.0866 130.801 12.7322C130.384 12.3777 130.081 11.9075 129.931 11.3811C129.781 10.8547 129.791 10.2956 129.958 9.77456C130.126 9.25354 130.445 8.79396 130.874 8.45392C131.303 8.11387 131.823 7.90863 132.368 7.86414C132.731 7.83458 133.095 7.87674 133.442 7.98821C133.788 8.09968 134.109 8.27828 134.386 8.51379C134.663 8.74931 134.891 9.03713 135.057 9.36079C135.223 9.68446 135.323 10.0376 135.352 10.4001Z" fill="white"/>
<path d="M69.1118 35.0957L67.6398 34.1917C67.3788 34.0304 67.0836 33.9326 66.7779 33.9062C66.4722 33.8798 66.1646 33.9256 65.8798 34.0397L59.3438 36.7997C59.0691 36.9114 58.828 37.0925 58.6443 37.3253C58.4606 37.5581 58.3405 37.8346 58.2958 38.1277L58.0558 39.7277C58.0152 40.0203 57.8975 40.2967 57.7147 40.5287C57.5319 40.7606 57.2907 40.9398 57.0158 41.0477L53.1118 42.6477C52.8888 42.7383 52.6873 42.8747 52.5204 43.048C52.3534 43.2213 52.2246 43.4277 52.1425 43.654C52.0603 43.8802 52.0265 44.1211 52.0432 44.3612C52.06 44.6013 52.127 44.8352 52.2398 45.0477L62.6398 66.3597C62.8597 66.8014 63.2375 67.1444 63.6983 67.3207C64.1591 67.497 64.6693 67.4938 65.1278 67.3117L96.0558 54.3997C96.2803 54.311 96.4835 54.1758 96.6521 54.003C96.8206 53.8301 96.9507 53.6236 97.0338 53.397C97.1169 53.1704 97.1511 52.9287 97.1342 52.6879C97.1174 52.4471 97.0497 52.2126 96.9358 51.9997L86.5358 30.6957C86.3173 30.2526 85.9401 29.9079 85.4792 29.7301C85.0183 29.5522 84.5073 29.5543 84.0478 29.7357L70.8718 35.2477C70.587 35.3619 70.2794 35.4077 69.9737 35.3813C69.668 35.3549 69.3728 35.2571 69.1118 35.0957Z" fill="url(#paint14_linear_208_627)"/>
<path d="M87.9997 30.5281L59.6717 42.4001C59.0939 42.6499 58.6281 43.1033 58.3626 43.6741C58.0971 44.2448 58.0505 44.8932 58.2317 45.4961L64.4317 65.1201C64.519 65.4013 64.665 65.6608 64.8602 65.8814C65.0553 66.1019 65.295 66.2786 65.5634 66.3996C65.8319 66.5206 66.123 66.5832 66.4175 66.5833C66.712 66.5833 67.0031 66.5209 67.2717 66.4001L95.6077 54.5441C96.1832 54.2914 96.6468 53.8377 96.9119 53.2678C97.177 52.6979 97.2252 52.051 97.0477 51.4481L90.8397 31.8241C90.7552 31.5406 90.6111 31.2786 90.417 31.0555C90.2228 30.8325 89.9832 30.6535 89.7142 30.5307C89.4451 30.408 89.1529 30.3442 88.8572 30.3438C88.5615 30.3433 88.2691 30.4061 87.9997 30.5281Z" fill="url(#paint15_linear_208_627)"/>
<path opacity="0.5" d="M87.9997 30.5281L59.6717 42.4001C59.0939 42.6499 58.6281 43.1033 58.3626 43.6741C58.0971 44.2448 58.0505 44.8932 58.2317 45.4961L64.4317 65.1201C64.519 65.4013 64.665 65.6608 64.8602 65.8814C65.0553 66.1019 65.295 66.2786 65.5634 66.3996C65.8319 66.5206 66.123 66.5832 66.4175 66.5833C66.712 66.5833 67.0031 66.5209 67.2717 66.4001L95.6077 54.5441C96.1832 54.2914 96.6468 53.8377 96.9119 53.2678C97.177 52.6979 97.2252 52.051 97.0477 51.4481L90.8397 31.8241C90.7552 31.5406 90.6111 31.2786 90.417 31.0555C90.2228 30.8325 89.9832 30.6535 89.7142 30.5307C89.4451 30.408 89.1529 30.3442 88.8572 30.3438C88.5615 30.3433 88.2691 30.4061 87.9997 30.5281Z" fill="white"/>
<path d="M190.784 77.6001C191.135 75.9486 191.312 74.2647 191.312 72.5761C191.312 69.4433 190.695 66.3412 189.496 63.4468C188.297 60.5525 186.54 57.9226 184.325 55.7074C182.109 53.4922 179.48 51.7349 176.585 50.5361C173.691 49.3372 170.589 48.7201 167.456 48.7201C165.977 48.7217 164.502 48.8582 163.048 49.1281C162.44 49.0161 161.824 49.1281 161.192 49.0561C158.944 44.1706 155.333 40.0379 150.793 37.1544C146.253 34.2708 140.978 32.7588 135.6 32.8001H126.8C123.117 32.7822 119.466 33.4912 116.058 34.8863C112.649 36.2814 109.549 38.3353 106.936 40.9303C104.322 43.5254 102.246 46.6106 100.827 50.0092C99.4072 53.4078 98.6723 57.053 98.6639 60.7361C98.6639 60.9441 98.6639 61.0481 98.6639 61.2561C92.8442 62.284 87.6236 65.4621 84.038 70.16C80.4525 74.8578 78.7641 80.7319 79.308 86.6166C79.8519 92.5013 82.5882 97.9665 86.9739 101.928C91.3597 105.889 97.0744 108.056 102.984 108H189.384C193.415 108.184 197.354 106.758 200.335 104.037C203.315 101.317 205.092 97.5234 205.276 93.4921C205.459 89.4609 204.034 85.5218 201.313 82.5414C198.592 79.5611 194.799 77.7837 190.768 77.6001H190.784Z" fill="url(#paint16_linear_208_627)"/>
<path opacity="0.5" d="M190.784 77.6001C191.135 75.9486 191.312 74.2647 191.312 72.5761C191.312 69.4433 190.695 66.3412 189.496 63.4468C188.297 60.5525 186.54 57.9226 184.325 55.7074C182.109 53.4922 179.48 51.7349 176.585 50.5361C173.691 49.3372 170.589 48.7201 167.456 48.7201C165.977 48.7217 164.502 48.8582 163.048 49.1281C162.44 49.0161 161.824 49.1281 161.192 49.0561C158.944 44.1706 155.333 40.0379 150.793 37.1544C146.253 34.2708 140.978 32.7588 135.6 32.8001H126.8C123.117 32.7822 119.466 33.4912 116.058 34.8863C112.649 36.2814 109.549 38.3353 106.936 40.9303C104.322 43.5254 102.246 46.6106 100.827 50.0092C99.4072 53.4078 98.6723 57.053 98.6639 60.7361C98.6639 60.9441 98.6639 61.0481 98.6639 61.2561C92.8442 62.284 87.6236 65.4621 84.038 70.16C80.4525 74.8578 78.7641 80.7319 79.308 86.6166C79.8519 92.5013 82.5882 97.9665 86.9739 101.928C91.3597 105.889 97.0744 108.056 102.984 108H189.384C193.415 108.184 197.354 106.758 200.335 104.037C203.315 101.317 205.092 97.5234 205.276 93.4921C205.459 89.4609 204.034 85.5218 201.313 82.5414C198.592 79.5611 194.799 77.7837 190.768 77.6001H190.784Z" fill="white"/>
<path opacity="0.4" d="M190.784 77.6001C191.135 75.9486 191.312 74.2647 191.312 72.5761C191.312 69.4433 190.695 66.3412 189.496 63.4468C188.297 60.5525 186.54 57.9226 184.324 55.7074C182.109 53.4922 179.479 51.7349 176.585 50.5361C173.691 49.3372 170.589 48.7201 167.456 48.7201C165.977 48.7217 164.502 48.8582 163.048 49.1281C162.44 49.0161 161.824 49.1281 161.192 49.0561C158.943 44.1706 155.332 40.0379 150.793 37.1544C146.253 34.2708 140.978 32.7588 135.6 32.8001C131.917 32.7822 128.266 33.4912 124.858 34.8863C121.449 36.2814 118.349 38.3353 115.735 40.9303C113.122 43.5254 111.046 46.6106 109.626 50.0092C108.207 53.4078 107.472 57.053 107.464 60.7361C107.464 60.9441 107.464 61.0481 107.464 61.2561C101.644 62.284 96.4234 65.4621 92.8378 70.16C89.2523 74.8578 87.564 80.7319 88.1078 86.6166C88.6517 92.5013 91.388 97.9665 95.7737 101.928C100.16 105.889 105.874 108.056 111.784 108H189.384C193.415 108.184 197.354 106.758 200.334 104.037C203.315 101.317 205.092 97.5234 205.276 93.4921C205.459 89.4609 204.034 85.5218 201.313 82.5414C198.592 79.5611 194.799 77.7837 190.768 77.6001H190.784Z" fill="white"/>
<path d="M214.136 147.2H187.2C176.595 147.187 166.429 142.969 158.93 135.47C151.431 127.972 147.213 117.805 147.2 107.2V99.2002H139.2V107.2C139.215 119.926 144.277 132.126 153.275 141.125C162.274 150.123 174.474 155.185 187.2 155.2H214.136V147.2Z" fill="url(#paint17_linear_208_627)"/>
<path d="M143.104 93.8721L136.168 100.8H150.032L143.104 93.8721Z" fill="url(#paint18_linear_208_627)"/>
<path d="M83.423 249.864L78.623 235.2C80.9903 233.18 83.7784 231.713 86.7843 230.906C89.7902 230.099 92.9382 229.973 95.999 230.536L99.999 244.264L83.423 249.864Z" fill="url(#paint19_linear_208_627)"/>
<path opacity="0.7" d="M83.423 249.864L78.623 235.2C80.9903 233.18 83.7784 231.713 86.7843 230.906C89.7902 230.099 92.9382 229.973 95.999 230.536L99.999 244.264L83.423 249.864Z" fill="white"/>
<g opacity="0.2">
<path d="M80.9111 238.664C81.4841 238.024 82.1192 237.443 82.8071 236.928C83.5094 236.386 84.253 235.899 85.0311 235.472C85.4551 235.248 85.9031 235.008 86.3751 234.8C86.8471 234.592 87.3191 234.392 87.8231 234.24C88.3139 234.075 88.8133 233.936 89.3191 233.824L90.0631 233.656L90.8071 233.568C91.0471 233.568 91.2871 233.496 91.5191 233.48H92.2071C92.6288 233.456 93.0518 233.47 93.4711 233.52C93.8551 233.56 94.2071 233.592 94.5191 233.648L95.3191 233.832L95.9991 234.008C95.9991 234.008 95.7351 234.008 95.2951 234.008L94.4951 233.968H93.4551C93.051 233.978 92.6478 234.01 92.2471 234.064C91.7983 234.105 91.3523 234.172 90.9111 234.264L90.2071 234.392L89.5031 234.576C89.0209 234.691 88.5454 234.832 88.0791 235C87.5911 235.128 87.1351 235.344 86.6711 235.512C86.2071 235.68 85.7751 235.896 85.3511 236.096C84.9271 236.296 84.5511 236.496 84.1351 236.712C83.7191 236.928 83.3911 237.112 83.0631 237.304C82.4071 237.688 81.8631 238.016 81.4631 238.272L80.9111 238.664Z" fill="black"/>
<path d="M81.335 240C81.335 240 81.519 239.84 81.871 239.592C82.223 239.344 82.719 238.984 83.351 238.616C84.0685 238.183 84.8082 237.788 85.567 237.432C86.367 237.032 87.319 236.68 88.239 236.344C88.711 236.208 89.183 236.048 89.647 235.92C90.111 235.792 90.583 235.68 91.039 235.608C91.495 235.536 91.935 235.432 92.359 235.4C92.783 235.368 93.159 235.312 93.551 235.304C94.1437 235.287 94.737 235.308 95.327 235.368L95.999 235.448C95.999 235.448 95.751 235.488 95.327 235.528C95.119 235.528 94.863 235.528 94.575 235.608L93.599 235.76C93.239 235.816 92.863 235.92 92.455 235.992C92.047 236.064 91.655 236.2 91.199 236.296C90.743 236.392 90.319 236.552 89.863 236.664C89.407 236.776 88.959 236.96 88.503 237.104C86.679 237.712 84.895 238.448 83.559 239.016C82.895 239.312 82.327 239.536 81.959 239.72L81.335 240Z" fill="black"/>
<path d="M82.4629 242.736C82.6194 242.58 82.785 242.433 82.9589 242.296C83.2789 242.032 83.7589 241.656 84.3349 241.248C85.0105 240.783 85.7131 240.358 86.4389 239.976C87.2692 239.53 88.1269 239.137 89.0069 238.8C89.8925 238.466 90.8017 238.199 91.7269 238C92.1548 237.911 92.5875 237.847 93.0229 237.808C93.4389 237.808 93.8229 237.72 94.1909 237.728L95.1749 237.768C95.4709 237.768 95.7189 237.84 95.9269 237.864L96.5749 237.976C96.5749 237.976 96.3349 237.976 95.9189 238.016C95.7109 238.016 95.4629 238.016 95.1829 238.064L94.2229 238.192C93.8789 238.232 93.5109 238.328 93.1109 238.392C92.7109 238.456 92.3109 238.6 91.8869 238.688C91.4629 238.776 91.0389 238.952 90.5989 239.072C90.1589 239.192 89.7269 239.376 89.2869 239.528C88.8469 239.68 88.4149 239.856 87.9909 240.04C87.5669 240.224 87.1429 240.384 86.7509 240.576C85.9509 240.936 85.2069 241.304 84.5749 241.616C83.9429 241.928 83.4069 242.2 83.0469 242.416L82.4629 242.736Z" fill="black"/>
<path d="M83.1348 244.6C83.6891 244.051 84.2915 243.553 84.9348 243.112C85.5946 242.656 86.2841 242.244 86.9988 241.88C87.3988 241.688 87.7988 241.496 88.2388 241.32C88.6788 241.144 89.1108 240.976 89.5668 240.848C90.0164 240.707 90.473 240.59 90.9348 240.496C91.3801 240.394 91.8318 240.322 92.2868 240.28C92.7111 240.225 93.1389 240.201 93.5668 240.208C93.9461 240.195 94.3259 240.211 94.7028 240.256L95.6628 240.384L96.3828 240.56C96.7748 240.664 96.9988 240.736 96.9988 240.736C96.9988 240.736 96.7588 240.736 96.3588 240.736H95.6308H94.6948C94.3285 240.735 93.9625 240.756 93.5988 240.8C93.1908 240.835 92.7849 240.891 92.3828 240.968C91.9668 241.024 91.5828 241.144 91.1028 241.24C90.6228 241.336 90.2388 241.472 89.8068 241.6C88.9538 241.859 88.1153 242.164 87.2948 242.512C86.4948 242.848 85.7828 243.192 85.1668 243.496C84.5508 243.8 84.0388 244.072 83.6868 244.296L83.1348 244.6Z" fill="black"/>
<path d="M84.0625 247.096C84.2111 246.94 84.3687 246.793 84.5345 246.656C84.8465 246.392 85.2865 246.016 85.8545 245.608C86.5026 245.143 87.1785 244.718 87.8785 244.336C88.2545 244.12 88.6785 243.912 89.0785 243.72C89.4785 243.528 89.9345 243.36 90.3665 243.168C90.7985 242.976 91.2545 242.864 91.6945 242.728C92.1345 242.592 92.5825 242.496 93.0225 242.416C93.438 242.338 93.8572 242.282 94.2785 242.248C94.6865 242.248 95.0785 242.184 95.4225 242.2L96.3825 242.264C96.6625 242.264 96.9105 242.36 97.1105 242.392L97.7345 242.536H97.0945C96.8945 242.536 96.6465 242.536 96.3745 242.536L95.4465 242.624C95.1105 242.664 94.7425 242.752 94.3665 242.8C93.9905 242.848 93.5665 242.992 93.1745 243.072C92.7825 243.152 92.3745 243.328 91.9185 243.44C91.4625 243.552 91.0705 243.728 90.6465 243.888C90.2225 244.048 89.7985 244.208 89.3905 244.392C88.9825 244.576 88.5905 244.736 88.1905 244.928C87.3905 245.288 86.7105 245.656 86.0945 245.968C85.4785 246.28 84.9665 246.544 84.6225 246.768L84.0625 247.096Z" fill="black"/>
</g>
<path d="M81.3433 249.968L91.1993 242.496C91.3195 242.404 91.458 242.338 91.6057 242.304C91.7533 242.269 91.9066 242.267 92.0553 242.296L103.311 244.432C103.532 244.473 103.734 244.581 103.891 244.742C104.047 244.902 104.15 245.108 104.184 245.329C104.218 245.551 104.183 245.778 104.082 245.978C103.982 246.179 103.821 246.343 103.623 246.448L94.3353 251.48C94.1839 251.558 94.0173 251.602 93.8473 251.608L82.0073 251.912C81.7793 251.916 81.556 251.847 81.3695 251.716C81.183 251.584 81.0428 251.397 80.9691 251.182C80.8954 250.966 80.8919 250.732 80.9591 250.514C81.0263 250.296 81.1608 250.105 81.3433 249.968Z" fill="url(#paint20_linear_208_627)"/>
<path d="M99.1113 254.4C99.1113 254.4 114.263 217.736 116.935 215.464C119.607 213.192 136.535 223.04 136.535 223.04L121.463 261.736L99.1113 254.4Z" fill="url(#paint21_linear_208_627)"/>
<path opacity="0.2" d="M103.463 254.136C103.463 254.136 117.975 219.112 120.135 217.6C122.295 216.088 134.663 222.536 134.663 222.536C134.663 222.536 121.775 214.664 117.823 216C113.871 217.336 100.399 253.336 100.399 253.336L103.463 254.136Z" fill="black"/>
<path d="M133.999 250.8H69.6475V288.8H133.999V250.8Z" fill="#263238"/>
<path opacity="0.2" d="M133.999 250.8H69.6475V288.8H133.999V250.8Z" fill="white"/>
<path opacity="0.4" d="M134 250.8H94.0479V288.8H134V250.8Z" fill="white"/>
<path d="M94.0479 251.2L109.2 239L143 241.304L134 251.2H94.0479Z" fill="#263238"/>
<path d="M94.0474 251.2L82.5994 238L58.3994 240.6L69.6474 250.8L94.0474 251.2Z" fill="#263238"/>
<path opacity="0.1" d="M94.0474 251.2L82.5994 238L58.3994 240.6L69.6474 250.8L94.0474 251.2Z" fill="white"/>
<path opacity="0.4" d="M94.0479 251.2L109.2 239L143 241.304L134 251.2H94.0479Z" fill="white"/>
<path d="M121.816 268.288C119.794 268.288 117.817 268.888 116.136 270.011C114.454 271.135 113.144 272.731 112.37 274.6C111.596 276.468 111.394 278.523 111.788 280.507C112.183 282.49 113.156 284.312 114.586 285.742C116.016 287.171 117.838 288.145 119.821 288.54C121.804 288.934 123.86 288.732 125.728 287.958C127.597 287.184 129.193 285.874 130.317 284.192C131.44 282.511 132.04 280.534 132.04 278.512C132.04 275.801 130.963 273.2 129.045 271.283C127.128 269.365 124.527 268.288 121.816 268.288ZM121.816 282.584C121.009 282.584 120.219 282.345 119.548 281.896C118.877 281.447 118.354 280.81 118.046 280.064C117.737 279.318 117.657 278.497 117.815 277.705C117.973 276.914 118.362 276.187 118.934 275.616C119.505 275.046 120.233 274.658 121.025 274.502C121.817 274.345 122.637 274.427 123.383 274.737C124.128 275.047 124.765 275.571 125.212 276.243C125.659 276.915 125.897 277.705 125.896 278.512C125.896 279.048 125.79 279.578 125.585 280.072C125.38 280.567 125.079 281.016 124.7 281.394C124.321 281.772 123.872 282.072 123.377 282.276C122.882 282.481 122.351 282.585 121.816 282.584Z" fill="url(#paint22_linear_208_627)"/>
<path opacity="0.7" d="M131.032 274.072C130.847 273.694 130.639 273.328 130.408 272.977C130.108 272.501 129.766 272.053 129.384 271.64C127.637 269.704 125.209 268.517 122.608 268.329C122.342 268.299 122.075 268.286 121.808 268.288C120.255 268.291 118.723 268.647 117.329 269.329C115.934 270.011 114.713 271.002 113.758 272.226C112.803 273.451 112.139 274.876 111.816 276.395C111.493 277.914 111.521 279.486 111.896 280.992C111.991 281.385 112.114 281.77 112.264 282.144C112.478 282.703 112.746 283.238 113.064 283.744C113.893 285.129 115.039 286.297 116.408 287.152C117.776 288.007 119.328 288.526 120.936 288.664C121.232 288.664 121.528 288.705 121.824 288.705C123.553 288.703 125.253 288.263 126.766 287.426C128.279 286.589 129.555 285.383 130.476 283.919C131.396 282.456 131.93 280.783 132.029 279.057C132.128 277.33 131.787 275.607 131.04 274.048L131.032 274.072ZM121.816 282.585C121.688 282.592 121.56 282.592 121.432 282.585C120.693 282.517 119.986 282.247 119.39 281.806C118.793 281.364 118.329 280.768 118.048 280.081C117.953 279.847 117.878 279.606 117.824 279.361C117.797 279.207 117.778 279.052 117.768 278.896C117.76 278.777 117.76 278.656 117.768 278.537C117.767 278.001 117.871 277.471 118.076 276.976C118.28 276.481 118.579 276.031 118.958 275.652C119.336 275.273 119.785 274.972 120.28 274.767C120.774 274.562 121.304 274.457 121.84 274.457C121.936 274.449 122.032 274.449 122.128 274.457C122.968 274.509 123.77 274.822 124.424 275.353C124.585 275.487 124.735 275.634 124.872 275.792C124.99 275.919 125.097 276.056 125.192 276.2C125.669 276.88 125.924 277.69 125.92 278.52C125.919 279.057 125.812 279.589 125.605 280.084C125.397 280.579 125.094 281.028 124.713 281.406C124.332 281.784 123.879 282.082 123.382 282.285C122.885 282.487 122.353 282.589 121.816 282.585Z" fill="white"/>
<path opacity="0.2" d="M121.432 282.56L120.928 288.688C119.32 288.549 117.768 288.031 116.4 287.176C115.031 286.32 113.885 285.152 113.056 283.768L118.048 280.056C118.329 280.743 118.793 281.34 119.389 281.782C119.986 282.223 120.692 282.492 121.432 282.56Z" fill="white"/>
<path opacity="0.2" d="M129.384 271.64L124.4 275.344C123.746 274.814 122.943 274.501 122.104 274.448L122.608 268.328C125.209 268.517 127.636 269.704 129.384 271.64Z" fill="white"/>
<path opacity="0.2" d="M117.823 279.337L112.271 282.145C112.121 281.77 111.998 281.385 111.903 280.993L117.767 278.873C117.778 279.028 117.796 279.183 117.823 279.337Z" fill="white"/>
<path opacity="0.2" d="M131.032 274.072L125.168 276.192C125.073 276.047 124.965 275.911 124.848 275.784L130.408 272.976C130.639 273.328 130.847 273.694 131.032 274.072Z" fill="white"/>
<path d="M129.28 271.128C123.68 271.128 120.616 275.072 122.536 279.928C124.456 284.784 130.576 288.728 136.216 288.728C141.856 288.728 144.888 284.792 142.968 279.928C141.048 275.064 134.928 271.128 129.28 271.128ZM134.136 283.44C132.991 283.415 131.875 283.074 130.912 282.454C129.949 281.834 129.177 280.96 128.68 279.928C127.88 277.992 129.12 276.416 131.368 276.416C132.512 276.443 133.627 276.786 134.589 277.405C135.552 278.025 136.325 278.898 136.824 279.928C137.6 281.864 136.384 283.44 134.136 283.44Z" fill="url(#paint23_linear_208_627)"/>
<path opacity="0.1" d="M140.455 276.104C140.143 275.784 139.815 275.464 139.463 275.16C138.996 274.747 138.501 274.365 137.983 274.016C135.655 272.374 132.928 271.387 130.087 271.16C129.807 271.16 129.543 271.16 129.287 271.16C123.687 271.16 120.623 275.096 122.543 279.96C122.84 280.714 123.224 281.431 123.687 282.096C123.932 282.444 124.199 282.776 124.487 283.088C124.897 283.588 125.344 284.056 125.823 284.488C128.452 286.907 131.802 288.397 135.359 288.728C135.663 288.728 135.967 288.728 136.263 288.728C141.911 288.728 144.935 284.784 143.023 279.928C142.42 278.501 141.548 277.203 140.455 276.104ZM134.127 283.44H133.735C132.105 283.279 130.594 282.511 129.503 281.288C129.332 281.093 129.177 280.884 129.039 280.664C128.96 280.535 128.887 280.402 128.823 280.264C128.769 280.163 128.721 280.059 128.679 279.952C127.879 278.008 129.119 276.44 131.367 276.44C131.463 276.432 131.56 276.432 131.655 276.44C132.571 276.509 133.459 276.783 134.255 277.24C134.463 277.356 134.663 277.484 134.855 277.624C135.016 277.73 135.168 277.848 135.311 277.976C135.978 278.501 136.501 279.186 136.831 279.968C137.599 281.864 136.383 283.44 134.127 283.44Z" fill="white"/>
<path opacity="0.2" d="M133.736 283.416L135.336 288.696C131.779 288.365 128.429 286.875 125.8 284.456L129.528 281.256C130.611 282.477 132.112 283.248 133.736 283.416Z" fill="white"/>
<path opacity="0.2" d="M137.984 274.017L134.256 277.217C133.46 276.759 132.571 276.486 131.656 276.417L130.056 271.145C132.909 271.371 135.648 272.363 137.984 274.017Z" fill="white"/>
<path opacity="0.2" d="M129.04 280.64L124.44 283.04C124.151 282.728 123.884 282.396 123.64 282.048L128.8 280.24C128.872 280.378 128.952 280.512 129.04 280.64Z" fill="white"/>
<path opacity="0.2" d="M140.455 276.105L135.311 277.937C135.168 277.808 135.016 277.69 134.855 277.585L139.463 275.185C139.815 275.465 140.143 275.785 140.455 276.105Z" fill="white"/>
<path d="M297.921 220L298.209 232.456L299.521 288.8H303.849L305.153 232.456L305.441 220H297.921Z" fill="url(#paint24_linear_208_627)"/>
<path opacity="0.4" d="M297.921 220L298.209 232.456L299.521 288.8H303.849L305.153 232.456L305.441 220H297.921Z" fill="white"/>
<path opacity="0.2" d="M297.921 220L298.209 232.8H305.153L305.441 220H297.921Z" fill="black"/>
<path d="M274.416 288.599L278.416 220.879H284.952L279.352 288.599H274.416Z" fill="url(#paint25_linear_208_627)"/>
<path opacity="0.5" d="M279.369 288.6H274.425L278.057 226.96L278.417 220.8H284.953L284.449 226.96L279.369 288.6Z" fill="white"/>
<path opacity="0.2" d="M284.953 220.8L284.449 227.2H278.057L278.417 220.8H284.953Z" fill="black"/>
<path d="M324.016 288.599L318.416 220.879H324.952L328.952 288.599H324.016Z" fill="url(#paint26_linear_208_627)"/>
<path opacity="0.5" d="M324 288.6L318.92 226.96L318.416 220.8H324.952L325.312 226.96L328.944 288.6H324Z" fill="white"/>
<path opacity="0.2" d="M318.416 220.8L318.92 227.2H325.312L324.952 220.8H318.416Z" fill="black"/>
<path d="M328.448 223.224H274.912V217.888C274.912 216.827 275.334 215.809 276.084 215.059C276.834 214.309 277.851 213.888 278.912 213.888H324.448C325.509 213.888 326.527 214.309 327.277 215.059C328.027 215.809 328.448 216.827 328.448 217.888V223.24V223.224Z" fill="url(#paint27_linear_208_627)"/>
<path d="M273.961 223.216H329.409C330.297 223.216 331.017 222.496 331.017 221.608V220.152C331.017 219.264 330.297 218.544 329.409 218.544H273.961C273.073 218.544 272.353 219.264 272.353 220.152V221.608C272.353 222.496 273.073 223.216 273.961 223.216Z" fill="url(#paint28_linear_208_627)"/>
<path opacity="0.6" d="M273.961 223.216H329.409C330.297 223.216 331.017 222.496 331.017 221.608V220.152C331.017 219.264 330.297 218.544 329.409 218.544H273.961C273.073 218.544 272.353 219.264 272.353 220.152V221.608C272.353 222.496 273.073 223.216 273.961 223.216Z" fill="white"/>
<path d="M282.473 138C282.473 138 282.249 138.608 281.841 139.6C281.433 140.592 280.809 142.104 280.049 143.752C278.209 147.752 275.537 152.84 272.745 155.584C272.044 156.322 271.2 156.91 270.265 157.312C267.289 158.456 259.825 158.664 253.161 158.6C246.497 158.536 240.801 158.2 240.801 158.2V153.152L262.713 147.312C262.713 147.312 274.265 126.464 281.113 123.376L282.473 138Z" fill="#263238"/>
<path opacity="0.2" d="M281.84 139.608C281.424 140.648 280.808 142.112 280.048 143.76C278.208 147.76 275.536 152.848 272.744 155.592C269.904 145.128 280.408 135.168 280.408 135.168L281.84 139.608Z" fill="black"/>
<path d="M279.009 283.024L272.633 282.152L271.753 267L278.113 267.88L279.009 283.024Z" fill="#EBB376"/>
<path opacity="0.2" d="M278.113 267.88L271.753 267.008L272.257 275.664L278.617 276.224L278.113 267.88Z" fill="black"/>
<path d="M278.752 193.968L280.304 184.224L316 182.088C316 182.088 319.8 202.36 316.88 207.76C311.672 217.4 283.592 212.56 275.368 213.48C280.312 233.6 279.832 272.8 279.832 272.8L268.096 273.696C268.096 273.696 259.072 231.4 257.24 211.296C256 197.76 267.248 198.096 278.752 193.968Z" fill="url(#paint29_linear_208_627)"/>
<path d="M281.208 273.384L267.104 274.304L265.896 268.264L281.392 267.552L281.208 273.384Z" fill="url(#paint30_linear_208_627)"/>
<path d="M264.304 277.368L257.888 277.84L253.872 263.208L260.28 262.744L264.304 277.368Z" fill="#EBB376"/>
<path d="M257.024 278.056H256.912C256.912 277.96 256.584 276.16 255.808 275.736C255.709 275.687 255.599 275.661 255.488 275.661C255.377 275.661 255.268 275.687 255.168 275.736C255.046 275.774 254.941 275.853 254.869 275.959C254.798 276.065 254.765 276.193 254.776 276.32C254.932 276.851 255.265 277.311 255.72 277.624C255.137 277.424 254.501 277.441 253.928 277.672C253.851 277.73 253.79 277.807 253.751 277.895C253.712 277.983 253.696 278.08 253.704 278.176C253.694 278.327 253.727 278.478 253.799 278.611C253.872 278.744 253.98 278.854 254.112 278.928C254.514 279.084 254.959 279.084 255.36 278.928C255.917 278.763 256.453 278.538 256.96 278.256H257.016C257.016 278.256 257.016 278.256 257.016 278.208C257.034 278.187 257.044 278.161 257.045 278.133C257.047 278.106 257.039 278.079 257.024 278.056ZM255.096 276.264C255.096 276.176 255.096 276.064 255.312 275.984H255.384C255.441 275.965 255.501 275.958 255.561 275.965C255.62 275.972 255.678 275.992 255.728 276.024C256.192 276.272 256.528 277.248 256.664 277.832L256.52 277.792C255.888 277.416 255.152 276.696 255.096 276.264ZM254.256 278.616C254.177 278.562 254.113 278.489 254.07 278.404C254.026 278.319 254.005 278.224 254.008 278.128C254.004 278.081 254.012 278.034 254.03 277.991C254.048 277.948 254.076 277.91 254.112 277.88C254.48 277.608 255.648 277.84 256.512 278.096C255.448 278.624 254.632 278.816 254.256 278.616Z" fill="url(#paint31_linear_208_627)"/>
<path opacity="0.2" d="M260.28 262.744L253.872 263.216L256.168 271.576L262.504 270.8L260.28 262.744Z" fill="black"/>
<path d="M251.697 270.544L262.993 267.2C262.993 267.2 256.249 229.136 249.393 215.936C249.905 215.768 250.585 215.552 251.425 215.304C252.937 214.848 254.945 214.28 257.305 213.624C273.721 209.072 306.993 200.536 306.993 200.536L291.793 186.352C291.793 186.352 231.249 195.584 229.993 211.536C229.409 219.2 251.697 270.544 251.697 270.544Z" fill="url(#paint32_linear_208_627)"/>
<path d="M264.448 267.472L250.848 271.32L248.408 265.664L263.416 261.736L264.448 267.472Z" fill="url(#paint33_linear_208_627)"/>
<path opacity="0.2" d="M251.44 215.328C252.952 214.872 254.96 214.304 257.32 213.648C256.848 209.776 256.841 205.336 258.705 203.072C262.409 198.56 271.937 195.912 277.361 194.952C281.897 194.152 297.137 192.552 297.137 192.552C297.137 192.552 277.361 190.656 257.137 196.552C247.153 199.48 249.096 209.248 251.44 215.328Z" fill="black"/>
<path d="M318.016 192.272C320.416 190.44 318.112 173.4 319.336 156.64C321.2 131.12 319.336 122.92 317.456 122.128C313.985 121.526 310.474 121.178 306.952 121.088C301.801 120.904 296.643 121.016 291.504 121.424C287.988 121.855 284.51 122.561 281.104 123.536C281.104 123.536 272.688 150.336 278.064 188.936L318.016 192.272Z" fill="#263238"/>
<path opacity="0.8" d="M320 143.504C319.896 147.256 319.672 151.608 319.304 156.632C318.08 173.392 320.368 190.432 317.984 192.264L278.024 188.928C275.638 172.173 275.625 155.166 277.984 138.408C281.232 133.336 287.536 127.552 290.432 125.016C291.393 126.069 292.698 126.747 294.112 126.928C297.224 127.536 300.776 126.128 303.712 124.336C306.032 126.648 310.432 131.328 312.36 135.272C312.561 135.681 312.74 136.1 312.896 136.528C314.12 139.952 317.856 135.728 319.76 130.224C320.087 134.643 320.167 139.076 320 143.504Z" fill="white"/>
<path d="M305.057 103.768C304.185 108.76 303.409 117.88 306.953 121.128C305.514 122.673 303.784 123.918 301.861 124.791C299.939 125.665 297.863 126.149 295.753 126.216C289.353 126.496 291.513 121.416 291.513 121.416C297.033 119.976 296.793 115.864 295.745 112.024L305.057 103.768Z" fill="#EBB376"/>
<path opacity="0.2" d="M301.256 107.152L295.744 112.064C296.002 112.956 296.182 113.869 296.28 114.792C298.392 114.448 301.248 112.056 301.432 109.832C301.538 108.935 301.478 108.027 301.256 107.152Z" fill="black"/>
<path d="M292.953 90.8481C295.713 92.7201 294.457 95.8881 288.217 100.856C285.689 97.6001 285.265 91.2001 287.281 89.6001C289.297 88.0001 290.553 89.2241 292.953 90.8481Z" fill="#263238"/>
<path d="M304.8 96.0002C304.504 102.744 304.664 106.696 301.328 110.216C296.304 115.504 287.936 112.56 286.216 105.864C284.68 99.8482 285.416 89.8642 291.968 87.0402C293.408 86.4164 294.983 86.1713 296.544 86.3284C298.105 86.4855 299.599 87.0395 300.886 87.9377C302.172 88.8358 303.207 90.0482 303.892 91.4595C304.577 92.8708 304.89 94.4339 304.8 96.0002Z" fill="#EBB376"/>
<path d="M294.792 98C294.792 98.552 294.52 99 294.16 99.008C293.8 99.016 293.512 98.576 293.504 98.024C293.496 97.472 293.768 97.032 294.128 97.024C294.488 97.016 294.744 97.464 294.792 98Z" fill="#263238"/>
<path d="M288.561 98.1197C288.561 98.6637 288.289 99.1117 287.929 99.1197C287.569 99.1277 287.273 98.6957 287.265 98.1357C287.257 97.5757 287.537 97.1357 287.897 97.1357C288.257 97.1357 288.553 97.5997 288.561 98.1197Z" fill="#263238"/>
<path d="M290.6 98.3438C289.977 100.029 289.123 101.62 288.064 103.072C288.444 103.33 288.875 103.504 289.328 103.582C289.78 103.659 290.245 103.638 290.688 103.52L290.6 98.3438Z" fill="#D58745"/>
<path d="M296.465 95.9999C296.535 96.009 296.606 95.9919 296.665 95.9519C296.699 95.9267 296.727 95.8951 296.748 95.8589C296.77 95.8227 296.784 95.7827 296.79 95.7411C296.796 95.6995 296.793 95.6572 296.783 95.6164C296.773 95.5757 296.754 95.5375 296.729 95.5039C296.423 95.0929 296.023 94.7613 295.562 94.5372C295.101 94.3131 294.593 94.2029 294.081 94.2159C294.04 94.2179 294 94.228 293.964 94.2457C293.927 94.2634 293.894 94.2883 293.868 94.3189C293.841 94.3495 293.82 94.3852 293.807 94.4238C293.795 94.4625 293.79 94.5033 293.793 94.5439C293.803 94.6266 293.844 94.7024 293.908 94.7559C293.972 94.8094 294.054 94.8365 294.137 94.8319C294.541 94.8274 294.941 94.9194 295.303 95.1003C295.664 95.2812 295.978 95.5457 296.217 95.8719C296.247 95.909 296.285 95.9395 296.328 95.9615C296.37 95.9835 296.417 95.9966 296.465 95.9999Z" fill="#263238"/>
<path d="M285.688 96.064C285.75 96.0642 285.81 96.0471 285.863 96.0145C285.915 95.982 285.957 95.9353 285.984 95.88C286.141 95.5077 286.385 95.1785 286.696 94.9197C287.006 94.6608 287.374 94.4799 287.768 94.392C287.852 94.3781 287.928 94.332 287.979 94.2632C288.03 94.1945 288.052 94.1086 288.04 94.0239C288.028 93.9403 287.984 93.8647 287.916 93.8137C287.849 93.7627 287.764 93.7405 287.68 93.752C287.179 93.8566 286.711 94.0797 286.314 94.4026C285.918 94.7255 285.604 95.1389 285.4 95.6079C285.364 95.6844 285.36 95.7718 285.389 95.8512C285.417 95.9306 285.476 95.9956 285.552 96.0319C285.594 96.055 285.641 96.0661 285.688 96.064Z" fill="#263238"/>
<path d="M302.033 90.0639C298.905 91.1999 299.353 94.5838 304.185 100.92C307.449 98.3518 309.425 92.2639 307.849 90.2239C306.273 88.1839 304.801 89.0799 302.033 90.0639Z" fill="#263238"/>
<path d="M308.121 101.32C307.903 102.132 307.528 102.894 307.016 103.561C306.504 104.228 305.865 104.788 305.137 105.208C303.177 106.312 301.665 104.688 301.753 102.568C301.841 100.648 302.961 97.7678 305.145 97.5278C307.329 97.2878 308.649 99.3038 308.121 101.32Z" fill="#EBB376"/>
<path d="M295.744 104.632C295.271 105.356 294.606 105.936 293.825 106.307C293.043 106.679 292.173 106.827 291.312 106.736" stroke="#263238" stroke-width="0.526291" stroke-linecap="round" stroke-linejoin="round"/>
<path d="M295.2 88.992C295.2 88.992 296.208 95.744 302.712 96.192C309.216 96.64 310.608 92.5999 310.608 92.5999C310.078 92.677 309.544 92.7198 309.008 92.7279C309.008 92.7279 310.912 89.4559 309.008 86.3279C307.104 83.1999 300.624 79.8559 295.816 81.5279C294.32 81.0391 292.739 80.8649 291.172 81.0163C289.605 81.1678 288.087 81.6416 286.712 82.4079C282.208 85.0239 283.008 90.7279 283.008 90.7279C283.008 90.7279 282.808 87.2639 284.912 86.2959C284.912 86.2959 282.312 93.4239 286.208 95.3279C286.2 95.3039 286.584 88.288 295.2 88.992Z" fill="#263238"/>
<path d="M284.136 152.8C284.136 152.8 260.936 152.272 259.624 152.144C258.312 152.016 252.816 148.944 251.624 148.776C250.432 148.608 247.32 153.576 246.928 154.728C246.536 155.88 255.728 159 256.616 158.864C257.644 158.59 258.644 158.218 259.6 157.752L283.28 160.8L284.136 152.8Z" fill="#EBB376"/>
<path d="M216.801 157.6V159.72C216.801 160.352 217.889 160.8 218.521 160.8H267.953C268.593 160.8 269.601 160.352 269.601 159.72V157.6H216.801Z" fill="#263238"/>
<path opacity="0.6" d="M216.801 157.6V159.72C216.801 160.352 217.889 160.8 218.521 160.8H267.953C268.593 160.8 269.601 160.352 269.601 159.72V157.6H216.801Z" fill="white"/>
<path opacity="0.2" d="M216.801 157.6V159.72C216.801 160.352 217.889 160.8 218.521 160.8H251.121C251.761 160.8 252.801 160.352 252.801 159.72V157.6H216.801Z" fill="black"/>
<path d="M208.873 131.608L214.761 158.4C214.865 158.837 215.107 159.228 215.452 159.517C215.796 159.805 216.224 159.974 216.673 160H248.801C249.007 159.982 249.206 159.917 249.385 159.812C249.563 159.707 249.715 159.563 249.831 159.392C249.947 159.22 250.023 159.025 250.054 158.82C250.084 158.615 250.069 158.406 250.009 158.208L244.129 131.712C244.009 131.307 243.753 130.956 243.405 130.717C243.057 130.478 242.637 130.366 242.217 130.4H210.089C209.225 130.4 208.681 130.736 208.873 131.608Z" fill="#263238"/>
<path opacity="0.6" d="M208.873 131.608L214.761 158.4C214.865 158.837 215.107 159.228 215.452 159.517C215.796 159.805 216.224 159.974 216.673 160H248.801C249.007 159.982 249.206 159.917 249.385 159.812C249.563 159.707 249.715 159.563 249.831 159.392C249.947 159.22 250.023 159.025 250.054 158.82C250.084 158.615 250.069 158.406 250.009 158.208L244.129 131.712C244.009 131.307 243.753 130.956 243.405 130.717C243.057 130.478 242.637 130.366 242.217 130.4H210.089C209.225 130.4 208.681 130.736 208.873 131.608Z" fill="white"/>
<path opacity="0.4" d="M208.873 131.608L214.761 158.4C214.865 158.837 215.107 159.228 215.452 159.517C215.796 159.805 216.224 159.974 216.673 160H247.721C247.927 159.981 248.126 159.917 248.305 159.812C248.483 159.707 248.636 159.563 248.753 159.392C248.869 159.22 248.946 159.025 248.978 158.821C249.009 158.616 248.995 158.407 248.937 158.208L243.057 131.712C242.937 131.307 242.681 130.956 242.333 130.717C241.985 130.478 241.565 130.366 241.145 130.4H210.089C209.225 130.4 208.681 130.736 208.873 131.608Z" fill="white"/>
<path opacity="0.2" d="M227.785 148.8C226.289 148.8 224.753 147.2 224.361 145.216C223.969 143.232 224.873 141.6 226.401 141.6C226.675 141.606 226.946 141.66 227.201 141.76C227.34 142.468 227.643 143.132 228.086 143.701C228.53 144.269 229.101 144.725 229.753 145.032C229.77 145.084 229.783 145.138 229.793 145.192C230.193 147.2 229.289 148.8 227.785 148.8Z" fill="black"/>
<path opacity="0.2" d="M320 143.504C316.552 149.104 311.728 155.064 306.92 154.784C301.888 154.488 306.96 144.216 312.368 135.272C312.57 135.681 312.749 136.1 312.904 136.528C314.128 139.952 317.864 135.728 319.768 130.224C320.092 134.643 320.17 139.077 320 143.504Z" fill="black"/>
<path d="M317.457 122.128C329.321 126.4 308.497 158.528 302.025 161.84C295.553 165.152 278.545 161.336 278.545 161.336L279.601 151.408C279.601 151.408 293.065 152.32 295.745 151.64C298.425 150.96 304.793 137.24 308.457 130.8C310.49 127.05 313.634 124.021 317.457 122.128Z" fill="#263238"/>
<path opacity="0.2" d="M281.208 273.384L267.104 274.304L265.896 268.264L281.392 267.552L281.208 273.384Z" fill="white"/>
<path opacity="0.2" d="M264.448 267.472L250.848 271.32L248.408 265.664L263.416 261.736L264.448 267.472Z" fill="white"/>
<path d="M257.265 277.184L264.209 275.248C264.323 275.212 264.448 275.222 264.555 275.276C264.662 275.329 264.745 275.423 264.785 275.536L266.665 280.944C266.743 281.235 266.703 281.546 266.553 281.809C266.404 282.071 266.156 282.263 265.865 282.344C263.425 282.976 262.233 283.144 259.169 283.992C257.289 284.512 253.625 285.712 250.945 286.016C248.265 286.32 248.041 283.664 249.145 283.304C251.769 282.424 254.913 279.688 256.273 277.832C256.522 277.511 256.871 277.283 257.265 277.184Z" fill="#263238"/>
<path d="M272.001 282.16C272.001 282.048 271.889 280.232 271.201 279.656C271.099 279.58 270.982 279.526 270.858 279.497C270.734 279.468 270.606 279.465 270.481 279.488C270.351 279.5 270.228 279.553 270.131 279.639C270.033 279.725 269.965 279.84 269.937 279.968C269.965 280.518 270.19 281.04 270.569 281.44C270.034 281.126 269.405 281.01 268.793 281.112C268.706 281.154 268.63 281.217 268.573 281.295C268.516 281.373 268.479 281.464 268.465 281.56C268.427 281.702 268.43 281.852 268.472 281.994C268.515 282.135 268.595 282.261 268.705 282.36C269.066 282.59 269.5 282.675 269.921 282.6C270.492 282.553 271.056 282.44 271.601 282.264C271.61 282.268 271.619 282.27 271.629 282.27C271.639 282.27 271.648 282.268 271.657 282.264V282.216C271.657 282.216 271.809 282.216 271.817 282.16C271.825 282.104 271.953 282.16 271.953 282.16H272.001ZM270.233 280C270.233 279.912 270.289 279.8 270.497 279.76H270.569C270.629 279.754 270.69 279.762 270.746 279.783C270.803 279.804 270.855 279.837 270.897 279.88C271.305 280.216 271.417 281.232 271.441 281.84L271.313 281.768C270.756 281.324 270.374 280.698 270.233 280ZM268.921 282.12C268.859 282.05 268.816 281.966 268.795 281.875C268.774 281.784 268.776 281.69 268.801 281.6C268.806 281.553 268.823 281.508 268.851 281.47C268.879 281.432 268.917 281.402 268.961 281.384C269.369 281.192 270.465 281.664 271.241 282.088C270.089 282.4 269.241 282.4 268.921 282.152V282.12Z" fill="url(#paint34_linear_208_627)"/>
<path d="M272.153 281.384L279.353 280.936C279.412 280.928 279.473 280.932 279.531 280.948C279.588 280.964 279.642 280.992 279.689 281.029C279.736 281.067 279.775 281.113 279.804 281.166C279.833 281.218 279.851 281.276 279.857 281.336L280.561 287.016C280.572 287.164 280.553 287.312 280.506 287.453C280.459 287.593 280.385 287.723 280.287 287.835C280.19 287.946 280.071 288.038 279.938 288.103C279.805 288.168 279.661 288.207 279.513 288.216C277.001 288.336 275.793 288.264 272.625 288.44C270.681 288.552 266.849 288.968 264.161 288.704C261.473 288.44 261.809 285.8 262.969 285.672C265.713 285.36 269.369 283.344 271.073 281.808C271.376 281.551 271.756 281.402 272.153 281.384Z" fill="#263238"/>
<path d="M240.088 288.8H244.984L245.792 166.2H239.288L240.088 288.8Z" fill="url(#paint35_linear_208_627)"/>
<path opacity="0.4" d="M239.28 166.4L239.408 186.184L240.08 288.8H244.984L245.656 186.184L245.784 166.4H239.28Z" fill="white"/>
<path opacity="0.2" d="M239.28 166.4L239.408 186.4H245.656L245.784 166.4H239.28Z" fill="black"/>
<path d="M188.056 288.8H192.952L201.76 166.2H195.256L188.056 288.8Z" fill="url(#paint36_linear_208_627)"/>
<path opacity="0.5" d="M188.048 288.8H192.952L201.328 172.296L201.76 166.4H195.256L194.904 172.296L188.048 288.8Z" fill="white"/>
<path opacity="0.2" d="M194.904 172H201.328L201.76 166.4H195.256L194.904 172Z" fill="black"/>
<path d="M292.12 288.8H297.016L289.816 166.2H283.312L292.12 288.8Z" fill="url(#paint37_linear_208_627)"/>
<path opacity="0.5" d="M283.312 166.4L283.744 172.296L292.12 288.8H297.016L290.168 172.296L289.816 166.4H283.312Z" fill="white"/>
<path opacity="0.2" d="M289.816 166.4H283.312L283.744 172H290.168L289.816 166.4Z" fill="black"/>
<path d="M293.24 169.272H191.832C191.605 169.272 191.38 169.227 191.171 169.14C190.961 169.054 190.77 168.926 190.61 168.766C190.449 168.605 190.322 168.415 190.235 168.205C190.148 167.996 190.104 167.771 190.104 167.544V163.136H294.968V167.544C294.968 168.002 294.786 168.442 294.462 168.766C294.138 169.09 293.698 169.272 293.24 169.272Z" fill="url(#paint38_linear_208_627)"/>
<path opacity="0.6" d="M293.24 169.272H191.832C191.605 169.272 191.38 169.227 191.171 169.14C190.961 169.054 190.77 168.926 190.61 168.766C190.449 168.605 190.322 168.415 190.235 168.205C190.148 167.996 190.104 167.771 190.104 167.544V163.136H294.968V167.544C294.968 168.002 294.786 168.442 294.462 168.766C294.138 169.09 293.698 169.272 293.24 169.272Z" fill="white"/>
<path opacity="0.2" d="M190.104 166.2H294.968V163.128H190.104V166.2Z" fill="black"/>
<path d="M187.064 163.936H298.008C298.467 163.934 298.906 163.75 299.23 163.425C299.554 163.1 299.736 162.659 299.736 162.2C299.736 161.742 299.554 161.302 299.23 160.978C298.906 160.654 298.466 160.472 298.008 160.472H187.064C186.606 160.472 186.166 160.654 185.842 160.978C185.518 161.302 185.336 161.742 185.336 162.2C185.336 162.659 185.518 163.1 185.842 163.425C186.165 163.75 186.605 163.934 187.064 163.936Z" fill="url(#paint39_linear_208_627)"/>
<path opacity="0.6" d="M187.064 163.936H298.008C298.467 163.934 298.906 163.75 299.23 163.425C299.554 163.1 299.736 162.659 299.736 162.2C299.736 161.742 299.554 161.302 299.23 160.978C298.906 160.654 298.466 160.472 298.008 160.472H187.064C186.606 160.472 186.166 160.654 185.842 160.978C185.518 161.302 185.336 161.742 185.336 162.2C185.336 162.659 185.518 163.1 185.842 163.425C186.165 163.75 186.605 163.934 187.064 163.936Z" fill="white"/>
<defs>
<linearGradient id="paint0_linear_208_627" x1="228.266" y1="35.1776" x2="210.887" y2="67.3608" gradientUnits="userSpaceOnUse">
<stop stop-color="#DFA9E7"/>
<stop offset="1" stop-color="#68B0DA"/>
</linearGradient>
<linearGradient id="paint1_linear_208_627" x1="225.807" y1="39.7393" x2="224.868" y2="41.478" gradientUnits="userSpaceOnUse">
<stop stop-color="#DFA9E7"/>
<stop offset="1" stop-color="#68B0DA"/>
</linearGradient>
<linearGradient id="paint2_linear_208_627" x1="224.165" y1="42.7862" x2="223.226" y2="44.5248" gradientUnits="userSpaceOnUse">
<stop stop-color="#DFA9E7"/>
<stop offset="1" stop-color="#68B0DA"/>
</linearGradient>
<linearGradient id="paint3_linear_208_627" x1="222.518" y1="45.8296" x2="221.579" y2="47.5683" gradientUnits="userSpaceOnUse">
<stop stop-color="#DFA9E7"/>
<stop offset="1" stop-color="#68B0DA"/>
</linearGradient>
<linearGradient id="paint4_linear_208_627" x1="220.868" y1="48.8726" x2="219.929" y2="50.6113" gradientUnits="userSpaceOnUse">
<stop stop-color="#DFA9E7"/>
<stop offset="1" stop-color="#68B0DA"/>
</linearGradient>
<linearGradient id="paint5_linear_208_627" x1="219.228" y1="51.9126" x2="218.289" y2="53.6513" gradientUnits="userSpaceOnUse">
<stop stop-color="#DFA9E7"/>
<stop offset="1" stop-color="#68B0DA"/>
</linearGradient>
<linearGradient id="paint6_linear_208_627" x1="217.586" y1="54.9634" x2="216.647" y2="56.7021" gradientUnits="userSpaceOnUse">
<stop stop-color="#DFA9E7"/>
<stop offset="1" stop-color="#68B0DA"/>
</linearGradient>
<linearGradient id="paint7_linear_208_627" x1="215.946" y1="58.003" x2="215.007" y2="59.7416" gradientUnits="userSpaceOnUse">
<stop stop-color="#DFA9E7"/>
<stop offset="1" stop-color="#68B0DA"/>
</linearGradient>
<linearGradient id="paint8_linear_208_627" x1="211.245" y1="59.4034" x2="210.306" y2="61.1421" gradientUnits="userSpaceOnUse">
<stop stop-color="#DFA9E7"/>
<stop offset="1" stop-color="#68B0DA"/>
</linearGradient>
<linearGradient id="paint9_linear_208_627" x1="176.916" y1="6.72412" x2="176.916" y2="42.1619" gradientUnits="userSpaceOnUse">
<stop stop-color="#DFA9E7"/>
<stop offset="1" stop-color="#68B0DA"/>
</linearGradient>
<linearGradient id="paint10_linear_208_627" x1="123.193" y1="2.9887" x2="125.512" y2="31.4946" gradientUnits="userSpaceOnUse">
<stop stop-color="#DFA9E7"/>
<stop offset="1" stop-color="#68B0DA"/>
</linearGradient>
<linearGradient id="paint11_linear_208_627" x1="123.394" y1="4.83511" x2="125.405" y2="29.5535" gradientUnits="userSpaceOnUse">
<stop stop-color="#DFA9E7"/>
<stop offset="1" stop-color="#68B0DA"/>
</linearGradient>
<linearGradient id="paint12_linear_208_627" x1="124.912" y1="12.168" x2="124.912" y2="30.952" gradientUnits="userSpaceOnUse">
<stop stop-color="#DFA9E7"/>
<stop offset="1" stop-color="#68B0DA"/>
</linearGradient>
<linearGradient id="paint13_linear_208_627" x1="132.593" y1="7.85498" x2="132.593" y2="13.391" gradientUnits="userSpaceOnUse">
<stop stop-color="#DFA9E7"/>
<stop offset="1" stop-color="#68B0DA"/>
</linearGradient>
<linearGradient id="paint14_linear_208_627" x1="74.5887" y1="29.5981" x2="74.5887" y2="67.4506" gradientUnits="userSpaceOnUse">
<stop stop-color="#DFA9E7"/>
<stop offset="1" stop-color="#68B0DA"/>
</linearGradient>
<linearGradient id="paint15_linear_208_627" x1="77.638" y1="30.3437" x2="77.638" y2="66.5833" gradientUnits="userSpaceOnUse">
<stop stop-color="#DFA9E7"/>
<stop offset="1" stop-color="#68B0DA"/>
</linearGradient>
<linearGradient id="paint16_linear_208_627" x1="142.25" y1="32.7993" x2="142.25" y2="108.016" gradientUnits="userSpaceOnUse">
<stop stop-color="#DFA9E7"/>
<stop offset="1" stop-color="#68B0DA"/>
</linearGradient>
<linearGradient id="paint17_linear_208_627" x1="176.668" y1="99.2002" x2="176.668" y2="155.2" gradientUnits="userSpaceOnUse">
<stop stop-color="#DFA9E7"/>
<stop offset="1" stop-color="#68B0DA"/>
</linearGradient>
<linearGradient id="paint18_linear_208_627" x1="143.1" y1="93.8721" x2="143.1" y2="100.8" gradientUnits="userSpaceOnUse">
<stop stop-color="#DFA9E7"/>
<stop offset="1" stop-color="#68B0DA"/>
</linearGradient>
<linearGradient id="paint19_linear_208_627" x1="89.311" y1="230.19" x2="89.311" y2="249.864" gradientUnits="userSpaceOnUse">
<stop stop-color="#DFA9E7"/>
<stop offset="1" stop-color="#68B0DA"/>
</linearGradient>
<linearGradient id="paint20_linear_208_627" x1="92.5538" y1="242.276" x2="92.5538" y2="251.912" gradientUnits="userSpaceOnUse">
<stop stop-color="#DFA9E7"/>
<stop offset="1" stop-color="#68B0DA"/>
</linearGradient>
<linearGradient id="paint21_linear_208_627" x1="117.823" y1="215.124" x2="117.823" y2="261.736" gradientUnits="userSpaceOnUse">
<stop stop-color="#DFA9E7"/>
<stop offset="1" stop-color="#68B0DA"/>
</linearGradient>
<linearGradient id="paint22_linear_208_627" x1="121.816" y1="268.288" x2="121.816" y2="288.736" gradientUnits="userSpaceOnUse">
<stop stop-color="#DFA9E7"/>
<stop offset="1" stop-color="#68B0DA"/>
</linearGradient>
<linearGradient id="paint23_linear_208_627" x1="132.753" y1="271.128" x2="132.753" y2="288.728" gradientUnits="userSpaceOnUse">
<stop stop-color="#DFA9E7"/>
<stop offset="1" stop-color="#68B0DA"/>
</linearGradient>
<linearGradient id="paint24_linear_208_627" x1="301.681" y1="220" x2="301.681" y2="288.8" gradientUnits="userSpaceOnUse">
<stop stop-color="#DFA9E7"/>
<stop offset="1" stop-color="#68B0DA"/>
</linearGradient>
<linearGradient id="paint25_linear_208_627" x1="279.684" y1="220.879" x2="279.684" y2="288.599" gradientUnits="userSpaceOnUse">
<stop stop-color="#DFA9E7"/>
<stop offset="1" stop-color="#68B0DA"/>
</linearGradient>
<linearGradient id="paint26_linear_208_627" x1="323.684" y1="220.879" x2="323.684" y2="288.599" gradientUnits="userSpaceOnUse">
<stop stop-color="#DFA9E7"/>
<stop offset="1" stop-color="#68B0DA"/>
</linearGradient>
<linearGradient id="paint27_linear_208_627" x1="301.68" y1="223.24" x2="301.68" y2="213.888" gradientUnits="userSpaceOnUse">
<stop stop-color="#DFA9E7"/>
<stop offset="1" stop-color="#68B0DA"/>
</linearGradient>
<linearGradient id="paint28_linear_208_627" x1="301.685" y1="223.216" x2="301.685" y2="218.544" gradientUnits="userSpaceOnUse">
<stop stop-color="#DFA9E7"/>
<stop offset="1" stop-color="#68B0DA"/>
</linearGradient>
<linearGradient id="paint29_linear_208_627" x1="287.565" y1="182.088" x2="287.565" y2="273.696" gradientUnits="userSpaceOnUse">
<stop stop-color="#DFA9E7"/>
<stop offset="1" stop-color="#68B0DA"/>
</linearGradient>
<linearGradient id="paint30_linear_208_627" x1="273.644" y1="267.552" x2="273.644" y2="274.304" gradientUnits="userSpaceOnUse">
<stop stop-color="#DFA9E7"/>
<stop offset="1" stop-color="#68B0DA"/>
</linearGradient>
<linearGradient id="paint31_linear_208_627" x1="255.374" y1="275.661" x2="255.374" y2="279.045" gradientUnits="userSpaceOnUse">
<stop stop-color="#DFA9E7"/>
<stop offset="1" stop-color="#68B0DA"/>
</linearGradient>
<linearGradient id="paint32_linear_208_627" x1="268.487" y1="186.352" x2="268.487" y2="270.544" gradientUnits="userSpaceOnUse">
<stop stop-color="#DFA9E7"/>
<stop offset="1" stop-color="#68B0DA"/>
</linearGradient>
<linearGradient id="paint33_linear_208_627" x1="256.428" y1="261.736" x2="256.428" y2="271.32" gradientUnits="userSpaceOnUse">
<stop stop-color="#DFA9E7"/>
<stop offset="1" stop-color="#68B0DA"/>
</linearGradient>
<linearGradient id="paint34_linear_208_627" x1="270.22" y1="279.473" x2="270.22" y2="282.626" gradientUnits="userSpaceOnUse">
<stop stop-color="#DFA9E7"/>
<stop offset="1" stop-color="#68B0DA"/>
</linearGradient>
<linearGradient id="paint35_linear_208_627" x1="242.54" y1="166.2" x2="242.54" y2="288.8" gradientUnits="userSpaceOnUse">
<stop stop-color="#DFA9E7"/>
<stop offset="1" stop-color="#68B0DA"/>
</linearGradient>
<linearGradient id="paint36_linear_208_627" x1="194.908" y1="166.2" x2="194.908" y2="288.8" gradientUnits="userSpaceOnUse">
<stop stop-color="#DFA9E7"/>
<stop offset="1" stop-color="#68B0DA"/>
</linearGradient>
<linearGradient id="paint37_linear_208_627" x1="290.164" y1="166.2" x2="290.164" y2="288.8" gradientUnits="userSpaceOnUse">
<stop stop-color="#DFA9E7"/>
<stop offset="1" stop-color="#68B0DA"/>
</linearGradient>
<linearGradient id="paint38_linear_208_627" x1="242.536" y1="169.272" x2="242.536" y2="163.136" gradientUnits="userSpaceOnUse">
<stop stop-color="#DFA9E7"/>
<stop offset="1" stop-color="#68B0DA"/>
</linearGradient>
<linearGradient id="paint39_linear_208_627" x1="242.536" y1="160.472" x2="242.536" y2="163.936" gradientUnits="userSpaceOnUse">
<stop stop-color="#DFA9E7"/>
<stop offset="1" stop-color="#68B0DA"/>
</linearGradient>
</defs>
</svg>
