<svg width="1435" height="1733" viewBox="0 0 1435 1733" fill="none" xmlns="http://www.w3.org/2000/svg">
<g opacity="0.5">
<path opacity="0.0344828" d="M519.332 1348.73C530.647 1349.26 542.334 1344.8 554.259 1335.66C566.191 1326.51 578.305 1312.72 590.423 1294.72C614.657 1258.72 638.783 1206.05 661.441 1140.54C706.75 1009.55 746.114 827.444 768.774 625.296C791.433 423.147 793.091 239.289 777.468 105.453C769.655 38.5276 757.527 -15.8342 741.574 -53.7095C733.597 -72.6478 724.683 -87.4159 714.915 -97.5713C705.152 -107.721 694.582 -113.219 683.267 -113.746C671.952 -114.273 660.265 -109.813 648.34 -100.674C636.408 -91.5293 624.294 -77.7411 612.176 -59.7392C587.942 -23.7365 563.816 28.9359 541.158 94.4419C495.849 225.438 456.485 407.539 433.826 609.688C411.166 811.836 409.508 995.694 425.131 1129.53C432.944 1196.46 445.072 1250.82 461.025 1288.69C469.002 1307.63 477.916 1322.4 487.684 1332.55C497.447 1342.7 508.017 1348.2 519.332 1348.73Z" stroke="url(#paint0_linear_65_71)" stroke-opacity="0.7" stroke-width="2"/>
<path opacity="0.0689655" d="M586.999 1352.86C598.388 1352.39 609.711 1346.95 620.862 1336.85C632.019 1326.75 642.954 1312.04 653.524 1293.15C674.664 1255.37 694.241 1201.1 711.227 1134.24C745.195 1000.53 768.747 816.735 773.813 614.541C778.878 412.347 764.497 230.105 737.166 98.9179C723.498 33.3165 706.603 -19.4633 687.315 -55.58C677.67 -73.6388 667.451 -87.4859 656.777 -96.69C646.11 -105.889 635.036 -110.412 623.648 -109.945C612.259 -109.477 600.936 -104.035 589.785 -93.9407C578.628 -83.8406 567.693 -69.1255 557.123 -50.2371C535.983 -12.4612 516.406 41.8153 499.42 108.675C465.452 242.377 441.9 426.177 436.835 628.371C431.769 830.565 446.15 1012.81 473.481 1143.99C487.149 1209.6 504.044 1262.38 523.332 1298.49C532.977 1316.55 543.196 1330.4 553.87 1339.6C564.537 1348.8 575.611 1353.32 586.999 1352.86Z" stroke="url(#paint1_linear_65_71)" stroke-opacity="0.7" stroke-width="2"/>
<path opacity="0.103448" d="M654.81 1351.42C666.185 1349.96 677.058 1343.57 687.35 1332.6C697.648 1321.62 707.32 1306.09 716.263 1286.46C734.147 1247.2 749.026 1191.73 760.212 1124.03C782.58 988.637 790.141 804.539 777.574 603.838C765.007 403.138 734.697 223.898 695.866 96.3581C676.448 32.5803 654.915 -18.2159 632.438 -52.2992C621.199 -69.3411 609.752 -82.1618 598.254 -90.3446C586.763 -98.5226 575.271 -102.036 563.895 -100.577C552.519 -99.1173 541.647 -92.7345 531.355 -81.7619C521.057 -70.7828 511.385 -55.2528 502.442 -35.6217C484.558 3.6397 469.678 59.1073 458.493 126.811C436.125 262.203 428.564 446.301 441.131 647.002C453.697 847.702 484.008 1026.94 522.839 1154.48C542.257 1218.26 563.79 1269.06 586.267 1303.14C597.506 1320.18 608.953 1333 620.451 1341.18C631.942 1349.36 643.434 1352.88 654.81 1351.42Z" stroke="url(#paint2_linear_65_71)" stroke-opacity="0.7" stroke-width="2"/>
<path opacity="0.137931" d="M722.274 1344.45C744.837 1339.57 763.66 1315.28 778.186 1274.74C792.68 1234.3 802.748 1178.06 808.048 1110.03C818.646 973.977 810.159 790.981 780.056 593.301C749.953 395.621 703.943 220.748 653.908 97.8255C628.888 36.3567 602.881 -12.0694 577.387 -43.8601C551.834 -75.7233 527.053 -90.5669 504.49 -85.6821C481.927 -80.7972 463.104 -56.513 448.578 -15.9727C434.084 24.4755 424.016 80.7119 418.716 148.745C408.118 284.795 416.605 467.791 446.708 665.471C476.811 863.151 522.821 1038.02 572.856 1160.95C597.876 1222.42 623.883 1270.84 649.377 1302.63C674.929 1334.5 699.711 1349.34 722.274 1344.45Z" stroke="url(#paint3_linear_65_71)" stroke-opacity="0.7" stroke-width="2"/>
<path opacity="0.172414" d="M788.896 1332.06C811.085 1325.25 827.825 1299.54 838.842 1258.13C849.834 1216.8 855.015 1160.22 854.389 1092.38C853.137 956.703 828.666 776.202 781.256 583.047C733.846 389.892 672.488 220.717 611.63 103.347C581.197 44.6551 550.915 -1.03243 522.598 -30.2889C494.218 -59.6096 468.091 -72.1491 445.903 -65.3357C423.714 -58.5223 406.973 -32.8195 395.957 8.59847C384.965 49.9255 379.783 106.503 380.409 174.348C381.661 310.021 406.132 490.522 453.543 683.677C500.953 876.832 562.31 1046.01 623.168 1163.38C653.601 1222.07 683.883 1267.76 712.201 1297.01C740.58 1326.33 766.707 1338.87 788.896 1332.06Z" stroke="url(#paint4_linear_65_71)" stroke-opacity="0.7" stroke-width="2"/>
<path opacity="0.206897" d="M854.225 1314.34C875.869 1305.64 890.399 1278.72 897.823 1236.74C905.23 1194.85 905.485 1138.36 898.938 1071.22C885.846 936.956 845.578 760.323 781.221 573.163C716.865 386.002 640.626 223.813 569.409 112.889C533.795 57.42 499.468 14.8184 468.543 -11.6812C437.553 -38.2374 410.278 -48.3764 388.634 -39.6853C366.989 -30.9942 352.46 -4.06915 345.036 37.9116C337.628 79.8031 337.374 136.291 343.92 203.431C357.013 337.695 397.281 514.327 461.637 701.488C525.994 888.648 602.232 1050.84 673.45 1161.76C709.063 1217.23 743.391 1259.83 774.315 1286.33C805.306 1312.89 832.58 1323.03 854.225 1314.34Z" stroke="url(#paint5_linear_65_71)" stroke-opacity="0.7" stroke-width="2"/>
<path opacity="0.241379" d="M917.782 1291.46C938.716 1280.96 950.924 1253.02 954.698 1210.79C958.465 1168.66 953.792 1112.69 941.374 1046.76C916.542 914.931 860.783 743.511 779.97 563.77C699.157 384.029 608.618 230.059 527.582 126.424C487.06 74.6006 448.949 35.4091 415.652 11.8676C382.286 -11.7226 354.072 -19.3831 333.137 -8.87983C312.203 1.62346 299.995 29.5651 296.221 71.7897C292.454 113.927 297.127 169.895 309.545 235.82C334.377 367.653 390.136 539.073 470.949 718.814C551.762 898.555 642.301 1052.53 723.337 1156.16C763.859 1207.98 801.97 1247.17 835.267 1270.72C868.633 1294.31 896.847 1301.97 917.782 1291.46Z" stroke="url(#paint6_linear_65_71)" stroke-opacity="0.7" stroke-width="2"/>
<path opacity="0.275862" d="M979.109 1263.64C999.172 1251.41 1008.96 1222.66 1009.06 1180.51C1009.16 1138.45 999.594 1083.43 981.4 1019.22C945.016 890.823 874.191 725.919 777.537 554.965C680.883 384.011 576.732 239.432 486.496 143.875C441.372 96.0914 399.767 60.6078 364.352 40.2035C328.865 19.7578 299.925 14.6352 279.861 26.8711C259.798 39.1069 250.006 67.8516 249.908 109.999C249.81 152.062 259.376 207.085 277.57 271.292C313.954 399.691 384.779 564.595 481.433 735.549C578.088 906.503 682.238 1051.08 772.474 1146.64C817.598 1194.42 859.203 1229.91 894.618 1250.31C930.105 1270.76 959.046 1275.88 979.109 1263.64Z" stroke="url(#paint7_linear_65_71)" stroke-opacity="0.7" stroke-width="2"/>
<path opacity="0.310345" d="M1037.78 1231.12C1056.82 1217.24 1064.12 1187.91 1060.54 1146.16C1056.97 1104.49 1042.58 1050.84 1018.75 988.833C971.093 864.845 885.741 707.714 773.981 546.847C662.221 385.981 545.251 251.893 446.501 165.142C397.12 121.761 352.338 90.2549 315.074 73.1427C277.735 55.9965 248.289 53.4518 229.251 67.327C210.213 81.2022 202.911 110.53 206.49 152.281C210.062 193.949 224.448 247.608 248.28 309.61C295.938 433.598 381.29 590.73 493.05 751.596C604.81 912.463 721.78 1046.55 820.53 1133.3C869.911 1176.68 914.693 1208.19 951.958 1225.3C989.296 1242.45 1018.74 1244.99 1037.78 1231.12Z" stroke="url(#paint8_linear_65_71)" stroke-opacity="0.7" stroke-width="2"/>
<path opacity="0.344828" d="M1093.37 1194.16C1111.24 1178.75 1116 1149.07 1108.77 1108.03C1101.55 1067.07 1082.46 1015.19 1053.17 955.861C994.599 837.227 895.369 689.063 769.354 539.508C643.339 389.954 514.441 267.377 407.928 190.091C354.665 151.443 307.046 124.155 268.216 110.465C229.309 96.7478 199.583 96.8011 181.717 112.21C163.85 127.618 159.093 157.305 166.322 198.342C173.537 239.299 192.633 291.187 221.921 350.511C280.491 469.145 379.721 617.309 505.736 766.864C631.751 916.418 760.65 1038.99 867.162 1116.28C920.425 1154.93 968.044 1182.22 1006.87 1195.91C1045.78 1209.62 1075.51 1209.57 1093.37 1194.16Z" stroke="url(#paint9_linear_65_71)" stroke-opacity="0.7" stroke-width="2"/>
<path opacity="0.37931" d="M1145.5 1153.09C1162.06 1136.27 1164.23 1106.45 1153.41 1066.44C1142.61 1026.5 1118.95 976.783 1084.42 920.588C1015.39 808.211 903.037 670.141 763.725 533.037C624.414 395.932 484.568 285.799 371.103 218.566C314.363 184.946 264.27 162.082 224.169 151.919C183.99 141.735 154.209 144.387 137.652 161.211C121.095 178.035 118.919 207.854 129.743 247.865C140.545 287.799 164.205 337.52 198.728 393.716C267.764 506.093 380.116 644.163 519.427 781.267C658.739 918.372 798.585 1028.5 912.05 1095.74C968.789 1129.36 1018.88 1152.22 1058.98 1162.39C1099.16 1172.57 1128.94 1169.92 1145.5 1153.09Z" stroke="url(#paint10_linear_65_71)" stroke-opacity="0.7" stroke-width="2"/>
<path opacity="0.413793" d="M1193.79 1108.25C1208.91 1090.14 1208.49 1060.42 1194.15 1021.74C1179.85 983.128 1151.8 935.951 1112.31 883.313C1033.33 778.047 908.711 651.123 757.164 527.512C605.616 403.901 455.886 307.05 336.332 250.381C276.548 222.043 224.362 203.779 183.295 197.219C142.148 190.646 112.541 195.877 97.4197 213.987C82.2984 232.096 82.7197 261.82 97.056 300.503C111.364 339.11 139.409 386.287 178.903 438.926C257.88 544.191 382.499 671.115 534.046 794.726C685.594 918.338 835.324 1015.19 954.878 1071.86C1014.66 1100.19 1066.85 1118.46 1107.91 1125.02C1149.06 1131.59 1178.67 1126.36 1193.79 1108.25Z" stroke="url(#paint11_linear_65_71)" stroke-opacity="0.7" stroke-width="2"/>
<path opacity="0.448276" d="M1237.91 1060C1251.48 1040.75 1248.47 1011.35 1230.73 974.286C1213.02 937.3 1180.8 893.026 1136.64 844.344C1048.32 746.992 912.384 632.178 749.754 523.001C587.124 413.824 428.649 330.992 303.916 285.319C241.542 262.48 187.659 248.953 145.94 246.047C104.137 243.135 74.9294 250.904 61.3599 270.161C47.7903 289.418 50.805 318.82 68.5452 355.88C86.2502 392.866 118.467 437.14 162.631 485.822C250.948 583.174 386.886 697.988 549.517 807.165C712.147 916.342 870.622 999.174 995.355 1044.85C1057.73 1067.69 1111.61 1081.21 1153.33 1084.12C1195.13 1087.03 1224.34 1079.26 1237.91 1060Z" stroke="url(#paint12_linear_65_71)" stroke-opacity="0.7" stroke-width="2"/>
<path opacity="0.482759" d="M1277.55 1008.75C1289.46 988.497 1283.88 959.642 1262.87 924.486C1241.9 889.401 1205.76 848.368 1157.26 804.013C1060.27 715.314 914.051 613.485 741.575 519.573C569.1 425.661 403.086 357.478 274.123 323.149C209.633 305.982 154.464 297.296 112.409 298.065C70.268 298.836 41.6834 309.086 29.7694 329.342C17.8555 349.598 23.4395 378.453 44.4492 413.609C65.4165 448.694 101.56 489.727 150.058 534.082C247.043 622.781 393.267 724.61 565.742 818.522C738.218 912.434 904.231 980.617 1033.19 1014.95C1097.68 1032.11 1152.85 1040.8 1194.91 1040.03C1237.05 1039.26 1265.63 1029.01 1277.55 1008.75Z" stroke="url(#paint13_linear_65_71)" stroke-opacity="0.7" stroke-width="2"/>
<path opacity="0.517241" d="M1312.45 954.917C1322.62 933.817 1314.51 905.729 1290.39 872.744C1266.32 839.828 1226.52 802.347 1174.06 762.657C1069.14 683.287 913.745 595.218 732.737 517.285C551.728 439.352 379.439 386.338 247.227 363.613C181.112 352.249 125.076 348.47 83.0047 352.91C40.8458 357.358 13.1026 370.01 2.93489 391.11C-7.23279 412.209 0.877212 440.298 24.9972 473.282C49.0673 506.199 88.8624 543.68 141.326 583.37C246.242 662.74 401.638 750.809 582.646 828.741C763.655 906.674 935.943 959.689 1068.16 982.413C1134.27 993.777 1190.31 997.556 1232.38 993.117C1274.54 988.668 1302.28 976.016 1312.45 954.917Z" stroke="url(#paint14_linear_65_71)" stroke-opacity="0.7" stroke-width="2"/>
<path opacity="0.551724" d="M1342.36 898.934C1350.7 877.154 1340.13 850.045 1313.08 819.482C1286.09 788.985 1242.95 755.342 1186.92 720.619C1074.87 651.181 911.484 577.542 723.32 516.182C535.156 454.822 357.902 417.379 223.447 406.433C156.211 400.959 99.7343 402.115 57.9664 410.191C16.1095 418.284 -10.5802 433.242 -18.9245 455.022C-27.2689 476.803 -16.6957 503.912 10.3519 534.474C37.342 564.972 80.4862 598.615 136.517 633.338C248.564 702.775 411.95 776.414 600.114 837.774C788.278 899.134 965.531 936.577 1099.99 947.524C1167.22 952.998 1223.7 951.841 1265.47 943.765C1307.32 935.673 1334.01 920.715 1342.36 898.934Z" stroke="url(#paint15_linear_65_71)" stroke-opacity="0.7" stroke-width="2"/>
<path opacity="0.586207" d="M1367.1 841.252C1373.56 818.957 1360.61 793.034 1330.84 765.126C1301.13 737.28 1254.97 707.731 1195.8 678.239C1077.47 619.263 907.337 560.614 713.449 516.294C519.562 471.974 338.693 450.388 203.017 451.303C135.171 451.76 78.6838 457.844 37.5375 469.495C-3.69933 481.171 -29.1315 498.32 -35.5898 520.615C-42.048 542.909 -29.093 568.833 0.677225 596.741C30.382 624.587 76.5473 654.136 135.718 683.628C254.045 742.604 424.177 801.252 618.065 845.573C811.952 889.893 992.821 911.479 1128.5 910.564C1196.34 910.107 1252.83 904.023 1293.98 892.372C1335.21 880.695 1360.65 863.547 1367.1 841.252Z" stroke="url(#paint16_linear_65_71)" stroke-opacity="0.7" stroke-width="2"/>
<path opacity="0.62069" d="M1386.5 782.359C1391.03 759.721 1375.79 735.179 1343.52 710.139C1311.33 685.156 1262.49 659.926 1200.63 635.89C1076.93 587.824 901.343 544.612 703.207 517.67C505.071 490.727 321.963 485.162 186.1 497.931C118.16 504.317 62.0913 515.282 21.8797 530.419C-18.4235 545.591 -42.404 564.8 -46.928 587.438C-51.452 610.076 -36.2146 634.617 -3.94746 659.657C28.2463 684.641 77.0814 709.871 138.942 733.907C262.648 781.973 438.233 825.184 636.368 852.127C834.504 879.07 1017.61 884.634 1153.48 871.865C1221.42 865.48 1277.48 854.515 1317.7 839.377C1358 824.205 1381.98 804.996 1386.5 782.359Z" stroke="url(#paint17_linear_65_71)" stroke-opacity="0.7" stroke-width="2"/>
<path opacity="0.655172" d="M1400.45 722.724C1401.73 711.327 1398.03 699.892 1389.67 688.533C1381.3 677.167 1368.3 665.926 1351.08 654.961C1316.64 633.031 1265.51 612.312 1201.43 593.915C1073.29 557.125 893.587 529.68 692.711 520.32C491.835 510.959 307.881 521.459 172.864 545.986C105.347 558.251 50.1241 574.014 11.1533 592.523C-8.3325 601.778 -23.7062 611.696 -34.5194 622.168C-45.3262 632.634 -51.5347 643.608 -52.8123 655.005C-54.0899 666.403 -50.3933 677.838 -42.0328 689.197C-33.6675 700.562 -20.6657 711.803 -3.44645 722.768C30.9914 744.698 82.125 765.417 146.205 783.814C274.349 820.604 454.049 848.049 654.925 857.41C855.801 866.77 1039.75 856.271 1174.77 831.744C1242.29 819.479 1297.51 803.716 1336.48 785.206C1355.97 775.952 1371.34 766.033 1382.16 755.561C1392.96 745.095 1399.17 734.122 1400.45 722.724Z" stroke="url(#paint18_linear_65_71)" stroke-opacity="0.7" stroke-width="2"/>
<path opacity="0.689655" d="M1408.86 662.829C1409.15 651.434 1404.45 640.435 1395.08 629.915C1385.71 619.39 1371.7 609.393 1353.49 600.038C1317.07 581.329 1264.02 565.279 1198.21 552.661C1066.61 527.427 884.158 515.958 682.071 524.251C479.983 532.545 296.584 559.028 163.44 595.127C96.8608 613.178 42.9038 633.619 5.47027 655.359C-13.2469 666.23 -27.7856 677.398 -37.7063 688.716C-47.6212 700.026 -52.8819 711.435 -53.1674 722.829C-53.4528 734.224 -48.7536 745.224 -39.3856 755.743C-30.0121 766.269 -16.0037 776.265 2.20677 785.62C38.6268 804.33 91.6697 820.38 157.481 832.998C289.088 858.231 471.536 869.701 673.624 861.407C875.711 853.114 1059.11 826.63 1192.25 790.532C1258.83 772.48 1312.79 752.039 1350.22 730.299C1368.94 719.428 1383.48 708.26 1393.4 696.943C1403.32 685.632 1408.58 674.224 1408.86 662.829Z" stroke="url(#paint19_linear_65_71)" stroke-opacity="0.7" stroke-width="2"/>
<path opacity="0.724138" d="M1411.71 603.162C1411 591.857 1405.34 581.375 1395.03 571.776C1384.72 562.171 1369.81 553.494 1350.75 545.821C1312.63 530.474 1258.08 519.216 1191.04 512.473C1056.97 498.988 873.159 503.582 671.399 529.466C469.638 555.35 288.188 597.617 157.932 645.012C92.7966 668.713 40.5161 693.676 4.90501 718.483C-12.9011 730.886 -26.4942 743.219 -35.4468 755.296C-44.3944 767.365 -48.6676 779.121 -47.9597 790.426C-47.2519 801.732 -41.5863 812.213 -31.2819 821.812C-20.9718 831.417 -6.06324 840.094 13 847.767C51.1252 863.114 105.674 874.372 172.716 881.115C306.784 894.6 490.592 890.007 692.353 864.122C894.113 838.238 1075.56 795.971 1205.82 748.576C1270.95 724.875 1323.24 699.912 1358.85 675.105C1376.65 662.702 1390.25 650.369 1399.2 638.292C1408.15 626.223 1412.42 614.467 1411.71 603.162Z" stroke="url(#paint20_linear_65_71)" stroke-opacity="0.7" stroke-width="2"/>
<path opacity="0.758621" d="M1409.01 544.208C1407.31 533.078 1400.72 523.195 1389.56 514.588C1378.39 505.976 1362.7 498.686 1342.93 492.753C1303.39 480.886 1247.75 474.505 1179.98 473.689C1044.48 472.056 860.707 492.677 660.808 535.956C460.909 579.234 282.791 636.962 156.414 695.294C93.2176 724.463 43.0116 753.76 9.49411 781.443C-7.26533 795.286 -19.8092 808.69 -27.7256 821.433C-35.6378 834.17 -38.8916 846.184 -37.1967 857.314C-35.5019 868.443 -28.9135 878.327 -17.7511 886.934C-6.58268 895.545 9.11253 902.835 28.8835 908.769C68.4237 920.635 124.063 927.016 191.825 927.833C327.334 929.466 511.103 908.844 711.002 865.566C910.9 822.287 1089.02 764.559 1215.4 706.228C1278.59 677.058 1328.8 647.761 1362.32 620.078C1379.07 606.236 1391.62 592.832 1399.54 580.088C1407.45 567.352 1410.7 555.337 1409.01 544.208Z" stroke="url(#paint21_linear_65_71)" stroke-opacity="0.7" stroke-width="2"/>
<path opacity="0.793103" d="M1400.8 486.442C1398.13 475.572 1390.67 466.361 1378.73 458.812C1366.79 451.26 1350.43 445.412 1330.1 441.264C1289.45 432.968 1233.14 431.513 1165.17 436.629C1029.25 446.861 846.923 483.354 650.408 543.697C453.893 604.04 280.461 676.791 158.925 745.615C98.1496 780.031 50.4005 813.438 19.2318 843.788C3.64675 858.964 -7.75241 873.337 -14.5724 886.651C-21.3889 899.958 -23.5991 912.139 -20.9311 923.008C-18.2631 933.878 -10.8022 943.089 1.1333 950.638C13.075 958.191 29.4375 964.039 49.7656 968.187C90.42 976.482 146.726 977.937 214.693 972.821C350.611 962.589 532.943 926.096 729.458 865.753C925.972 805.41 1099.4 732.66 1220.94 663.835C1281.72 629.419 1329.47 596.012 1360.63 565.662C1376.22 550.486 1387.62 536.113 1394.44 522.799C1401.25 509.493 1403.46 497.312 1400.8 486.442Z" stroke="url(#paint22_linear_65_71)" stroke-opacity="0.7" stroke-width="2"/>
<path opacity="0.827586" d="M1387.18 430.338C1383.56 419.81 1375.28 411.34 1362.66 404.907C1350.04 398.471 1333.13 394.109 1312.4 391.778C1270.94 387.117 1214.4 390.599 1146.75 401.61C1011.45 423.628 831.947 475.715 640.312 552.664C448.676 629.613 281.251 716.832 165.481 795.625C107.588 835.026 62.6596 872.289 34.0773 905.075C19.7853 921.469 9.61772 936.702 3.94601 950.484C-1.72287 964.26 -2.87323 976.515 0.746873 987.042C4.36698 997.57 12.6434 1006.04 25.2612 1012.47C37.8854 1018.91 54.7906 1023.27 75.5212 1025.6C116.98 1030.26 173.525 1026.78 241.179 1015.77C376.472 993.752 555.978 941.665 747.613 864.716C939.249 787.767 1106.67 700.548 1222.44 621.755C1280.34 582.354 1325.27 545.091 1353.85 512.305C1368.14 495.911 1378.31 480.678 1383.98 466.896C1389.65 453.12 1390.8 440.865 1387.18 430.338Z" stroke="url(#paint23_linear_65_71)" stroke-opacity="0.7" stroke-width="2"/>
<path opacity="0.862069" d="M1368.28 376.351C1363.74 366.245 1354.71 358.581 1341.5 353.313C1328.29 348.042 1310.97 345.2 1290 344.704C1248.05 343.712 1191.7 352.105 1124.87 368.926C991.234 402.564 815.921 469.848 630.623 562.817C445.325 655.786 285.181 756.81 176.058 844.973C121.49 889.059 79.7239 929.895 53.9456 964.867C41.0557 982.354 32.1971 998.33 27.7169 1012.48C23.2388 1026.62 23.1564 1038.85 27.7004 1048.96C32.2445 1059.07 41.2737 1066.73 54.4778 1072C67.6883 1077.27 85.0076 1080.11 105.983 1080.61C147.931 1081.6 204.283 1073.2 271.11 1056.38C404.748 1022.75 580.062 955.462 765.359 862.493C950.657 769.524 1110.8 668.5 1219.92 580.337C1274.49 536.251 1316.26 495.415 1342.04 460.443C1354.93 442.956 1363.79 426.98 1368.27 412.833C1372.74 398.693 1372.83 386.458 1368.28 376.351Z" stroke="url(#paint24_linear_65_71)" stroke-opacity="0.7" stroke-width="2"/>
<path opacity="0.896552" d="M1344.28 324.925C1338.85 315.315 1329.14 308.514 1315.45 304.451C1301.75 300.386 1284.15 299.086 1263.09 300.428C1220.97 303.114 1165.24 316.354 1099.75 338.858C968.785 383.859 798.998 465.829 621.449 574.11C443.899 682.392 292.256 796.452 190.61 893.313C139.782 941.749 101.496 985.847 78.7186 1022.74C67.3289 1041.19 59.8468 1057.78 56.5921 1072.19C53.339 1086.58 54.3246 1098.71 59.7578 1108.32C65.1909 1117.93 74.9044 1124.73 88.5943 1128.79C102.291 1132.86 119.892 1134.16 140.952 1132.81C183.07 1130.13 238.801 1116.89 304.292 1094.38C435.257 1049.38 605.044 967.412 782.594 859.131C960.143 750.849 1111.79 636.789 1213.43 539.928C1264.26 491.492 1302.55 447.394 1325.32 410.502C1336.71 392.055 1344.2 375.457 1347.45 361.054C1350.7 346.658 1349.72 334.534 1344.28 324.925Z" stroke="url(#paint25_linear_65_71)" stroke-opacity="0.7" stroke-width="2"/>
<path opacity="0.931035" d="M1315.39 276.479C1309.11 267.439 1298.79 261.553 1284.72 258.725C1270.64 255.897 1252.89 256.148 1231.91 259.319C1189.94 265.662 1135.25 283.649 1071.6 311.663C944.301 367.685 781.333 463.717 612.883 586.487C444.433 709.257 302.445 835.485 209.051 940.307C162.349 992.724 127.836 1039.75 108.232 1078.28C98.4297 1097.55 92.3811 1114.64 90.3768 1129.19C88.3734 1143.73 90.419 1155.65 96.6999 1164.69C102.981 1173.73 113.305 1179.62 127.376 1182.45C141.454 1185.27 159.204 1185.02 180.189 1181.85C222.155 1175.51 276.841 1157.52 340.497 1129.51C467.793 1073.49 630.761 977.455 799.211 854.685C967.66 731.915 1109.65 605.686 1203.04 500.864C1249.74 448.447 1284.26 401.424 1303.86 362.893C1313.66 343.626 1319.71 326.532 1321.72 311.982C1323.72 297.439 1321.67 285.52 1315.39 276.479Z" stroke="url(#paint26_linear_65_71)" stroke-opacity="0.7" stroke-width="2"/>
<path opacity="0.965517" d="M1296.23 233.137C1289.15 224.733 1278.3 219.807 1263.95 218.237C1249.6 216.666 1231.84 218.467 1211.09 223.443C1169.59 233.394 1116.37 255.991 1055.03 289.303C932.373 355.92 777.464 465.282 619.396 601.606C461.329 737.931 330.075 875.366 245.645 987.352C203.424 1043.35 172.946 1092.94 156.666 1132.82C148.525 1152.76 143.956 1170.22 143.218 1184.8C142.479 1199.38 145.569 1211.01 152.65 1219.41C159.731 1227.82 170.588 1232.74 184.934 1234.31C199.286 1235.88 217.049 1234.08 237.798 1229.11C279.294 1219.15 332.517 1196.56 393.854 1163.25C516.512 1096.63 671.42 987.267 829.488 850.943C987.556 714.618 1118.81 577.183 1203.24 465.198C1245.46 409.198 1275.94 359.607 1292.22 319.73C1300.36 299.79 1304.93 282.331 1305.67 267.746C1306.41 253.166 1303.32 241.541 1296.23 233.137Z" stroke="url(#paint27_linear_65_71)" stroke-opacity="0.7" stroke-width="2"/>
<path d="M1243.99 190.101C1236.16 182.397 1224.86 178.467 1210.35 178.166C1195.83 177.865 1178.19 181.202 1157.83 187.945C1117.12 201.429 1065.77 228.463 1007.22 266.82C890.131 343.524 744.461 465.385 597.978 614.226C451.495 763.066 331.976 910.664 257.151 1028.96C219.734 1088.11 193.523 1139.9 180.69 1180.81C174.273 1201.28 171.219 1218.97 171.751 1233.48C172.284 1247.98 176.394 1259.23 184.222 1266.93C192.049 1274.63 203.357 1278.56 217.868 1278.86C232.386 1279.17 250.026 1275.83 270.382 1269.09C311.091 1255.6 362.447 1228.57 420.997 1190.21C538.083 1113.51 683.753 991.646 830.236 842.805C976.719 693.964 1096.24 546.367 1171.06 428.071C1208.48 368.916 1234.69 317.134 1247.52 276.216C1253.94 255.755 1257 238.063 1256.46 223.552C1255.93 209.048 1251.82 197.804 1243.99 190.101Z" stroke="url(#paint28_linear_65_71)" stroke-opacity="0.7" stroke-width="2"/>
</g>
<defs>
<linearGradient id="paint0_linear_65_71" x1="683.378" y1="-114.74" x2="614.929" y2="1354.18" gradientUnits="userSpaceOnUse">
<stop stop-color="#DFA9E7"/>
<stop offset="1" stop-color="#68B0DA"/>
</linearGradient>
<linearGradient id="paint1_linear_65_71" x1="623.673" y1="-110.944" x2="683.624" y2="1349.89" gradientUnits="userSpaceOnUse">
<stop stop-color="#DFA9E7"/>
<stop offset="1" stop-color="#68B0DA"/>
</linearGradient>
<linearGradient id="paint2_linear_65_71" x1="563.833" y1="-101.575" x2="748.822" y2="1340.36" gradientUnits="userSpaceOnUse">
<stop stop-color="#DFA9E7"/>
<stop offset="1" stop-color="#68B0DA"/>
</linearGradient>
<linearGradient id="paint3_linear_65_71" x1="504.34" y1="-86.6707" x2="810.277" y2="1326.42" gradientUnits="userSpaceOnUse">
<stop stop-color="#DFA9E7"/>
<stop offset="1" stop-color="#68B0DA"/>
</linearGradient>
<linearGradient id="paint4_linear_65_71" x1="445.664" y1="-66.3069" x2="867.926" y2="1308.84" gradientUnits="userSpaceOnUse">
<stop stop-color="#DFA9E7"/>
<stop offset="1" stop-color="#68B0DA"/>
</linearGradient>
<linearGradient id="paint5_linear_65_71" x1="388.309" y1="-40.631" x2="921.9" y2="1288.24" gradientUnits="userSpaceOnUse">
<stop stop-color="#DFA9E7"/>
<stop offset="1" stop-color="#68B0DA"/>
</linearGradient>
<linearGradient id="paint6_linear_65_71" x1="332.727" y1="-9.79188" x2="972.413" y2="1265.17" gradientUnits="userSpaceOnUse">
<stop stop-color="#DFA9E7"/>
<stop offset="1" stop-color="#68B0DA"/>
</linearGradient>
<linearGradient id="paint7_linear_65_71" x1="279.369" y1="26.0006" x2="1019.76" y2="1240.02" gradientUnits="userSpaceOnUse">
<stop stop-color="#DFA9E7"/>
<stop offset="1" stop-color="#68B0DA"/>
</linearGradient>
<linearGradient id="paint8_linear_65_71" x1="228.681" y1="66.5057" x2="1064.29" y2="1213.03" gradientUnits="userSpaceOnUse">
<stop stop-color="#DFA9E7"/>
<stop offset="1" stop-color="#68B0DA"/>
</linearGradient>
<linearGradient id="paint9_linear_65_71" x1="181.072" y1="111.445" x2="1106.34" y2="1184.3" gradientUnits="userSpaceOnUse">
<stop stop-color="#DFA9E7"/>
<stop offset="1" stop-color="#68B0DA"/>
</linearGradient>
<linearGradient id="paint10_linear_65_71" x1="136.939" y1="160.509" x2="1146.21" y2="1153.79" gradientUnits="userSpaceOnUse">
<stop stop-color="#DFA9E7"/>
<stop offset="1" stop-color="#68B0DA"/>
</linearGradient>
<linearGradient id="paint11_linear_65_71" x1="96.6448" y1="213.354" x2="1184.13" y2="1121.38" gradientUnits="userSpaceOnUse">
<stop stop-color="#DFA9E7"/>
<stop offset="1" stop-color="#68B0DA"/>
</linearGradient>
<linearGradient id="paint12_linear_65_71" x1="60.5296" y1="269.604" x2="1220.25" y2="1086.8" gradientUnits="userSpaceOnUse">
<stop stop-color="#DFA9E7"/>
<stop offset="1" stop-color="#68B0DA"/>
</linearGradient>
<linearGradient id="paint13_linear_65_71" x1="28.8912" y1="328.864" x2="1254.58" y2="1049.78" gradientUnits="userSpaceOnUse">
<stop stop-color="#DFA9E7"/>
<stop offset="1" stop-color="#68B0DA"/>
</linearGradient>
<linearGradient id="paint14_linear_65_71" x1="2.01641" y1="390.714" x2="1287.03" y2="1009.96" gradientUnits="userSpaceOnUse">
<stop stop-color="#DFA9E7"/>
<stop offset="1" stop-color="#68B0DA"/>
</linearGradient>
<linearGradient id="paint15_linear_65_71" x1="-19.8752" y1="454.712" x2="1317.34" y2="967.017" gradientUnits="userSpaceOnUse">
<stop stop-color="#DFA9E7"/>
<stop offset="1" stop-color="#68B0DA"/>
</linearGradient>
<linearGradient id="paint16_linear_65_71" x1="-36.5646" y1="520.392" x2="1345.15" y2="920.643" gradientUnits="userSpaceOnUse">
<stop stop-color="#DFA9E7"/>
<stop offset="1" stop-color="#68B0DA"/>
</linearGradient>
<linearGradient id="paint17_linear_65_71" x1="-47.9189" y1="587.303" x2="1369.88" y2="870.639" gradientUnits="userSpaceOnUse">
<stop stop-color="#DFA9E7"/>
<stop offset="1" stop-color="#68B0DA"/>
</linearGradient>
<linearGradient id="paint18_linear_65_71" x1="-53.8112" y1="654.959" x2="1390.9" y2="816.901" gradientUnits="userSpaceOnUse">
<stop stop-color="#DFA9E7"/>
<stop offset="1" stop-color="#68B0DA"/>
</linearGradient>
<linearGradient id="paint19_linear_65_71" x1="-54.1665" y1="722.87" x2="1407.44" y2="759.489" gradientUnits="userSpaceOnUse">
<stop stop-color="#DFA9E7"/>
<stop offset="1" stop-color="#68B0DA"/>
</linearGradient>
<linearGradient id="paint20_linear_65_71" x1="-48.9516" y1="790.554" x2="1418.69" y2="698.659" gradientUnits="userSpaceOnUse">
<stop stop-color="#DFA9E7"/>
<stop offset="1" stop-color="#68B0DA"/>
</linearGradient>
<linearGradient id="paint21_linear_65_71" x1="-38.1741" y1="857.525" x2="1423.83" y2="634.889" gradientUnits="userSpaceOnUse">
<stop stop-color="#DFA9E7"/>
<stop offset="1" stop-color="#68B0DA"/>
</linearGradient>
<linearGradient id="paint22_linear_65_71" x1="-21.887" y1="923.302" x2="1422.06" y2="568.882" gradientUnits="userSpaceOnUse">
<stop stop-color="#DFA9E7"/>
<stop offset="1" stop-color="#68B0DA"/>
</linearGradient>
<linearGradient id="paint23_linear_65_71" x1="-0.181111" y1="987.415" x2="1412.73" y2="501.575" gradientUnits="userSpaceOnUse">
<stop stop-color="#DFA9E7"/>
<stop offset="1" stop-color="#68B0DA"/>
</linearGradient>
<linearGradient id="paint24_linear_65_71" x1="26.8066" y1="1049.41" x2="1395.34" y2="434.103" gradientUnits="userSpaceOnUse">
<stop stop-color="#DFA9E7"/>
<stop offset="1" stop-color="#68B0DA"/>
</linearGradient>
<linearGradient id="paint25_linear_65_71" x1="58.904" y1="1108.84" x2="1369.65" y2="367.764" gradientUnits="userSpaceOnUse">
<stop stop-color="#DFA9E7"/>
<stop offset="1" stop-color="#68B0DA"/>
</linearGradient>
<linearGradient id="paint26_linear_65_71" x1="95.8917" y1="1165.28" x2="1335.69" y2="303.945" gradientUnits="userSpaceOnUse">
<stop stop-color="#DFA9E7"/>
<stop offset="1" stop-color="#68B0DA"/>
</linearGradient>
<linearGradient id="paint27_linear_65_71" x1="151.893" y1="1220.07" x2="1308.19" y2="245.768" gradientUnits="userSpaceOnUse">
<stop stop-color="#DFA9E7"/>
<stop offset="1" stop-color="#68B0DA"/>
</linearGradient>
<linearGradient id="paint28_linear_65_71" x1="183.52" y1="1267.64" x2="1244.69" y2="189.388" gradientUnits="userSpaceOnUse">
<stop stop-color="#DFA9E7"/>
<stop offset="1" stop-color="#68B0DA"/>
</linearGradient>
</defs>
</svg>
